%TF.GenerationSoftware,KiCad,Pcbnew,(5.1.8)-1*%
%TF.CreationDate,2021-07-06T20:41:50+01:00*%
%TF.ProjectId,ESP32-S2-PowerMeter,45535033-322d-4533-922d-506f7765724d,rev?*%
%TF.SameCoordinates,Original*%
%TF.FileFunction,Paste,Bot*%
%TF.FilePolarity,Positive*%
%FSLAX46Y46*%
G04 Gerber Fmt 4.6, Leading zero omitted, Abs format (unit mm)*
G04 Created by KiCad (PCBNEW (5.1.8)-1) date 2021-07-06 20:41:50*
%MOMM*%
%LPD*%
G01*
G04 APERTURE LIST*
%ADD10R,1.500000X0.900000*%
%ADD11R,0.900000X1.500000*%
%ADD12R,4.100000X4.100000*%
G04 APERTURE END LIST*
D10*
%TO.C,U1*%
X132125000Y-125725000D03*
X132125000Y-146725000D03*
X132125000Y-148225000D03*
D11*
X130250000Y-148975000D03*
X128750000Y-148975000D03*
X127250000Y-148975000D03*
X125750000Y-148975000D03*
X124250000Y-148975000D03*
X122750000Y-148975000D03*
X121250000Y-148975000D03*
X119750000Y-148975000D03*
D10*
X132125000Y-127225000D03*
X132125000Y-128725000D03*
X132125000Y-130225000D03*
X132125000Y-131725000D03*
X132125000Y-133225000D03*
X132125000Y-134725000D03*
X132125000Y-136225000D03*
X132125000Y-137725000D03*
X132125000Y-139225000D03*
X132125000Y-140725000D03*
X132125000Y-142225000D03*
X132125000Y-143725000D03*
X132125000Y-145225000D03*
X114875000Y-131825000D03*
X114875000Y-133325000D03*
X114875000Y-134825000D03*
X114875000Y-136325000D03*
X114875000Y-137825000D03*
X114875000Y-139325000D03*
X114875000Y-140825000D03*
X114875000Y-142325000D03*
X114875000Y-143825000D03*
X114875000Y-145325000D03*
X114875000Y-146825000D03*
X114875000Y-148325000D03*
D11*
X116750000Y-148975000D03*
X118250000Y-148975000D03*
D10*
X114875000Y-130325000D03*
X114875000Y-128725000D03*
X114875000Y-127225000D03*
X114875000Y-125825000D03*
D12*
X124690000Y-133765000D03*
%TD*%
M02*
