%TF.GenerationSoftware,KiCad,Pcbnew,(5.1.8)-1*%
%TF.CreationDate,2021-07-06T20:41:50+01:00*%
%TF.ProjectId,ESP32-S2-PowerMeter,45535033-322d-4533-922d-506f7765724d,rev?*%
%TF.SameCoordinates,Original*%
%TF.FileFunction,Soldermask,Bot*%
%TF.FilePolarity,Negative*%
%FSLAX46Y46*%
G04 Gerber Fmt 4.6, Leading zero omitted, Abs format (unit mm)*
G04 Created by KiCad (PCBNEW (5.1.8)-1) date 2021-07-06 20:41:50*
%MOMM*%
%LPD*%
G01*
G04 APERTURE LIST*
%ADD10C,0.650000*%
%ADD11C,1.600000*%
%ADD12C,1.800000*%
%ADD13C,0.100000*%
%ADD14C,0.850000*%
%ADD15C,2.000000*%
%ADD16R,1.500000X0.900000*%
%ADD17R,0.900000X1.500000*%
%ADD18R,4.100000X4.100000*%
%ADD19C,3.200000*%
G04 APERTURE END LIST*
D10*
%TO.C,J1*%
X120610000Y-162940000D03*
X126390000Y-162940000D03*
%TD*%
D11*
%TO.C,J3*%
X135000000Y-148000000D03*
X141000000Y-148000000D03*
%TD*%
%TO.C,J4*%
X135000000Y-130000000D03*
X141000000Y-130000000D03*
%TD*%
%TO.C,J5*%
X112000000Y-148000000D03*
X106000000Y-148000000D03*
%TD*%
%TO.C,J6*%
X112000000Y-130000000D03*
X106000000Y-130000000D03*
%TD*%
D12*
%TO.C,J7*%
X110000000Y-160500000D03*
D11*
X105500000Y-160500000D03*
%TD*%
D13*
%TO.C,JP1*%
G36*
X125750602Y-156850000D02*
G01*
X125750602Y-156825466D01*
X125755412Y-156776635D01*
X125764984Y-156728510D01*
X125779228Y-156681555D01*
X125798005Y-156636222D01*
X125821136Y-156592949D01*
X125848396Y-156552150D01*
X125879524Y-156514221D01*
X125914221Y-156479524D01*
X125952150Y-156448396D01*
X125992949Y-156421136D01*
X126036222Y-156398005D01*
X126081555Y-156379228D01*
X126128510Y-156364984D01*
X126176635Y-156355412D01*
X126225466Y-156350602D01*
X126250000Y-156350602D01*
X126250000Y-156350000D01*
X126750000Y-156350000D01*
X126750000Y-156350602D01*
X126774534Y-156350602D01*
X126823365Y-156355412D01*
X126871490Y-156364984D01*
X126918445Y-156379228D01*
X126963778Y-156398005D01*
X127007051Y-156421136D01*
X127047850Y-156448396D01*
X127085779Y-156479524D01*
X127120476Y-156514221D01*
X127151604Y-156552150D01*
X127178864Y-156592949D01*
X127201995Y-156636222D01*
X127220772Y-156681555D01*
X127235016Y-156728510D01*
X127244588Y-156776635D01*
X127249398Y-156825466D01*
X127249398Y-156850000D01*
X127250000Y-156850000D01*
X127250000Y-157350000D01*
X125750000Y-157350000D01*
X125750000Y-156850000D01*
X125750602Y-156850000D01*
G37*
G36*
X127250000Y-157650000D02*
G01*
X127250000Y-158150000D01*
X127249398Y-158150000D01*
X127249398Y-158174534D01*
X127244588Y-158223365D01*
X127235016Y-158271490D01*
X127220772Y-158318445D01*
X127201995Y-158363778D01*
X127178864Y-158407051D01*
X127151604Y-158447850D01*
X127120476Y-158485779D01*
X127085779Y-158520476D01*
X127047850Y-158551604D01*
X127007051Y-158578864D01*
X126963778Y-158601995D01*
X126918445Y-158620772D01*
X126871490Y-158635016D01*
X126823365Y-158644588D01*
X126774534Y-158649398D01*
X126750000Y-158649398D01*
X126750000Y-158650000D01*
X126250000Y-158650000D01*
X126250000Y-158649398D01*
X126225466Y-158649398D01*
X126176635Y-158644588D01*
X126128510Y-158635016D01*
X126081555Y-158620772D01*
X126036222Y-158601995D01*
X125992949Y-158578864D01*
X125952150Y-158551604D01*
X125914221Y-158520476D01*
X125879524Y-158485779D01*
X125848396Y-158447850D01*
X125821136Y-158407051D01*
X125798005Y-158363778D01*
X125779228Y-158318445D01*
X125764984Y-158271490D01*
X125755412Y-158223365D01*
X125750602Y-158174534D01*
X125750602Y-158150000D01*
X125750000Y-158150000D01*
X125750000Y-157650000D01*
X127250000Y-157650000D01*
G37*
%TD*%
D14*
%TO.C,SW1*%
X136500000Y-166000000D03*
X133500000Y-166000000D03*
%TD*%
D15*
%TO.C,TP1*%
X117300000Y-159300000D03*
%TD*%
%TO.C,TP2*%
X118600000Y-153400000D03*
%TD*%
%TO.C,TP3*%
X130700000Y-153200000D03*
%TD*%
D16*
%TO.C,U1*%
X132125000Y-125725000D03*
X132125000Y-146725000D03*
X132125000Y-148225000D03*
D17*
X130250000Y-148975000D03*
X128750000Y-148975000D03*
X127250000Y-148975000D03*
X125750000Y-148975000D03*
X124250000Y-148975000D03*
X122750000Y-148975000D03*
X121250000Y-148975000D03*
X119750000Y-148975000D03*
D16*
X132125000Y-127225000D03*
X132125000Y-128725000D03*
X132125000Y-130225000D03*
X132125000Y-131725000D03*
X132125000Y-133225000D03*
X132125000Y-134725000D03*
X132125000Y-136225000D03*
X132125000Y-137725000D03*
X132125000Y-139225000D03*
X132125000Y-140725000D03*
X132125000Y-142225000D03*
X132125000Y-143725000D03*
X132125000Y-145225000D03*
X114875000Y-131825000D03*
X114875000Y-133325000D03*
X114875000Y-134825000D03*
X114875000Y-136325000D03*
X114875000Y-137825000D03*
X114875000Y-139325000D03*
X114875000Y-140825000D03*
X114875000Y-142325000D03*
X114875000Y-143825000D03*
X114875000Y-145325000D03*
X114875000Y-146825000D03*
X114875000Y-148325000D03*
D17*
X116750000Y-148975000D03*
X118250000Y-148975000D03*
D16*
X114875000Y-130325000D03*
X114875000Y-128725000D03*
X114875000Y-127225000D03*
X114875000Y-125825000D03*
D18*
X124690000Y-133765000D03*
%TD*%
D19*
%TO.C,H1*%
X123500000Y-155700000D03*
%TD*%
M02*
