%TF.GenerationSoftware,KiCad,Pcbnew,(5.1.8)-1*%
%TF.CreationDate,2021-07-06T20:41:50+01:00*%
%TF.ProjectId,ESP32-S2-PowerMeter,45535033-322d-4533-922d-506f7765724d,rev?*%
%TF.SameCoordinates,Original*%
%TF.FileFunction,Legend,Bot*%
%TF.FilePolarity,Positive*%
%FSLAX46Y46*%
G04 Gerber Fmt 4.6, Leading zero omitted, Abs format (unit mm)*
G04 Created by KiCad (PCBNEW (5.1.8)-1) date 2021-07-06 20:41:50*
%MOMM*%
%LPD*%
G01*
G04 APERTURE LIST*
%ADD10C,0.300000*%
%ADD11C,0.250000*%
%ADD12C,0.150000*%
%ADD13C,0.120000*%
G04 APERTURE END LIST*
D10*
X142428571Y-161892857D02*
X143571428Y-161892857D01*
X142428571Y-153892857D02*
X143571428Y-153892857D01*
X143000000Y-153321428D02*
X143000000Y-154464285D01*
D11*
X137857142Y-156095238D02*
X137952380Y-156380952D01*
X138047619Y-156476190D01*
X138238095Y-156571428D01*
X138523809Y-156571428D01*
X138714285Y-156476190D01*
X138809523Y-156380952D01*
X138904761Y-156190476D01*
X138904761Y-155428571D01*
X136904761Y-155428571D01*
X136904761Y-156095238D01*
X137000000Y-156285714D01*
X137095238Y-156380952D01*
X137285714Y-156476190D01*
X137476190Y-156476190D01*
X137666666Y-156380952D01*
X137761904Y-156285714D01*
X137857142Y-156095238D01*
X137857142Y-155428571D01*
X138904761Y-158285714D02*
X137857142Y-158285714D01*
X137666666Y-158190476D01*
X137571428Y-158000000D01*
X137571428Y-157619047D01*
X137666666Y-157428571D01*
X138809523Y-158285714D02*
X138904761Y-158095238D01*
X138904761Y-157619047D01*
X138809523Y-157428571D01*
X138619047Y-157333333D01*
X138428571Y-157333333D01*
X138238095Y-157428571D01*
X138142857Y-157619047D01*
X138142857Y-158095238D01*
X138047619Y-158285714D01*
X137571428Y-158952380D02*
X137571428Y-159714285D01*
X136904761Y-159238095D02*
X138619047Y-159238095D01*
X138809523Y-159333333D01*
X138904761Y-159523809D01*
X138904761Y-159714285D01*
X137571428Y-160095238D02*
X137571428Y-160857142D01*
X136904761Y-160380952D02*
X138619047Y-160380952D01*
X138809523Y-160476190D01*
X138904761Y-160666666D01*
X138904761Y-160857142D01*
X106595238Y-164357142D02*
X106595238Y-163976190D01*
X106690476Y-163785714D01*
X106785714Y-163690476D01*
X107071428Y-163500000D01*
X107452380Y-163404761D01*
X108214285Y-163404761D01*
X108404761Y-163500000D01*
X108500000Y-163595238D01*
X108595238Y-163785714D01*
X108595238Y-164166666D01*
X108500000Y-164357142D01*
X108404761Y-164452380D01*
X108214285Y-164547619D01*
X107738095Y-164547619D01*
X107547619Y-164452380D01*
X107452380Y-164357142D01*
X107357142Y-164166666D01*
X107357142Y-163785714D01*
X107452380Y-163595238D01*
X107547619Y-163500000D01*
X107738095Y-163404761D01*
X108595238Y-162833333D02*
X106595238Y-162166666D01*
X108595238Y-161500000D01*
X107166666Y-159404761D02*
X107166666Y-158452380D01*
X106595238Y-159595238D02*
X108595238Y-158928571D01*
X106595238Y-158261904D01*
X106785714Y-156452380D02*
X106690476Y-156547619D01*
X106595238Y-156833333D01*
X106595238Y-157023809D01*
X106690476Y-157309523D01*
X106880952Y-157500000D01*
X107071428Y-157595238D01*
X107452380Y-157690476D01*
X107738095Y-157690476D01*
X108119047Y-157595238D01*
X108309523Y-157500000D01*
X108500000Y-157309523D01*
X108595238Y-157023809D01*
X108595238Y-156833333D01*
X108500000Y-156547619D01*
X108404761Y-156452380D01*
X108285714Y-149380952D02*
X108190476Y-149476190D01*
X108095238Y-149761904D01*
X108095238Y-149952380D01*
X108190476Y-150238095D01*
X108380952Y-150428571D01*
X108571428Y-150523809D01*
X108952380Y-150619047D01*
X109238095Y-150619047D01*
X109619047Y-150523809D01*
X109809523Y-150428571D01*
X110000000Y-150238095D01*
X110095238Y-149952380D01*
X110095238Y-149761904D01*
X110000000Y-149476190D01*
X109904761Y-149380952D01*
X108095238Y-148523809D02*
X110095238Y-148523809D01*
X109142857Y-148523809D02*
X109142857Y-147380952D01*
X108095238Y-147380952D02*
X110095238Y-147380952D01*
X110095238Y-146619047D02*
X110095238Y-145380952D01*
X109333333Y-146047619D01*
X109333333Y-145761904D01*
X109238095Y-145571428D01*
X109142857Y-145476190D01*
X108952380Y-145380952D01*
X108476190Y-145380952D01*
X108285714Y-145476190D01*
X108190476Y-145571428D01*
X108095238Y-145761904D01*
X108095238Y-146333333D01*
X108190476Y-146523809D01*
X108285714Y-146619047D01*
X108285714Y-131380952D02*
X108190476Y-131476190D01*
X108095238Y-131761904D01*
X108095238Y-131952380D01*
X108190476Y-132238095D01*
X108380952Y-132428571D01*
X108571428Y-132523809D01*
X108952380Y-132619047D01*
X109238095Y-132619047D01*
X109619047Y-132523809D01*
X109809523Y-132428571D01*
X110000000Y-132238095D01*
X110095238Y-131952380D01*
X110095238Y-131761904D01*
X110000000Y-131476190D01*
X109904761Y-131380952D01*
X108095238Y-130523809D02*
X110095238Y-130523809D01*
X109142857Y-130523809D02*
X109142857Y-129380952D01*
X108095238Y-129380952D02*
X110095238Y-129380952D01*
X109428571Y-127571428D02*
X108095238Y-127571428D01*
X110190476Y-128047619D02*
X108761904Y-128523809D01*
X108761904Y-127285714D01*
X138714285Y-128619047D02*
X138809523Y-128523809D01*
X138904761Y-128238095D01*
X138904761Y-128047619D01*
X138809523Y-127761904D01*
X138619047Y-127571428D01*
X138428571Y-127476190D01*
X138047619Y-127380952D01*
X137761904Y-127380952D01*
X137380952Y-127476190D01*
X137190476Y-127571428D01*
X137000000Y-127761904D01*
X136904761Y-128047619D01*
X136904761Y-128238095D01*
X137000000Y-128523809D01*
X137095238Y-128619047D01*
X138904761Y-129476190D02*
X136904761Y-129476190D01*
X137857142Y-129476190D02*
X137857142Y-130619047D01*
X138904761Y-130619047D02*
X136904761Y-130619047D01*
X137095238Y-131476190D02*
X137000000Y-131571428D01*
X136904761Y-131761904D01*
X136904761Y-132238095D01*
X137000000Y-132428571D01*
X137095238Y-132523809D01*
X137285714Y-132619047D01*
X137476190Y-132619047D01*
X137761904Y-132523809D01*
X138904761Y-131380952D01*
X138904761Y-132619047D01*
X138714285Y-146619047D02*
X138809523Y-146523809D01*
X138904761Y-146238095D01*
X138904761Y-146047619D01*
X138809523Y-145761904D01*
X138619047Y-145571428D01*
X138428571Y-145476190D01*
X138047619Y-145380952D01*
X137761904Y-145380952D01*
X137380952Y-145476190D01*
X137190476Y-145571428D01*
X137000000Y-145761904D01*
X136904761Y-146047619D01*
X136904761Y-146238095D01*
X137000000Y-146523809D01*
X137095238Y-146619047D01*
X138904761Y-147476190D02*
X136904761Y-147476190D01*
X137857142Y-147476190D02*
X137857142Y-148619047D01*
X138904761Y-148619047D02*
X136904761Y-148619047D01*
X138904761Y-150619047D02*
X138904761Y-149476190D01*
X138904761Y-150047619D02*
X136904761Y-150047619D01*
X137190476Y-149857142D01*
X137380952Y-149666666D01*
X137476190Y-149476190D01*
D12*
X140697619Y-164652380D02*
X140697619Y-163652380D01*
X140364285Y-164366666D01*
X140030952Y-163652380D01*
X140030952Y-164652380D01*
X139650000Y-163652380D02*
X139411904Y-164652380D01*
X139221428Y-163938095D01*
X139030952Y-164652380D01*
X138792857Y-163652380D01*
X137364285Y-163652380D02*
X137364285Y-164366666D01*
X137411904Y-164509523D01*
X137507142Y-164604761D01*
X137650000Y-164652380D01*
X137745238Y-164652380D01*
X136459523Y-163985714D02*
X136459523Y-164652380D01*
X136888095Y-163985714D02*
X136888095Y-164509523D01*
X136840476Y-164604761D01*
X136745238Y-164652380D01*
X136602380Y-164652380D01*
X136507142Y-164604761D01*
X136459523Y-164557142D01*
X135840476Y-164652380D02*
X135935714Y-164604761D01*
X135983333Y-164509523D01*
X135983333Y-163652380D01*
X135554761Y-163985714D02*
X135316666Y-164652380D01*
X135078571Y-163985714D02*
X135316666Y-164652380D01*
X135411904Y-164890476D01*
X135459523Y-164938095D01*
X135554761Y-164985714D01*
X133983333Y-163747619D02*
X133935714Y-163700000D01*
X133840476Y-163652380D01*
X133602380Y-163652380D01*
X133507142Y-163700000D01*
X133459523Y-163747619D01*
X133411904Y-163842857D01*
X133411904Y-163938095D01*
X133459523Y-164080952D01*
X134030952Y-164652380D01*
X133411904Y-164652380D01*
X132792857Y-163652380D02*
X132697619Y-163652380D01*
X132602380Y-163700000D01*
X132554761Y-163747619D01*
X132507142Y-163842857D01*
X132459523Y-164033333D01*
X132459523Y-164271428D01*
X132507142Y-164461904D01*
X132554761Y-164557142D01*
X132602380Y-164604761D01*
X132697619Y-164652380D01*
X132792857Y-164652380D01*
X132888095Y-164604761D01*
X132935714Y-164557142D01*
X132983333Y-164461904D01*
X133030952Y-164271428D01*
X133030952Y-164033333D01*
X132983333Y-163842857D01*
X132935714Y-163747619D01*
X132888095Y-163700000D01*
X132792857Y-163652380D01*
X132078571Y-163747619D02*
X132030952Y-163700000D01*
X131935714Y-163652380D01*
X131697619Y-163652380D01*
X131602380Y-163700000D01*
X131554761Y-163747619D01*
X131507142Y-163842857D01*
X131507142Y-163938095D01*
X131554761Y-164080952D01*
X132126190Y-164652380D01*
X131507142Y-164652380D01*
X130554761Y-164652380D02*
X131126190Y-164652380D01*
X130840476Y-164652380D02*
X130840476Y-163652380D01*
X130935714Y-163795238D01*
X131030952Y-163890476D01*
X131126190Y-163938095D01*
D11*
X140778571Y-166457142D02*
X140111904Y-166457142D01*
X139826190Y-167504761D02*
X140778571Y-167504761D01*
X140778571Y-165504761D01*
X139826190Y-165504761D01*
X139064285Y-167409523D02*
X138778571Y-167504761D01*
X138302380Y-167504761D01*
X138111904Y-167409523D01*
X138016666Y-167314285D01*
X137921428Y-167123809D01*
X137921428Y-166933333D01*
X138016666Y-166742857D01*
X138111904Y-166647619D01*
X138302380Y-166552380D01*
X138683333Y-166457142D01*
X138873809Y-166361904D01*
X138969047Y-166266666D01*
X139064285Y-166076190D01*
X139064285Y-165885714D01*
X138969047Y-165695238D01*
X138873809Y-165600000D01*
X138683333Y-165504761D01*
X138207142Y-165504761D01*
X137921428Y-165600000D01*
X137064285Y-167504761D02*
X137064285Y-165504761D01*
X136302380Y-165504761D01*
X136111904Y-165600000D01*
X136016666Y-165695238D01*
X135921428Y-165885714D01*
X135921428Y-166171428D01*
X136016666Y-166361904D01*
X136111904Y-166457142D01*
X136302380Y-166552380D01*
X137064285Y-166552380D01*
X135254761Y-165504761D02*
X134016666Y-165504761D01*
X134683333Y-166266666D01*
X134397619Y-166266666D01*
X134207142Y-166361904D01*
X134111904Y-166457142D01*
X134016666Y-166647619D01*
X134016666Y-167123809D01*
X134111904Y-167314285D01*
X134207142Y-167409523D01*
X134397619Y-167504761D01*
X134969047Y-167504761D01*
X135159523Y-167409523D01*
X135254761Y-167314285D01*
X133254761Y-165695238D02*
X133159523Y-165600000D01*
X132969047Y-165504761D01*
X132492857Y-165504761D01*
X132302380Y-165600000D01*
X132207142Y-165695238D01*
X132111904Y-165885714D01*
X132111904Y-166076190D01*
X132207142Y-166361904D01*
X133350000Y-167504761D01*
X132111904Y-167504761D01*
X131254761Y-166742857D02*
X129730952Y-166742857D01*
X128873809Y-167409523D02*
X128588095Y-167504761D01*
X128111904Y-167504761D01*
X127921428Y-167409523D01*
X127826190Y-167314285D01*
X127730952Y-167123809D01*
X127730952Y-166933333D01*
X127826190Y-166742857D01*
X127921428Y-166647619D01*
X128111904Y-166552380D01*
X128492857Y-166457142D01*
X128683333Y-166361904D01*
X128778571Y-166266666D01*
X128873809Y-166076190D01*
X128873809Y-165885714D01*
X128778571Y-165695238D01*
X128683333Y-165600000D01*
X128492857Y-165504761D01*
X128016666Y-165504761D01*
X127730952Y-165600000D01*
X126969047Y-165695238D02*
X126873809Y-165600000D01*
X126683333Y-165504761D01*
X126207142Y-165504761D01*
X126016666Y-165600000D01*
X125921428Y-165695238D01*
X125826190Y-165885714D01*
X125826190Y-166076190D01*
X125921428Y-166361904D01*
X127064285Y-167504761D01*
X125826190Y-167504761D01*
X123445238Y-167504761D02*
X123445238Y-165504761D01*
X122683333Y-165504761D01*
X122492857Y-165600000D01*
X122397619Y-165695238D01*
X122302380Y-165885714D01*
X122302380Y-166171428D01*
X122397619Y-166361904D01*
X122492857Y-166457142D01*
X122683333Y-166552380D01*
X123445238Y-166552380D01*
X121159523Y-167504761D02*
X121350000Y-167409523D01*
X121445238Y-167314285D01*
X121540476Y-167123809D01*
X121540476Y-166552380D01*
X121445238Y-166361904D01*
X121350000Y-166266666D01*
X121159523Y-166171428D01*
X120873809Y-166171428D01*
X120683333Y-166266666D01*
X120588095Y-166361904D01*
X120492857Y-166552380D01*
X120492857Y-167123809D01*
X120588095Y-167314285D01*
X120683333Y-167409523D01*
X120873809Y-167504761D01*
X121159523Y-167504761D01*
X119826190Y-166171428D02*
X119445238Y-167504761D01*
X119064285Y-166552380D01*
X118683333Y-167504761D01*
X118302380Y-166171428D01*
X116778571Y-167409523D02*
X116969047Y-167504761D01*
X117350000Y-167504761D01*
X117540476Y-167409523D01*
X117635714Y-167219047D01*
X117635714Y-166457142D01*
X117540476Y-166266666D01*
X117350000Y-166171428D01*
X116969047Y-166171428D01*
X116778571Y-166266666D01*
X116683333Y-166457142D01*
X116683333Y-166647619D01*
X117635714Y-166838095D01*
X115826190Y-167504761D02*
X115826190Y-166171428D01*
X115826190Y-166552380D02*
X115730952Y-166361904D01*
X115635714Y-166266666D01*
X115445238Y-166171428D01*
X115254761Y-166171428D01*
X113064285Y-167504761D02*
X113064285Y-165504761D01*
X112397619Y-166933333D01*
X111730952Y-165504761D01*
X111730952Y-167504761D01*
X110016666Y-167409523D02*
X110207142Y-167504761D01*
X110588095Y-167504761D01*
X110778571Y-167409523D01*
X110873809Y-167219047D01*
X110873809Y-166457142D01*
X110778571Y-166266666D01*
X110588095Y-166171428D01*
X110207142Y-166171428D01*
X110016666Y-166266666D01*
X109921428Y-166457142D01*
X109921428Y-166647619D01*
X110873809Y-166838095D01*
X109350000Y-166171428D02*
X108588095Y-166171428D01*
X109064285Y-165504761D02*
X109064285Y-167219047D01*
X108969047Y-167409523D01*
X108778571Y-167504761D01*
X108588095Y-167504761D01*
X107159523Y-167409523D02*
X107350000Y-167504761D01*
X107730952Y-167504761D01*
X107921428Y-167409523D01*
X108016666Y-167219047D01*
X108016666Y-166457142D01*
X107921428Y-166266666D01*
X107730952Y-166171428D01*
X107350000Y-166171428D01*
X107159523Y-166266666D01*
X107064285Y-166457142D01*
X107064285Y-166647619D01*
X108016666Y-166838095D01*
X106207142Y-167504761D02*
X106207142Y-166171428D01*
X106207142Y-166552380D02*
X106111904Y-166361904D01*
X106016666Y-166266666D01*
X105826190Y-166171428D01*
X105635714Y-166171428D01*
D13*
%TO.C,JP1*%
X126800000Y-158900000D02*
G75*
G03*
X127500000Y-158200000I0J700000D01*
G01*
X125500000Y-158200000D02*
G75*
G03*
X126200000Y-158900000I700000J0D01*
G01*
X126200000Y-156100000D02*
G75*
G03*
X125500000Y-156800000I0J-700000D01*
G01*
X127500000Y-156800000D02*
G75*
G03*
X126800000Y-156100000I-700000J0D01*
G01*
X126200000Y-158900000D02*
X126800000Y-158900000D01*
X125500000Y-156800000D02*
X125500000Y-158200000D01*
X126800000Y-156100000D02*
X126200000Y-156100000D01*
X127500000Y-158200000D02*
X127500000Y-156800000D01*
%TO.C,U1*%
X132620000Y-149300000D02*
X130960000Y-149300000D01*
X132620000Y-148940000D02*
X132620000Y-149300000D01*
X114380000Y-149300000D02*
X116040000Y-149300000D01*
X114380000Y-149040000D02*
X114380000Y-149300000D01*
X132625000Y-118050000D02*
X114370000Y-118050000D01*
X132610000Y-125130000D02*
X132625000Y-118050000D01*
X114370000Y-124470000D02*
X114370000Y-118050000D01*
X132610000Y-125130000D02*
X133000000Y-125130000D01*
%TO.C,JP1*%
D12*
X133573809Y-161452380D02*
X133573809Y-160452380D01*
X133192857Y-160452380D01*
X133097619Y-160500000D01*
X133050000Y-160547619D01*
X133002380Y-160642857D01*
X133002380Y-160785714D01*
X133050000Y-160880952D01*
X133097619Y-160928571D01*
X133192857Y-160976190D01*
X133573809Y-160976190D01*
X132430952Y-161452380D02*
X132526190Y-161404761D01*
X132573809Y-161357142D01*
X132621428Y-161261904D01*
X132621428Y-160976190D01*
X132573809Y-160880952D01*
X132526190Y-160833333D01*
X132430952Y-160785714D01*
X132288095Y-160785714D01*
X132192857Y-160833333D01*
X132145238Y-160880952D01*
X132097619Y-160976190D01*
X132097619Y-161261904D01*
X132145238Y-161357142D01*
X132192857Y-161404761D01*
X132288095Y-161452380D01*
X132430952Y-161452380D01*
X131764285Y-160785714D02*
X131573809Y-161452380D01*
X131383333Y-160976190D01*
X131192857Y-161452380D01*
X131002380Y-160785714D01*
X130240476Y-161404761D02*
X130335714Y-161452380D01*
X130526190Y-161452380D01*
X130621428Y-161404761D01*
X130669047Y-161309523D01*
X130669047Y-160928571D01*
X130621428Y-160833333D01*
X130526190Y-160785714D01*
X130335714Y-160785714D01*
X130240476Y-160833333D01*
X130192857Y-160928571D01*
X130192857Y-161023809D01*
X130669047Y-161119047D01*
X129764285Y-161452380D02*
X129764285Y-160785714D01*
X129764285Y-160976190D02*
X129716666Y-160880952D01*
X129669047Y-160833333D01*
X129573809Y-160785714D01*
X129478571Y-160785714D01*
X128383333Y-161452380D02*
X128383333Y-160452380D01*
X128002380Y-160452380D01*
X127907142Y-160500000D01*
X127859523Y-160547619D01*
X127811904Y-160642857D01*
X127811904Y-160785714D01*
X127859523Y-160880952D01*
X127907142Y-160928571D01*
X128002380Y-160976190D01*
X128383333Y-160976190D01*
X126954761Y-161452380D02*
X126954761Y-160928571D01*
X127002380Y-160833333D01*
X127097619Y-160785714D01*
X127288095Y-160785714D01*
X127383333Y-160833333D01*
X126954761Y-161404761D02*
X127050000Y-161452380D01*
X127288095Y-161452380D01*
X127383333Y-161404761D01*
X127430952Y-161309523D01*
X127430952Y-161214285D01*
X127383333Y-161119047D01*
X127288095Y-161071428D01*
X127050000Y-161071428D01*
X126954761Y-161023809D01*
X126621428Y-160785714D02*
X126240476Y-160785714D01*
X126478571Y-160452380D02*
X126478571Y-161309523D01*
X126430952Y-161404761D01*
X126335714Y-161452380D01*
X126240476Y-161452380D01*
X125907142Y-161452380D02*
X125907142Y-160452380D01*
X125478571Y-161452380D02*
X125478571Y-160928571D01*
X125526190Y-160833333D01*
X125621428Y-160785714D01*
X125764285Y-160785714D01*
X125859523Y-160833333D01*
X125907142Y-160880952D01*
X123907142Y-160928571D02*
X123764285Y-160976190D01*
X123716666Y-161023809D01*
X123669047Y-161119047D01*
X123669047Y-161261904D01*
X123716666Y-161357142D01*
X123764285Y-161404761D01*
X123859523Y-161452380D01*
X124240476Y-161452380D01*
X124240476Y-160452380D01*
X123907142Y-160452380D01*
X123811904Y-160500000D01*
X123764285Y-160547619D01*
X123716666Y-160642857D01*
X123716666Y-160738095D01*
X123764285Y-160833333D01*
X123811904Y-160880952D01*
X123907142Y-160928571D01*
X124240476Y-160928571D01*
X123335714Y-160785714D02*
X123097619Y-161452380D01*
X122859523Y-160785714D02*
X123097619Y-161452380D01*
X123192857Y-161690476D01*
X123240476Y-161738095D01*
X123335714Y-161785714D01*
X122478571Y-160785714D02*
X122478571Y-161785714D01*
X122478571Y-160833333D02*
X122383333Y-160785714D01*
X122192857Y-160785714D01*
X122097619Y-160833333D01*
X122050000Y-160880952D01*
X122002380Y-160976190D01*
X122002380Y-161261904D01*
X122050000Y-161357142D01*
X122097619Y-161404761D01*
X122192857Y-161452380D01*
X122383333Y-161452380D01*
X122478571Y-161404761D01*
X121145238Y-161452380D02*
X121145238Y-160928571D01*
X121192857Y-160833333D01*
X121288095Y-160785714D01*
X121478571Y-160785714D01*
X121573809Y-160833333D01*
X121145238Y-161404761D02*
X121240476Y-161452380D01*
X121478571Y-161452380D01*
X121573809Y-161404761D01*
X121621428Y-161309523D01*
X121621428Y-161214285D01*
X121573809Y-161119047D01*
X121478571Y-161071428D01*
X121240476Y-161071428D01*
X121145238Y-161023809D01*
X120716666Y-161404761D02*
X120621428Y-161452380D01*
X120430952Y-161452380D01*
X120335714Y-161404761D01*
X120288095Y-161309523D01*
X120288095Y-161261904D01*
X120335714Y-161166666D01*
X120430952Y-161119047D01*
X120573809Y-161119047D01*
X120669047Y-161071428D01*
X120716666Y-160976190D01*
X120716666Y-160928571D01*
X120669047Y-160833333D01*
X120573809Y-160785714D01*
X120430952Y-160785714D01*
X120335714Y-160833333D01*
X119907142Y-161404761D02*
X119811904Y-161452380D01*
X119621428Y-161452380D01*
X119526190Y-161404761D01*
X119478571Y-161309523D01*
X119478571Y-161261904D01*
X119526190Y-161166666D01*
X119621428Y-161119047D01*
X119764285Y-161119047D01*
X119859523Y-161071428D01*
X119907142Y-160976190D01*
X119907142Y-160928571D01*
X119859523Y-160833333D01*
X119764285Y-160785714D01*
X119621428Y-160785714D01*
X119526190Y-160833333D01*
%TO.C,U1*%
X133362380Y-147268095D02*
X134171904Y-147268095D01*
X134267142Y-147315714D01*
X134314761Y-147363333D01*
X134362380Y-147458571D01*
X134362380Y-147649047D01*
X134314761Y-147744285D01*
X134267142Y-147791904D01*
X134171904Y-147839523D01*
X133362380Y-147839523D01*
X134362380Y-148839523D02*
X134362380Y-148268095D01*
X134362380Y-148553809D02*
X133362380Y-148553809D01*
X133505238Y-148458571D01*
X133600476Y-148363333D01*
X133648095Y-148268095D01*
%TD*%
M02*
