%TF.GenerationSoftware,KiCad,Pcbnew,(5.1.8)-1*%
%TF.CreationDate,2021-07-06T20:41:50+01:00*%
%TF.ProjectId,ESP32-S2-PowerMeter,45535033-322d-4533-922d-506f7765724d,rev?*%
%TF.SameCoordinates,Original*%
%TF.FileFunction,Copper,L2,Bot*%
%TF.FilePolarity,Positive*%
%FSLAX46Y46*%
G04 Gerber Fmt 4.6, Leading zero omitted, Abs format (unit mm)*
G04 Created by KiCad (PCBNEW (5.1.8)-1) date 2021-07-06 20:41:50*
%MOMM*%
%LPD*%
G01*
G04 APERTURE LIST*
%TA.AperFunction,SMDPad,CuDef*%
%ADD10C,0.100000*%
%TD*%
%TA.AperFunction,ComponentPad*%
%ADD11C,2.000000*%
%TD*%
%TA.AperFunction,SMDPad,CuDef*%
%ADD12R,1.500000X0.900000*%
%TD*%
%TA.AperFunction,SMDPad,CuDef*%
%ADD13R,0.900000X1.500000*%
%TD*%
%TA.AperFunction,SMDPad,CuDef*%
%ADD14R,4.100000X4.100000*%
%TD*%
%TA.AperFunction,ViaPad*%
%ADD15C,0.800000*%
%TD*%
%TA.AperFunction,Conductor*%
%ADD16C,0.250000*%
%TD*%
%TA.AperFunction,Conductor*%
%ADD17C,0.500000*%
%TD*%
%TA.AperFunction,Conductor*%
%ADD18C,0.200000*%
%TD*%
%TA.AperFunction,Conductor*%
%ADD19C,0.254000*%
%TD*%
%TA.AperFunction,Conductor*%
%ADD20C,0.100000*%
%TD*%
G04 APERTURE END LIST*
%TA.AperFunction,SMDPad,CuDef*%
D10*
%TO.P,JP1,2*%
%TO.N,Net-(C5-Pad1)*%
G36*
X125750602Y-156850000D02*
G01*
X125750602Y-156825466D01*
X125755412Y-156776635D01*
X125764984Y-156728510D01*
X125779228Y-156681555D01*
X125798005Y-156636222D01*
X125821136Y-156592949D01*
X125848396Y-156552150D01*
X125879524Y-156514221D01*
X125914221Y-156479524D01*
X125952150Y-156448396D01*
X125992949Y-156421136D01*
X126036222Y-156398005D01*
X126081555Y-156379228D01*
X126128510Y-156364984D01*
X126176635Y-156355412D01*
X126225466Y-156350602D01*
X126250000Y-156350602D01*
X126250000Y-156350000D01*
X126750000Y-156350000D01*
X126750000Y-156350602D01*
X126774534Y-156350602D01*
X126823365Y-156355412D01*
X126871490Y-156364984D01*
X126918445Y-156379228D01*
X126963778Y-156398005D01*
X127007051Y-156421136D01*
X127047850Y-156448396D01*
X127085779Y-156479524D01*
X127120476Y-156514221D01*
X127151604Y-156552150D01*
X127178864Y-156592949D01*
X127201995Y-156636222D01*
X127220772Y-156681555D01*
X127235016Y-156728510D01*
X127244588Y-156776635D01*
X127249398Y-156825466D01*
X127249398Y-156850000D01*
X127250000Y-156850000D01*
X127250000Y-157350000D01*
X125750000Y-157350000D01*
X125750000Y-156850000D01*
X125750602Y-156850000D01*
G37*
%TD.AperFunction*%
%TA.AperFunction,SMDPad,CuDef*%
%TO.P,JP1,1*%
%TO.N,VBUS*%
G36*
X127250000Y-157650000D02*
G01*
X127250000Y-158150000D01*
X127249398Y-158150000D01*
X127249398Y-158174534D01*
X127244588Y-158223365D01*
X127235016Y-158271490D01*
X127220772Y-158318445D01*
X127201995Y-158363778D01*
X127178864Y-158407051D01*
X127151604Y-158447850D01*
X127120476Y-158485779D01*
X127085779Y-158520476D01*
X127047850Y-158551604D01*
X127007051Y-158578864D01*
X126963778Y-158601995D01*
X126918445Y-158620772D01*
X126871490Y-158635016D01*
X126823365Y-158644588D01*
X126774534Y-158649398D01*
X126750000Y-158649398D01*
X126750000Y-158650000D01*
X126250000Y-158650000D01*
X126250000Y-158649398D01*
X126225466Y-158649398D01*
X126176635Y-158644588D01*
X126128510Y-158635016D01*
X126081555Y-158620772D01*
X126036222Y-158601995D01*
X125992949Y-158578864D01*
X125952150Y-158551604D01*
X125914221Y-158520476D01*
X125879524Y-158485779D01*
X125848396Y-158447850D01*
X125821136Y-158407051D01*
X125798005Y-158363778D01*
X125779228Y-158318445D01*
X125764984Y-158271490D01*
X125755412Y-158223365D01*
X125750602Y-158174534D01*
X125750602Y-158150000D01*
X125750000Y-158150000D01*
X125750000Y-157650000D01*
X127250000Y-157650000D01*
G37*
%TD.AperFunction*%
%TD*%
D11*
%TO.P,TP1,1*%
%TO.N,VBUS*%
X117300000Y-159300000D03*
%TD*%
%TO.P,TP2,1*%
%TO.N,Net-(C5-Pad1)*%
X118600000Y-153400000D03*
%TD*%
%TO.P,TP3,1*%
%TO.N,+3V3*%
X130700000Y-153200000D03*
%TD*%
D12*
%TO.P,U1,1*%
%TO.N,GND*%
X132125000Y-125725000D03*
%TO.P,U1,15*%
%TO.N,Net-(U1-Pad15)*%
X132125000Y-146725000D03*
%TO.P,U1,16*%
%TO.N,Net-(U1-Pad16)*%
X132125000Y-148225000D03*
D13*
%TO.P,U1,17*%
%TO.N,Net-(U1-Pad17)*%
X130250000Y-148975000D03*
%TO.P,U1,18*%
%TO.N,Net-(U1-Pad18)*%
X128750000Y-148975000D03*
%TO.P,U1,19*%
%TO.N,Net-(U1-Pad19)*%
X127250000Y-148975000D03*
%TO.P,U1,20*%
%TO.N,CHARGE_STATE*%
X125750000Y-148975000D03*
%TO.P,U1,21*%
%TO.N,POWER_GOOD*%
X124250000Y-148975000D03*
%TO.P,U1,22*%
%TO.N,USB_D-*%
X122750000Y-148975000D03*
%TO.P,U1,23*%
%TO.N,USB_D+*%
X121250000Y-148975000D03*
%TO.P,U1,24*%
%TO.N,AC_PLUG*%
X119750000Y-148975000D03*
D12*
%TO.P,U1,2*%
%TO.N,+3V3*%
X132125000Y-127225000D03*
%TO.P,U1,3*%
%TO.N,Net-(SW1-Pad2)*%
X132125000Y-128725000D03*
%TO.P,U1,4*%
%TO.N,CH2_IN*%
X132125000Y-130225000D03*
%TO.P,U1,5*%
%TO.N,CH1_IN*%
X132125000Y-131725000D03*
%TO.P,U1,6*%
%TO.N,CH4_IN*%
X132125000Y-133225000D03*
%TO.P,U1,7*%
%TO.N,CH3_IN*%
X132125000Y-134725000D03*
%TO.P,U1,8*%
%TO.N,V_IN*%
X132125000Y-136225000D03*
%TO.P,U1,9*%
%TO.N,REF_SENSE*%
X132125000Y-137725000D03*
%TO.P,U1,10*%
%TO.N,VPP_SENSE*%
X132125000Y-139225000D03*
%TO.P,U1,11*%
%TO.N,Net-(U1-Pad11)*%
X132125000Y-140725000D03*
%TO.P,U1,12*%
%TO.N,Net-(U1-Pad12)*%
X132125000Y-142225000D03*
%TO.P,U1,13*%
%TO.N,Net-(U1-Pad13)*%
X132125000Y-143725000D03*
%TO.P,U1,14*%
%TO.N,Net-(U1-Pad14)*%
X132125000Y-145225000D03*
%TO.P,U1,38*%
%TO.N,Net-(TP4-Pad1)*%
X114875000Y-131825000D03*
%TO.P,U1,37*%
%TO.N,Net-(TP5-Pad1)*%
X114875000Y-133325000D03*
%TO.P,U1,36*%
%TO.N,Net-(U1-Pad36)*%
X114875000Y-134825000D03*
%TO.P,U1,35*%
%TO.N,GREEN*%
X114875000Y-136325000D03*
%TO.P,U1,34*%
%TO.N,RED*%
X114875000Y-137825000D03*
%TO.P,U1,33*%
%TO.N,BLUE*%
X114875000Y-139325000D03*
%TO.P,U1,32*%
%TO.N,Net-(U1-Pad32)*%
X114875000Y-140825000D03*
%TO.P,U1,31*%
%TO.N,Net-(U1-Pad31)*%
X114875000Y-142325000D03*
%TO.P,U1,30*%
%TO.N,Net-(U1-Pad30)*%
X114875000Y-143825000D03*
%TO.P,U1,29*%
%TO.N,Net-(U1-Pad29)*%
X114875000Y-145325000D03*
%TO.P,U1,28*%
%TO.N,Net-(U1-Pad28)*%
X114875000Y-146825000D03*
%TO.P,U1,27*%
%TO.N,Net-(U1-Pad27)*%
X114875000Y-148325000D03*
D13*
%TO.P,U1,26*%
%TO.N,GND*%
X116750000Y-148975000D03*
%TO.P,U1,25*%
%TO.N,Net-(U1-Pad25)*%
X118250000Y-148975000D03*
D12*
%TO.P,U1,39*%
%TO.N,Net-(U1-Pad39)*%
X114875000Y-130325000D03*
%TO.P,U1,40*%
%TO.N,Net-(U1-Pad40)*%
X114875000Y-128725000D03*
%TO.P,U1,41*%
%TO.N,Net-(C4-Pad1)*%
X114875000Y-127225000D03*
%TO.P,U1,42*%
%TO.N,GND*%
X114875000Y-125825000D03*
D14*
%TO.P,U1,43*%
X124690000Y-133765000D03*
%TD*%
D15*
%TO.N,VBUS*%
X127499996Y-158100000D03*
%TO.N,GND*%
X119400000Y-142400000D03*
X123700000Y-142100000D03*
X125500000Y-145600000D03*
X116800000Y-141500000D03*
X117600000Y-150900000D03*
X123700000Y-152900000D03*
X130500000Y-150800000D03*
X127800000Y-134700000D03*
X129400000Y-144900000D03*
X126300000Y-143600000D03*
X123700000Y-138700000D03*
X130700000Y-162600000D03*
X130100000Y-155700000D03*
X117300000Y-128200000D03*
X116400000Y-161700000D03*
X119800000Y-159300000D03*
X132600000Y-155300000D03*
X114900000Y-157900000D03*
X115100000Y-153000000D03*
X126300000Y-125400000D03*
X127334610Y-159721688D03*
%TO.N,Net-(C4-Pad1)*%
X117000000Y-126900000D03*
%TO.N,Net-(C5-Pad1)*%
X127400000Y-156600000D03*
%TO.N,+3V3*%
X130500000Y-126500000D03*
X129442670Y-126657330D03*
%TO.N,CH1_IN*%
X129700000Y-132300000D03*
%TO.N,CH2_IN*%
X130400000Y-129300000D03*
%TO.N,CH3_IN*%
X116700000Y-143600000D03*
X128750000Y-136850000D03*
%TO.N,CH4_IN*%
X128400000Y-132600000D03*
X122300000Y-130500000D03*
%TO.N,USB_D+*%
X123800000Y-160100000D03*
%TO.N,USB_D-*%
X124300000Y-162820002D03*
%TO.N,REF_SENSE*%
X118800000Y-147200000D03*
X109000000Y-139000000D03*
X138000000Y-139000000D03*
X105000000Y-128300000D03*
X141500000Y-128400000D03*
X142000000Y-131600000D03*
X105400000Y-131600000D03*
X105500000Y-164400000D03*
X105400000Y-149699968D03*
X105000000Y-146300000D03*
X142100000Y-149600000D03*
X141500000Y-146300000D03*
X107400000Y-149990000D03*
X107380000Y-149130000D03*
%TO.N,VPP_SENSE*%
X129300000Y-154900000D03*
%TO.N,Net-(SW1-Pad2)*%
X133900000Y-162900000D03*
%TO.N,POWER_GOOD*%
X131000000Y-158150001D03*
%TO.N,CHARGE_STATE*%
X131200000Y-155700000D03*
%TO.N,AC_PLUG*%
X118400000Y-156200000D03*
%TO.N,RED*%
X127600000Y-126500000D03*
%TO.N,GREEN*%
X120400000Y-127000000D03*
%TO.N,BLUE*%
X127415150Y-127482767D03*
%TO.N,V_IN*%
X116600000Y-147400010D03*
X133600000Y-135600000D03*
%TO.N,Net-(TP4-Pad1)*%
X116200000Y-132400000D03*
%TO.N,Net-(TP5-Pad1)*%
X116300000Y-133900000D03*
%TD*%
D16*
%TO.N,VBUS*%
X126500000Y-158150000D02*
X127449996Y-158150000D01*
X127449996Y-158150000D02*
X127499996Y-158100000D01*
%TO.N,Net-(C4-Pad1)*%
X115200000Y-126900000D02*
X114875000Y-127225000D01*
X117000000Y-126900000D02*
X115200000Y-126900000D01*
%TO.N,Net-(C5-Pad1)*%
X126750000Y-156600000D02*
X126500000Y-156850000D01*
X127400000Y-156600000D02*
X126750000Y-156600000D01*
D17*
%TO.N,+3V3*%
X130500000Y-126500000D02*
X129600000Y-126500000D01*
X129600000Y-126500000D02*
X129442670Y-126657330D01*
X131625000Y-127225000D02*
X132125000Y-127225000D01*
X131200000Y-126800000D02*
X131625000Y-127225000D01*
X130800000Y-126800000D02*
X131200000Y-126800000D01*
X130500000Y-126500000D02*
X130800000Y-126800000D01*
D16*
%TO.N,CH1_IN*%
X132125000Y-131725000D02*
X130275000Y-131725000D01*
X130275000Y-131725000D02*
X129700000Y-132300000D01*
%TO.N,CH2_IN*%
X131325000Y-130225000D02*
X130400000Y-129300000D01*
X132125000Y-130225000D02*
X131325000Y-130225000D01*
D17*
%TO.N,CH3_IN*%
X128700000Y-136900000D02*
X128750000Y-136850000D01*
X123400000Y-136900000D02*
X128700000Y-136900000D01*
X116700000Y-143600000D02*
X123400000Y-136900000D01*
X130355000Y-134725000D02*
X132125000Y-134725000D01*
X128750000Y-136330000D02*
X130355000Y-134725000D01*
X128750000Y-136850000D02*
X128750000Y-136330000D01*
%TO.N,CH4_IN*%
X132125000Y-133225000D02*
X129060002Y-133225000D01*
X129060002Y-133225000D02*
X126335002Y-130500000D01*
X126335002Y-130500000D02*
X122300000Y-130500000D01*
D18*
%TO.N,USB_D+*%
X123850000Y-160050000D02*
X123850000Y-159468200D01*
X123800000Y-160100000D02*
X123850000Y-160050000D01*
X123850000Y-159468200D02*
X123506800Y-159125000D01*
X123506800Y-159125000D02*
X122506800Y-159125000D01*
X122506800Y-159125000D02*
X120475000Y-157093200D01*
X120475000Y-157093200D02*
X120475000Y-153306800D01*
X121775000Y-150625001D02*
X121250000Y-150100001D01*
X121775000Y-152006800D02*
X121775000Y-150625001D01*
X121250000Y-150100001D02*
X121250000Y-148975000D01*
X120475000Y-153306800D02*
X121775000Y-152006800D01*
%TO.N,USB_D-*%
X124500001Y-159763999D02*
X124300000Y-159563998D01*
X124500001Y-160436001D02*
X124500001Y-159763999D01*
X124300000Y-160636002D02*
X124500001Y-160436001D01*
X124300000Y-159563998D02*
X124300000Y-159281800D01*
X124300000Y-162820002D02*
X124300000Y-160636002D01*
X124300000Y-159281800D02*
X123693200Y-158675000D01*
X123693200Y-158675000D02*
X122693200Y-158675000D01*
X122693200Y-158675000D02*
X120925000Y-156906800D01*
X120925000Y-156906800D02*
X120925000Y-153493200D01*
X122225000Y-152193200D02*
X122225000Y-150625001D01*
X120925000Y-153493200D02*
X122225000Y-152193200D01*
X122225000Y-150625001D02*
X122750000Y-150100001D01*
X122750000Y-150100001D02*
X122750000Y-148975000D01*
D17*
%TO.N,REF_SENSE*%
X121400000Y-147200000D02*
X130875000Y-137725000D01*
X130875000Y-137725000D02*
X132125000Y-137725000D01*
X118800000Y-147200000D02*
X121400000Y-147200000D01*
X107400000Y-149150000D02*
X107380000Y-149130000D01*
X107400000Y-149990000D02*
X107400000Y-149150000D01*
D16*
%TO.N,VPP_SENSE*%
X132125000Y-139225000D02*
X133125000Y-139225000D01*
X133700000Y-139800000D02*
X133700000Y-152800000D01*
X133700000Y-152800000D02*
X131600000Y-154900000D01*
X131600000Y-154900000D02*
X129300000Y-154900000D01*
X133125000Y-139225000D02*
X133700000Y-139800000D01*
%TO.N,Net-(SW1-Pad2)*%
X133900000Y-162900000D02*
X133874999Y-162874999D01*
X133200001Y-129865003D02*
X133200001Y-129500001D01*
X132425000Y-128725000D02*
X132125000Y-128725000D01*
X134348001Y-131013003D02*
X133200001Y-129865003D01*
X136125001Y-137725001D02*
X134348001Y-135948001D01*
X133200001Y-129500001D02*
X132425000Y-128725000D01*
X134348001Y-135948001D02*
X134348001Y-131013003D01*
X136125001Y-160674999D02*
X136125001Y-137725001D01*
X133900000Y-162900000D02*
X136125001Y-160674999D01*
%TO.N,POWER_GOOD*%
X124250000Y-150150000D02*
X124250000Y-148975000D01*
X125299990Y-153336400D02*
X125299990Y-151199990D01*
X125299990Y-151199990D02*
X124250000Y-150150000D01*
X130113591Y-158150001D02*
X125299990Y-153336400D01*
X131000000Y-158150001D02*
X130113591Y-158150001D01*
%TO.N,CHARGE_STATE*%
X130474999Y-156425001D02*
X129025001Y-156425001D01*
X131200000Y-155700000D02*
X130474999Y-156425001D01*
X125750000Y-153150000D02*
X125750000Y-148975000D01*
X129025001Y-156425001D02*
X125750000Y-153150000D01*
%TO.N,AC_PLUG*%
X119750000Y-150050000D02*
X119750000Y-148975000D01*
X117100000Y-152700000D02*
X119750000Y-150050000D01*
X117100000Y-154900000D02*
X117100000Y-152700000D01*
X118400000Y-156200000D02*
X117100000Y-154900000D01*
%TO.N,RED*%
X116711411Y-137825000D02*
X114875000Y-137825000D01*
X119250011Y-128786399D02*
X119250011Y-135286400D01*
X127600000Y-126500000D02*
X122200000Y-126500000D01*
X120900000Y-127800000D02*
X120236410Y-127800000D01*
X122200000Y-126500000D02*
X120900000Y-127800000D01*
X120236410Y-127800000D02*
X119250011Y-128786399D01*
X119250011Y-135286400D02*
X116711411Y-137825000D01*
%TO.N,GREEN*%
X117575000Y-136325000D02*
X114875000Y-136325000D01*
X118800000Y-128600000D02*
X118800000Y-135100000D01*
X118800000Y-135100000D02*
X117575000Y-136325000D01*
X120400000Y-127000000D02*
X118800000Y-128600000D01*
%TO.N,BLUE*%
X115875000Y-139325000D02*
X114875000Y-139325000D01*
X119700019Y-128972801D02*
X119700019Y-135499981D01*
X120422810Y-128250010D02*
X119700019Y-128972801D01*
X126882393Y-126950010D02*
X122386400Y-126950010D01*
X119700019Y-135499981D02*
X115875000Y-139325000D01*
X121086400Y-128250010D02*
X120422810Y-128250010D01*
X122386400Y-126950010D02*
X121086400Y-128250010D01*
X127415150Y-127482767D02*
X126882393Y-126950010D01*
D17*
%TO.N,V_IN*%
X132975000Y-136225000D02*
X132125000Y-136225000D01*
X133600000Y-135600000D02*
X132975000Y-136225000D01*
X130775000Y-136225000D02*
X132125000Y-136225000D01*
X128800000Y-138200000D02*
X130775000Y-136225000D01*
X125800010Y-138200000D02*
X128800000Y-138200000D01*
X116600000Y-147400010D02*
X125800010Y-138200000D01*
D16*
%TO.N,Net-(TP4-Pad1)*%
X115900000Y-132400000D02*
X116200000Y-132400000D01*
X115325000Y-131825000D02*
X115900000Y-132400000D01*
X114875000Y-131825000D02*
X115325000Y-131825000D01*
%TO.N,Net-(TP5-Pad1)*%
X115800000Y-133900000D02*
X116300000Y-133900000D01*
X115225000Y-133325000D02*
X115800000Y-133900000D01*
X114875000Y-133325000D02*
X115225000Y-133325000D01*
%TD*%
D19*
%TO.N,GND*%
X116877000Y-148848000D02*
X116897000Y-148848000D01*
X116897000Y-149102000D01*
X116877000Y-149102000D01*
X116877000Y-150010750D01*
X116972250Y-150106000D01*
X117200000Y-150107843D01*
X117274689Y-150100487D01*
X117346508Y-150078701D01*
X117412696Y-150043322D01*
X117470711Y-149995711D01*
X117502587Y-149956870D01*
X117532131Y-149992869D01*
X117589537Y-150039981D01*
X117655030Y-150074988D01*
X117726095Y-150096545D01*
X117800000Y-150103824D01*
X118700000Y-150103824D01*
X118773905Y-150096545D01*
X118844970Y-150074988D01*
X118910463Y-150039981D01*
X118967869Y-149992869D01*
X119000000Y-149953717D01*
X119032131Y-149992869D01*
X119067868Y-150022197D01*
X116762463Y-152327603D01*
X116743317Y-152343316D01*
X116727604Y-152362462D01*
X116727601Y-152362465D01*
X116680584Y-152419755D01*
X116633970Y-152506964D01*
X116605265Y-152601591D01*
X116595573Y-152700000D01*
X116598001Y-152724653D01*
X116598000Y-154875357D01*
X116595573Y-154900000D01*
X116598000Y-154924643D01*
X116598000Y-154924652D01*
X116605264Y-154998408D01*
X116633969Y-155093035D01*
X116680583Y-155180245D01*
X116743316Y-155256684D01*
X116762467Y-155272401D01*
X117623000Y-156132935D01*
X117623000Y-156276528D01*
X117652859Y-156426643D01*
X117711431Y-156568048D01*
X117796464Y-156695309D01*
X117904691Y-156803536D01*
X118031952Y-156888569D01*
X118173357Y-156947141D01*
X118323472Y-156977000D01*
X118476528Y-156977000D01*
X118626643Y-156947141D01*
X118768048Y-156888569D01*
X118895309Y-156803536D01*
X119003536Y-156695309D01*
X119088569Y-156568048D01*
X119147141Y-156426643D01*
X119177000Y-156276528D01*
X119177000Y-156123472D01*
X119147141Y-155973357D01*
X119088569Y-155831952D01*
X119003536Y-155704691D01*
X118895309Y-155596464D01*
X118768048Y-155511431D01*
X118626643Y-155452859D01*
X118476528Y-155423000D01*
X118332935Y-155423000D01*
X117602000Y-154692066D01*
X117602000Y-154349373D01*
X117722213Y-154469586D01*
X117947746Y-154620282D01*
X118198344Y-154724083D01*
X118464377Y-154777000D01*
X118735623Y-154777000D01*
X119001656Y-154724083D01*
X119252254Y-154620282D01*
X119477787Y-154469586D01*
X119669586Y-154277787D01*
X119820282Y-154052254D01*
X119924083Y-153801656D01*
X119977000Y-153535623D01*
X119977000Y-153264377D01*
X119924083Y-152998344D01*
X119820282Y-152747746D01*
X119669586Y-152522213D01*
X119477787Y-152330414D01*
X119252254Y-152179718D01*
X119001656Y-152075917D01*
X118735623Y-152023000D01*
X118486934Y-152023000D01*
X120087538Y-150422397D01*
X120106684Y-150406684D01*
X120146054Y-150358713D01*
X120153739Y-150349348D01*
X120169417Y-150330245D01*
X120216031Y-150243036D01*
X120244736Y-150148409D01*
X120249608Y-150098938D01*
X120273905Y-150096545D01*
X120344970Y-150074988D01*
X120410463Y-150039981D01*
X120467869Y-149992869D01*
X120500000Y-149953717D01*
X120532131Y-149992869D01*
X120589537Y-150039981D01*
X120655030Y-150074988D01*
X120726095Y-150096545D01*
X120770787Y-150100947D01*
X120773000Y-150123416D01*
X120773000Y-150123423D01*
X120779903Y-150193508D01*
X120807178Y-150283423D01*
X120851471Y-150366290D01*
X120911079Y-150438922D01*
X120929276Y-150453856D01*
X121298001Y-150822582D01*
X121298000Y-151809220D01*
X120154271Y-152952950D01*
X120136080Y-152967879D01*
X120076472Y-153040511D01*
X120055233Y-153080246D01*
X120032178Y-153123378D01*
X120004903Y-153213293D01*
X119995694Y-153306800D01*
X119998001Y-153330225D01*
X119998000Y-157069785D01*
X119995694Y-157093200D01*
X119998000Y-157116615D01*
X119998000Y-157116622D01*
X120004903Y-157186707D01*
X120032178Y-157276622D01*
X120076471Y-157359489D01*
X120136079Y-157432121D01*
X120154276Y-157447055D01*
X122152947Y-159445727D01*
X122167879Y-159463921D01*
X122240511Y-159523529D01*
X122323377Y-159567822D01*
X122413292Y-159595097D01*
X122483377Y-159602000D01*
X122483384Y-159602000D01*
X122506799Y-159604306D01*
X122530214Y-159602000D01*
X123199155Y-159602000D01*
X123196464Y-159604691D01*
X123111431Y-159731952D01*
X123052859Y-159873357D01*
X123023000Y-160023472D01*
X123023000Y-160176528D01*
X123052859Y-160326643D01*
X123111431Y-160468048D01*
X123196464Y-160595309D01*
X123304691Y-160703536D01*
X123431952Y-160788569D01*
X123573357Y-160847141D01*
X123723472Y-160877000D01*
X123823001Y-160877000D01*
X123823000Y-162204232D01*
X123804691Y-162216466D01*
X123696464Y-162324693D01*
X123611431Y-162451954D01*
X123552859Y-162593359D01*
X123523000Y-162743474D01*
X123523000Y-162873000D01*
X121312000Y-162873000D01*
X121312000Y-162870859D01*
X121285023Y-162735234D01*
X121232105Y-162607478D01*
X121155279Y-162492501D01*
X121057499Y-162394721D01*
X120942522Y-162317895D01*
X120814766Y-162264977D01*
X120679141Y-162238000D01*
X120540859Y-162238000D01*
X120405234Y-162264977D01*
X120277478Y-162317895D01*
X120162501Y-162394721D01*
X120064721Y-162492501D01*
X119987895Y-162607478D01*
X119934977Y-162735234D01*
X119908000Y-162870859D01*
X119908000Y-162873000D01*
X114127000Y-162873000D01*
X114127000Y-159164377D01*
X115923000Y-159164377D01*
X115923000Y-159435623D01*
X115975917Y-159701656D01*
X116079718Y-159952254D01*
X116230414Y-160177787D01*
X116422213Y-160369586D01*
X116647746Y-160520282D01*
X116898344Y-160624083D01*
X117164377Y-160677000D01*
X117435623Y-160677000D01*
X117701656Y-160624083D01*
X117952254Y-160520282D01*
X118177787Y-160369586D01*
X118369586Y-160177787D01*
X118520282Y-159952254D01*
X118624083Y-159701656D01*
X118677000Y-159435623D01*
X118677000Y-159164377D01*
X118624083Y-158898344D01*
X118520282Y-158647746D01*
X118369586Y-158422213D01*
X118177787Y-158230414D01*
X117952254Y-158079718D01*
X117701656Y-157975917D01*
X117435623Y-157923000D01*
X117164377Y-157923000D01*
X116898344Y-157975917D01*
X116647746Y-158079718D01*
X116422213Y-158230414D01*
X116230414Y-158422213D01*
X116079718Y-158647746D01*
X115975917Y-158898344D01*
X115923000Y-159164377D01*
X114127000Y-159164377D01*
X114127000Y-149153824D01*
X115625000Y-149153824D01*
X115698905Y-149146545D01*
X115769970Y-149124988D01*
X115835463Y-149089981D01*
X115892869Y-149042869D01*
X115919000Y-149011028D01*
X115919000Y-149102002D01*
X116014248Y-149102002D01*
X115919000Y-149197250D01*
X115917157Y-149725000D01*
X115924513Y-149799689D01*
X115946299Y-149871508D01*
X115981678Y-149937696D01*
X116029289Y-149995711D01*
X116087304Y-150043322D01*
X116153492Y-150078701D01*
X116225311Y-150100487D01*
X116300000Y-150107843D01*
X116527750Y-150106000D01*
X116623000Y-150010750D01*
X116623000Y-149102000D01*
X116603000Y-149102000D01*
X116603000Y-148848000D01*
X116623000Y-148848000D01*
X116623000Y-148828000D01*
X116877000Y-148828000D01*
X116877000Y-148848000D01*
%TA.AperFunction,Conductor*%
D20*
G36*
X116877000Y-148848000D02*
G01*
X116897000Y-148848000D01*
X116897000Y-149102000D01*
X116877000Y-149102000D01*
X116877000Y-150010750D01*
X116972250Y-150106000D01*
X117200000Y-150107843D01*
X117274689Y-150100487D01*
X117346508Y-150078701D01*
X117412696Y-150043322D01*
X117470711Y-149995711D01*
X117502587Y-149956870D01*
X117532131Y-149992869D01*
X117589537Y-150039981D01*
X117655030Y-150074988D01*
X117726095Y-150096545D01*
X117800000Y-150103824D01*
X118700000Y-150103824D01*
X118773905Y-150096545D01*
X118844970Y-150074988D01*
X118910463Y-150039981D01*
X118967869Y-149992869D01*
X119000000Y-149953717D01*
X119032131Y-149992869D01*
X119067868Y-150022197D01*
X116762463Y-152327603D01*
X116743317Y-152343316D01*
X116727604Y-152362462D01*
X116727601Y-152362465D01*
X116680584Y-152419755D01*
X116633970Y-152506964D01*
X116605265Y-152601591D01*
X116595573Y-152700000D01*
X116598001Y-152724653D01*
X116598000Y-154875357D01*
X116595573Y-154900000D01*
X116598000Y-154924643D01*
X116598000Y-154924652D01*
X116605264Y-154998408D01*
X116633969Y-155093035D01*
X116680583Y-155180245D01*
X116743316Y-155256684D01*
X116762467Y-155272401D01*
X117623000Y-156132935D01*
X117623000Y-156276528D01*
X117652859Y-156426643D01*
X117711431Y-156568048D01*
X117796464Y-156695309D01*
X117904691Y-156803536D01*
X118031952Y-156888569D01*
X118173357Y-156947141D01*
X118323472Y-156977000D01*
X118476528Y-156977000D01*
X118626643Y-156947141D01*
X118768048Y-156888569D01*
X118895309Y-156803536D01*
X119003536Y-156695309D01*
X119088569Y-156568048D01*
X119147141Y-156426643D01*
X119177000Y-156276528D01*
X119177000Y-156123472D01*
X119147141Y-155973357D01*
X119088569Y-155831952D01*
X119003536Y-155704691D01*
X118895309Y-155596464D01*
X118768048Y-155511431D01*
X118626643Y-155452859D01*
X118476528Y-155423000D01*
X118332935Y-155423000D01*
X117602000Y-154692066D01*
X117602000Y-154349373D01*
X117722213Y-154469586D01*
X117947746Y-154620282D01*
X118198344Y-154724083D01*
X118464377Y-154777000D01*
X118735623Y-154777000D01*
X119001656Y-154724083D01*
X119252254Y-154620282D01*
X119477787Y-154469586D01*
X119669586Y-154277787D01*
X119820282Y-154052254D01*
X119924083Y-153801656D01*
X119977000Y-153535623D01*
X119977000Y-153264377D01*
X119924083Y-152998344D01*
X119820282Y-152747746D01*
X119669586Y-152522213D01*
X119477787Y-152330414D01*
X119252254Y-152179718D01*
X119001656Y-152075917D01*
X118735623Y-152023000D01*
X118486934Y-152023000D01*
X120087538Y-150422397D01*
X120106684Y-150406684D01*
X120146054Y-150358713D01*
X120153739Y-150349348D01*
X120169417Y-150330245D01*
X120216031Y-150243036D01*
X120244736Y-150148409D01*
X120249608Y-150098938D01*
X120273905Y-150096545D01*
X120344970Y-150074988D01*
X120410463Y-150039981D01*
X120467869Y-149992869D01*
X120500000Y-149953717D01*
X120532131Y-149992869D01*
X120589537Y-150039981D01*
X120655030Y-150074988D01*
X120726095Y-150096545D01*
X120770787Y-150100947D01*
X120773000Y-150123416D01*
X120773000Y-150123423D01*
X120779903Y-150193508D01*
X120807178Y-150283423D01*
X120851471Y-150366290D01*
X120911079Y-150438922D01*
X120929276Y-150453856D01*
X121298001Y-150822582D01*
X121298000Y-151809220D01*
X120154271Y-152952950D01*
X120136080Y-152967879D01*
X120076472Y-153040511D01*
X120055233Y-153080246D01*
X120032178Y-153123378D01*
X120004903Y-153213293D01*
X119995694Y-153306800D01*
X119998001Y-153330225D01*
X119998000Y-157069785D01*
X119995694Y-157093200D01*
X119998000Y-157116615D01*
X119998000Y-157116622D01*
X120004903Y-157186707D01*
X120032178Y-157276622D01*
X120076471Y-157359489D01*
X120136079Y-157432121D01*
X120154276Y-157447055D01*
X122152947Y-159445727D01*
X122167879Y-159463921D01*
X122240511Y-159523529D01*
X122323377Y-159567822D01*
X122413292Y-159595097D01*
X122483377Y-159602000D01*
X122483384Y-159602000D01*
X122506799Y-159604306D01*
X122530214Y-159602000D01*
X123199155Y-159602000D01*
X123196464Y-159604691D01*
X123111431Y-159731952D01*
X123052859Y-159873357D01*
X123023000Y-160023472D01*
X123023000Y-160176528D01*
X123052859Y-160326643D01*
X123111431Y-160468048D01*
X123196464Y-160595309D01*
X123304691Y-160703536D01*
X123431952Y-160788569D01*
X123573357Y-160847141D01*
X123723472Y-160877000D01*
X123823001Y-160877000D01*
X123823000Y-162204232D01*
X123804691Y-162216466D01*
X123696464Y-162324693D01*
X123611431Y-162451954D01*
X123552859Y-162593359D01*
X123523000Y-162743474D01*
X123523000Y-162873000D01*
X121312000Y-162873000D01*
X121312000Y-162870859D01*
X121285023Y-162735234D01*
X121232105Y-162607478D01*
X121155279Y-162492501D01*
X121057499Y-162394721D01*
X120942522Y-162317895D01*
X120814766Y-162264977D01*
X120679141Y-162238000D01*
X120540859Y-162238000D01*
X120405234Y-162264977D01*
X120277478Y-162317895D01*
X120162501Y-162394721D01*
X120064721Y-162492501D01*
X119987895Y-162607478D01*
X119934977Y-162735234D01*
X119908000Y-162870859D01*
X119908000Y-162873000D01*
X114127000Y-162873000D01*
X114127000Y-159164377D01*
X115923000Y-159164377D01*
X115923000Y-159435623D01*
X115975917Y-159701656D01*
X116079718Y-159952254D01*
X116230414Y-160177787D01*
X116422213Y-160369586D01*
X116647746Y-160520282D01*
X116898344Y-160624083D01*
X117164377Y-160677000D01*
X117435623Y-160677000D01*
X117701656Y-160624083D01*
X117952254Y-160520282D01*
X118177787Y-160369586D01*
X118369586Y-160177787D01*
X118520282Y-159952254D01*
X118624083Y-159701656D01*
X118677000Y-159435623D01*
X118677000Y-159164377D01*
X118624083Y-158898344D01*
X118520282Y-158647746D01*
X118369586Y-158422213D01*
X118177787Y-158230414D01*
X117952254Y-158079718D01*
X117701656Y-157975917D01*
X117435623Y-157923000D01*
X117164377Y-157923000D01*
X116898344Y-157975917D01*
X116647746Y-158079718D01*
X116422213Y-158230414D01*
X116230414Y-158422213D01*
X116079718Y-158647746D01*
X115975917Y-158898344D01*
X115923000Y-159164377D01*
X114127000Y-159164377D01*
X114127000Y-149153824D01*
X115625000Y-149153824D01*
X115698905Y-149146545D01*
X115769970Y-149124988D01*
X115835463Y-149089981D01*
X115892869Y-149042869D01*
X115919000Y-149011028D01*
X115919000Y-149102002D01*
X116014248Y-149102002D01*
X115919000Y-149197250D01*
X115917157Y-149725000D01*
X115924513Y-149799689D01*
X115946299Y-149871508D01*
X115981678Y-149937696D01*
X116029289Y-149995711D01*
X116087304Y-150043322D01*
X116153492Y-150078701D01*
X116225311Y-150100487D01*
X116300000Y-150107843D01*
X116527750Y-150106000D01*
X116623000Y-150010750D01*
X116623000Y-149102000D01*
X116603000Y-149102000D01*
X116603000Y-148848000D01*
X116623000Y-148848000D01*
X116623000Y-148828000D01*
X116877000Y-148828000D01*
X116877000Y-148848000D01*
G37*
%TD.AperFunction*%
D19*
X123532131Y-149992869D02*
X123589537Y-150039981D01*
X123655030Y-150074988D01*
X123726095Y-150096545D01*
X123748000Y-150098702D01*
X123748000Y-150125357D01*
X123745573Y-150150000D01*
X123748000Y-150174643D01*
X123748000Y-150174652D01*
X123755264Y-150248408D01*
X123783969Y-150343035D01*
X123830583Y-150430245D01*
X123893316Y-150506684D01*
X123912467Y-150522401D01*
X124797991Y-151407926D01*
X124797990Y-153311757D01*
X124795563Y-153336400D01*
X124797990Y-153361043D01*
X124797990Y-153361052D01*
X124805254Y-153434808D01*
X124833959Y-153529435D01*
X124880573Y-153616645D01*
X124943306Y-153693084D01*
X124962457Y-153708802D01*
X127126092Y-155872437D01*
X127031952Y-155911431D01*
X126915394Y-155989313D01*
X126872914Y-155980863D01*
X126799009Y-155973584D01*
X126774449Y-155973584D01*
X126750000Y-155971176D01*
X126250000Y-155971176D01*
X126225551Y-155973584D01*
X126200991Y-155973584D01*
X126127086Y-155980863D01*
X126030953Y-155999985D01*
X125959890Y-156021542D01*
X125869334Y-156059051D01*
X125803838Y-156094059D01*
X125722339Y-156148515D01*
X125664934Y-156195626D01*
X125595626Y-156264934D01*
X125548515Y-156322339D01*
X125494059Y-156403838D01*
X125459051Y-156469334D01*
X125421542Y-156559890D01*
X125399985Y-156630953D01*
X125380863Y-156727086D01*
X125373584Y-156800991D01*
X125373584Y-156825551D01*
X125371176Y-156850000D01*
X125371176Y-157350000D01*
X125378455Y-157423905D01*
X125400012Y-157494970D01*
X125402701Y-157500000D01*
X125400012Y-157505030D01*
X125378455Y-157576095D01*
X125371176Y-157650000D01*
X125371176Y-158150000D01*
X125373584Y-158174449D01*
X125373584Y-158199009D01*
X125380863Y-158272914D01*
X125399985Y-158369047D01*
X125421542Y-158440110D01*
X125459051Y-158530666D01*
X125494059Y-158596162D01*
X125548515Y-158677661D01*
X125595626Y-158735066D01*
X125664934Y-158804374D01*
X125722339Y-158851485D01*
X125803838Y-158905941D01*
X125869334Y-158940949D01*
X125959890Y-158978458D01*
X126030953Y-159000015D01*
X126127086Y-159019137D01*
X126200991Y-159026416D01*
X126225551Y-159026416D01*
X126250000Y-159028824D01*
X126750000Y-159028824D01*
X126774449Y-159026416D01*
X126799009Y-159026416D01*
X126872914Y-159019137D01*
X126969047Y-159000015D01*
X127040110Y-158978458D01*
X127130666Y-158940949D01*
X127196162Y-158905941D01*
X127277661Y-158851485D01*
X127281081Y-158848678D01*
X127423468Y-158877000D01*
X127576524Y-158877000D01*
X127726639Y-158847141D01*
X127868044Y-158788569D01*
X127995305Y-158703536D01*
X128103532Y-158595309D01*
X128188565Y-158468048D01*
X128247137Y-158326643D01*
X128276996Y-158176528D01*
X128276996Y-158023472D01*
X128247137Y-157873357D01*
X128188565Y-157731952D01*
X128103532Y-157604691D01*
X127995305Y-157496464D01*
X127868044Y-157411431D01*
X127726639Y-157352859D01*
X127649757Y-157337567D01*
X127768048Y-157288569D01*
X127895309Y-157203536D01*
X128003536Y-157095309D01*
X128088569Y-156968048D01*
X128127563Y-156873908D01*
X129741199Y-158487544D01*
X129756907Y-158506685D01*
X129776047Y-158522393D01*
X129776055Y-158522401D01*
X129826665Y-158563935D01*
X129833346Y-158569418D01*
X129920555Y-158616032D01*
X130015182Y-158644737D01*
X130088938Y-158652001D01*
X130088948Y-158652001D01*
X130113591Y-158654428D01*
X130138234Y-158652001D01*
X130403155Y-158652001D01*
X130504691Y-158753537D01*
X130631952Y-158838570D01*
X130773357Y-158897142D01*
X130923472Y-158927001D01*
X131076528Y-158927001D01*
X131226643Y-158897142D01*
X131368048Y-158838570D01*
X131495309Y-158753537D01*
X131603536Y-158645310D01*
X131688569Y-158518049D01*
X131747141Y-158376644D01*
X131777000Y-158226529D01*
X131777000Y-158073473D01*
X131747141Y-157923358D01*
X131688569Y-157781953D01*
X131603536Y-157654692D01*
X131495309Y-157546465D01*
X131368048Y-157461432D01*
X131226643Y-157402860D01*
X131076528Y-157373001D01*
X130923472Y-157373001D01*
X130773357Y-157402860D01*
X130631952Y-157461432D01*
X130504691Y-157546465D01*
X130403155Y-157648001D01*
X130321527Y-157648001D01*
X129600527Y-156927001D01*
X130450356Y-156927001D01*
X130474999Y-156929428D01*
X130499642Y-156927001D01*
X130499652Y-156927001D01*
X130573408Y-156919737D01*
X130668035Y-156891032D01*
X130755244Y-156844418D01*
X130831683Y-156781685D01*
X130847400Y-156762534D01*
X131132934Y-156477000D01*
X131276528Y-156477000D01*
X131426643Y-156447141D01*
X131568048Y-156388569D01*
X131695309Y-156303536D01*
X131803536Y-156195309D01*
X131888569Y-156068048D01*
X131947141Y-155926643D01*
X131977000Y-155776528D01*
X131977000Y-155623472D01*
X131947141Y-155473357D01*
X131888569Y-155331952D01*
X131880207Y-155319437D01*
X131880245Y-155319417D01*
X131956684Y-155256684D01*
X131972402Y-155237533D01*
X132873000Y-154336935D01*
X132873000Y-162873000D01*
X127092000Y-162873000D01*
X127092000Y-162870859D01*
X127065023Y-162735234D01*
X127012105Y-162607478D01*
X126935279Y-162492501D01*
X126837499Y-162394721D01*
X126722522Y-162317895D01*
X126594766Y-162264977D01*
X126459141Y-162238000D01*
X126320859Y-162238000D01*
X126185234Y-162264977D01*
X126057478Y-162317895D01*
X125942501Y-162394721D01*
X125844721Y-162492501D01*
X125767895Y-162607478D01*
X125714977Y-162735234D01*
X125688000Y-162870859D01*
X125688000Y-162873000D01*
X125077000Y-162873000D01*
X125077000Y-162743474D01*
X125047141Y-162593359D01*
X124988569Y-162451954D01*
X124903536Y-162324693D01*
X124795309Y-162216466D01*
X124777000Y-162204232D01*
X124777000Y-160833581D01*
X124820725Y-160789856D01*
X124838922Y-160774922D01*
X124898530Y-160702290D01*
X124942823Y-160619424D01*
X124970098Y-160529509D01*
X124977001Y-160459424D01*
X124977001Y-160459417D01*
X124979307Y-160436002D01*
X124977001Y-160412587D01*
X124977001Y-159787413D01*
X124979307Y-159763998D01*
X124977001Y-159740583D01*
X124977001Y-159740576D01*
X124970098Y-159670491D01*
X124942823Y-159580576D01*
X124898530Y-159497710D01*
X124838922Y-159425078D01*
X124820725Y-159410144D01*
X124777000Y-159366419D01*
X124777000Y-159305215D01*
X124779306Y-159281800D01*
X124777000Y-159258385D01*
X124777000Y-159258378D01*
X124770097Y-159188292D01*
X124742822Y-159098377D01*
X124698529Y-159015511D01*
X124638921Y-158942879D01*
X124620729Y-158927949D01*
X124047055Y-158354276D01*
X124032121Y-158336079D01*
X123959489Y-158276471D01*
X123876623Y-158232178D01*
X123786708Y-158204903D01*
X123716623Y-158198000D01*
X123716615Y-158198000D01*
X123693200Y-158195694D01*
X123669785Y-158198000D01*
X122890780Y-158198000D01*
X121402000Y-156709221D01*
X121402000Y-155505282D01*
X121523000Y-155505282D01*
X121523000Y-155894718D01*
X121598975Y-156276670D01*
X121748005Y-156636461D01*
X121964364Y-156960264D01*
X122239736Y-157235636D01*
X122563539Y-157451995D01*
X122923330Y-157601025D01*
X123305282Y-157677000D01*
X123694718Y-157677000D01*
X124076670Y-157601025D01*
X124436461Y-157451995D01*
X124760264Y-157235636D01*
X125035636Y-156960264D01*
X125251995Y-156636461D01*
X125401025Y-156276670D01*
X125477000Y-155894718D01*
X125477000Y-155505282D01*
X125401025Y-155123330D01*
X125251995Y-154763539D01*
X125035636Y-154439736D01*
X124760264Y-154164364D01*
X124436461Y-153948005D01*
X124076670Y-153798975D01*
X123694718Y-153723000D01*
X123305282Y-153723000D01*
X122923330Y-153798975D01*
X122563539Y-153948005D01*
X122239736Y-154164364D01*
X121964364Y-154439736D01*
X121748005Y-154763539D01*
X121598975Y-155123330D01*
X121523000Y-155505282D01*
X121402000Y-155505282D01*
X121402000Y-153690779D01*
X122545729Y-152547051D01*
X122563921Y-152532121D01*
X122623529Y-152459489D01*
X122667822Y-152376623D01*
X122695097Y-152286708D01*
X122702000Y-152216623D01*
X122702000Y-152216615D01*
X122704306Y-152193200D01*
X122702000Y-152169785D01*
X122702000Y-150822580D01*
X123070729Y-150453852D01*
X123088921Y-150438922D01*
X123148529Y-150366290D01*
X123192822Y-150283424D01*
X123220097Y-150193509D01*
X123227000Y-150123424D01*
X123227000Y-150123417D01*
X123229213Y-150100947D01*
X123273905Y-150096545D01*
X123344970Y-150074988D01*
X123410463Y-150039981D01*
X123467869Y-149992869D01*
X123500000Y-149953717D01*
X123532131Y-149992869D01*
%TA.AperFunction,Conductor*%
D20*
G36*
X123532131Y-149992869D02*
G01*
X123589537Y-150039981D01*
X123655030Y-150074988D01*
X123726095Y-150096545D01*
X123748000Y-150098702D01*
X123748000Y-150125357D01*
X123745573Y-150150000D01*
X123748000Y-150174643D01*
X123748000Y-150174652D01*
X123755264Y-150248408D01*
X123783969Y-150343035D01*
X123830583Y-150430245D01*
X123893316Y-150506684D01*
X123912467Y-150522401D01*
X124797991Y-151407926D01*
X124797990Y-153311757D01*
X124795563Y-153336400D01*
X124797990Y-153361043D01*
X124797990Y-153361052D01*
X124805254Y-153434808D01*
X124833959Y-153529435D01*
X124880573Y-153616645D01*
X124943306Y-153693084D01*
X124962457Y-153708802D01*
X127126092Y-155872437D01*
X127031952Y-155911431D01*
X126915394Y-155989313D01*
X126872914Y-155980863D01*
X126799009Y-155973584D01*
X126774449Y-155973584D01*
X126750000Y-155971176D01*
X126250000Y-155971176D01*
X126225551Y-155973584D01*
X126200991Y-155973584D01*
X126127086Y-155980863D01*
X126030953Y-155999985D01*
X125959890Y-156021542D01*
X125869334Y-156059051D01*
X125803838Y-156094059D01*
X125722339Y-156148515D01*
X125664934Y-156195626D01*
X125595626Y-156264934D01*
X125548515Y-156322339D01*
X125494059Y-156403838D01*
X125459051Y-156469334D01*
X125421542Y-156559890D01*
X125399985Y-156630953D01*
X125380863Y-156727086D01*
X125373584Y-156800991D01*
X125373584Y-156825551D01*
X125371176Y-156850000D01*
X125371176Y-157350000D01*
X125378455Y-157423905D01*
X125400012Y-157494970D01*
X125402701Y-157500000D01*
X125400012Y-157505030D01*
X125378455Y-157576095D01*
X125371176Y-157650000D01*
X125371176Y-158150000D01*
X125373584Y-158174449D01*
X125373584Y-158199009D01*
X125380863Y-158272914D01*
X125399985Y-158369047D01*
X125421542Y-158440110D01*
X125459051Y-158530666D01*
X125494059Y-158596162D01*
X125548515Y-158677661D01*
X125595626Y-158735066D01*
X125664934Y-158804374D01*
X125722339Y-158851485D01*
X125803838Y-158905941D01*
X125869334Y-158940949D01*
X125959890Y-158978458D01*
X126030953Y-159000015D01*
X126127086Y-159019137D01*
X126200991Y-159026416D01*
X126225551Y-159026416D01*
X126250000Y-159028824D01*
X126750000Y-159028824D01*
X126774449Y-159026416D01*
X126799009Y-159026416D01*
X126872914Y-159019137D01*
X126969047Y-159000015D01*
X127040110Y-158978458D01*
X127130666Y-158940949D01*
X127196162Y-158905941D01*
X127277661Y-158851485D01*
X127281081Y-158848678D01*
X127423468Y-158877000D01*
X127576524Y-158877000D01*
X127726639Y-158847141D01*
X127868044Y-158788569D01*
X127995305Y-158703536D01*
X128103532Y-158595309D01*
X128188565Y-158468048D01*
X128247137Y-158326643D01*
X128276996Y-158176528D01*
X128276996Y-158023472D01*
X128247137Y-157873357D01*
X128188565Y-157731952D01*
X128103532Y-157604691D01*
X127995305Y-157496464D01*
X127868044Y-157411431D01*
X127726639Y-157352859D01*
X127649757Y-157337567D01*
X127768048Y-157288569D01*
X127895309Y-157203536D01*
X128003536Y-157095309D01*
X128088569Y-156968048D01*
X128127563Y-156873908D01*
X129741199Y-158487544D01*
X129756907Y-158506685D01*
X129776047Y-158522393D01*
X129776055Y-158522401D01*
X129826665Y-158563935D01*
X129833346Y-158569418D01*
X129920555Y-158616032D01*
X130015182Y-158644737D01*
X130088938Y-158652001D01*
X130088948Y-158652001D01*
X130113591Y-158654428D01*
X130138234Y-158652001D01*
X130403155Y-158652001D01*
X130504691Y-158753537D01*
X130631952Y-158838570D01*
X130773357Y-158897142D01*
X130923472Y-158927001D01*
X131076528Y-158927001D01*
X131226643Y-158897142D01*
X131368048Y-158838570D01*
X131495309Y-158753537D01*
X131603536Y-158645310D01*
X131688569Y-158518049D01*
X131747141Y-158376644D01*
X131777000Y-158226529D01*
X131777000Y-158073473D01*
X131747141Y-157923358D01*
X131688569Y-157781953D01*
X131603536Y-157654692D01*
X131495309Y-157546465D01*
X131368048Y-157461432D01*
X131226643Y-157402860D01*
X131076528Y-157373001D01*
X130923472Y-157373001D01*
X130773357Y-157402860D01*
X130631952Y-157461432D01*
X130504691Y-157546465D01*
X130403155Y-157648001D01*
X130321527Y-157648001D01*
X129600527Y-156927001D01*
X130450356Y-156927001D01*
X130474999Y-156929428D01*
X130499642Y-156927001D01*
X130499652Y-156927001D01*
X130573408Y-156919737D01*
X130668035Y-156891032D01*
X130755244Y-156844418D01*
X130831683Y-156781685D01*
X130847400Y-156762534D01*
X131132934Y-156477000D01*
X131276528Y-156477000D01*
X131426643Y-156447141D01*
X131568048Y-156388569D01*
X131695309Y-156303536D01*
X131803536Y-156195309D01*
X131888569Y-156068048D01*
X131947141Y-155926643D01*
X131977000Y-155776528D01*
X131977000Y-155623472D01*
X131947141Y-155473357D01*
X131888569Y-155331952D01*
X131880207Y-155319437D01*
X131880245Y-155319417D01*
X131956684Y-155256684D01*
X131972402Y-155237533D01*
X132873000Y-154336935D01*
X132873000Y-162873000D01*
X127092000Y-162873000D01*
X127092000Y-162870859D01*
X127065023Y-162735234D01*
X127012105Y-162607478D01*
X126935279Y-162492501D01*
X126837499Y-162394721D01*
X126722522Y-162317895D01*
X126594766Y-162264977D01*
X126459141Y-162238000D01*
X126320859Y-162238000D01*
X126185234Y-162264977D01*
X126057478Y-162317895D01*
X125942501Y-162394721D01*
X125844721Y-162492501D01*
X125767895Y-162607478D01*
X125714977Y-162735234D01*
X125688000Y-162870859D01*
X125688000Y-162873000D01*
X125077000Y-162873000D01*
X125077000Y-162743474D01*
X125047141Y-162593359D01*
X124988569Y-162451954D01*
X124903536Y-162324693D01*
X124795309Y-162216466D01*
X124777000Y-162204232D01*
X124777000Y-160833581D01*
X124820725Y-160789856D01*
X124838922Y-160774922D01*
X124898530Y-160702290D01*
X124942823Y-160619424D01*
X124970098Y-160529509D01*
X124977001Y-160459424D01*
X124977001Y-160459417D01*
X124979307Y-160436002D01*
X124977001Y-160412587D01*
X124977001Y-159787413D01*
X124979307Y-159763998D01*
X124977001Y-159740583D01*
X124977001Y-159740576D01*
X124970098Y-159670491D01*
X124942823Y-159580576D01*
X124898530Y-159497710D01*
X124838922Y-159425078D01*
X124820725Y-159410144D01*
X124777000Y-159366419D01*
X124777000Y-159305215D01*
X124779306Y-159281800D01*
X124777000Y-159258385D01*
X124777000Y-159258378D01*
X124770097Y-159188292D01*
X124742822Y-159098377D01*
X124698529Y-159015511D01*
X124638921Y-158942879D01*
X124620729Y-158927949D01*
X124047055Y-158354276D01*
X124032121Y-158336079D01*
X123959489Y-158276471D01*
X123876623Y-158232178D01*
X123786708Y-158204903D01*
X123716623Y-158198000D01*
X123716615Y-158198000D01*
X123693200Y-158195694D01*
X123669785Y-158198000D01*
X122890780Y-158198000D01*
X121402000Y-156709221D01*
X121402000Y-155505282D01*
X121523000Y-155505282D01*
X121523000Y-155894718D01*
X121598975Y-156276670D01*
X121748005Y-156636461D01*
X121964364Y-156960264D01*
X122239736Y-157235636D01*
X122563539Y-157451995D01*
X122923330Y-157601025D01*
X123305282Y-157677000D01*
X123694718Y-157677000D01*
X124076670Y-157601025D01*
X124436461Y-157451995D01*
X124760264Y-157235636D01*
X125035636Y-156960264D01*
X125251995Y-156636461D01*
X125401025Y-156276670D01*
X125477000Y-155894718D01*
X125477000Y-155505282D01*
X125401025Y-155123330D01*
X125251995Y-154763539D01*
X125035636Y-154439736D01*
X124760264Y-154164364D01*
X124436461Y-153948005D01*
X124076670Y-153798975D01*
X123694718Y-153723000D01*
X123305282Y-153723000D01*
X122923330Y-153798975D01*
X122563539Y-153948005D01*
X122239736Y-154164364D01*
X121964364Y-154439736D01*
X121748005Y-154763539D01*
X121598975Y-155123330D01*
X121523000Y-155505282D01*
X121402000Y-155505282D01*
X121402000Y-153690779D01*
X122545729Y-152547051D01*
X122563921Y-152532121D01*
X122623529Y-152459489D01*
X122667822Y-152376623D01*
X122695097Y-152286708D01*
X122702000Y-152216623D01*
X122702000Y-152216615D01*
X122704306Y-152193200D01*
X122702000Y-152169785D01*
X122702000Y-150822580D01*
X123070729Y-150453852D01*
X123088921Y-150438922D01*
X123148529Y-150366290D01*
X123192822Y-150283424D01*
X123220097Y-150193509D01*
X123227000Y-150123424D01*
X123227000Y-150123417D01*
X123229213Y-150100947D01*
X123273905Y-150096545D01*
X123344970Y-150074988D01*
X123410463Y-150039981D01*
X123467869Y-149992869D01*
X123500000Y-149953717D01*
X123532131Y-149992869D01*
G37*
%TD.AperFunction*%
D19*
X130452859Y-155473357D02*
X130423000Y-155623472D01*
X130423000Y-155767066D01*
X130267065Y-155923001D01*
X129232937Y-155923001D01*
X128831153Y-155521217D01*
X128931952Y-155588569D01*
X129073357Y-155647141D01*
X129223472Y-155677000D01*
X129376528Y-155677000D01*
X129526643Y-155647141D01*
X129668048Y-155588569D01*
X129795309Y-155503536D01*
X129896845Y-155402000D01*
X130482416Y-155402000D01*
X130452859Y-155473357D01*
%TA.AperFunction,Conductor*%
D20*
G36*
X130452859Y-155473357D02*
G01*
X130423000Y-155623472D01*
X130423000Y-155767066D01*
X130267065Y-155923001D01*
X129232937Y-155923001D01*
X128831153Y-155521217D01*
X128931952Y-155588569D01*
X129073357Y-155647141D01*
X129223472Y-155677000D01*
X129376528Y-155677000D01*
X129526643Y-155647141D01*
X129668048Y-155588569D01*
X129795309Y-155503536D01*
X129896845Y-155402000D01*
X130482416Y-155402000D01*
X130452859Y-155473357D01*
G37*
%TD.AperFunction*%
D19*
X131107131Y-148942869D02*
X131164537Y-148989981D01*
X131230030Y-149024988D01*
X131301095Y-149046545D01*
X131375000Y-149053824D01*
X132873000Y-149053824D01*
X132873000Y-152917065D01*
X131884983Y-153905082D01*
X131920282Y-153852254D01*
X132024083Y-153601656D01*
X132077000Y-153335623D01*
X132077000Y-153064377D01*
X132024083Y-152798344D01*
X131920282Y-152547746D01*
X131769586Y-152322213D01*
X131577787Y-152130414D01*
X131352254Y-151979718D01*
X131101656Y-151875917D01*
X130835623Y-151823000D01*
X130564377Y-151823000D01*
X130298344Y-151875917D01*
X130047746Y-151979718D01*
X129822213Y-152130414D01*
X129630414Y-152322213D01*
X129479718Y-152547746D01*
X129375917Y-152798344D01*
X129323000Y-153064377D01*
X129323000Y-153335623D01*
X129375917Y-153601656D01*
X129479718Y-153852254D01*
X129630414Y-154077787D01*
X129822213Y-154269586D01*
X130014399Y-154398000D01*
X129896845Y-154398000D01*
X129795309Y-154296464D01*
X129668048Y-154211431D01*
X129526643Y-154152859D01*
X129376528Y-154123000D01*
X129223472Y-154123000D01*
X129073357Y-154152859D01*
X128931952Y-154211431D01*
X128804691Y-154296464D01*
X128696464Y-154404691D01*
X128611431Y-154531952D01*
X128552859Y-154673357D01*
X128523000Y-154823472D01*
X128523000Y-154976528D01*
X128552859Y-155126643D01*
X128611431Y-155268048D01*
X128678783Y-155368847D01*
X126252000Y-152942066D01*
X126252000Y-150098702D01*
X126273905Y-150096545D01*
X126344970Y-150074988D01*
X126410463Y-150039981D01*
X126467869Y-149992869D01*
X126500000Y-149953717D01*
X126532131Y-149992869D01*
X126589537Y-150039981D01*
X126655030Y-150074988D01*
X126726095Y-150096545D01*
X126800000Y-150103824D01*
X127700000Y-150103824D01*
X127773905Y-150096545D01*
X127844970Y-150074988D01*
X127910463Y-150039981D01*
X127967869Y-149992869D01*
X128000000Y-149953717D01*
X128032131Y-149992869D01*
X128089537Y-150039981D01*
X128155030Y-150074988D01*
X128226095Y-150096545D01*
X128300000Y-150103824D01*
X129200000Y-150103824D01*
X129273905Y-150096545D01*
X129344970Y-150074988D01*
X129410463Y-150039981D01*
X129467869Y-149992869D01*
X129500000Y-149953717D01*
X129532131Y-149992869D01*
X129589537Y-150039981D01*
X129655030Y-150074988D01*
X129726095Y-150096545D01*
X129800000Y-150103824D01*
X130700000Y-150103824D01*
X130773905Y-150096545D01*
X130844970Y-150074988D01*
X130910463Y-150039981D01*
X130967869Y-149992869D01*
X131014981Y-149935463D01*
X131049988Y-149869970D01*
X131071545Y-149798905D01*
X131078824Y-149725000D01*
X131078824Y-148908377D01*
X131107131Y-148942869D01*
%TA.AperFunction,Conductor*%
D20*
G36*
X131107131Y-148942869D02*
G01*
X131164537Y-148989981D01*
X131230030Y-149024988D01*
X131301095Y-149046545D01*
X131375000Y-149053824D01*
X132873000Y-149053824D01*
X132873000Y-152917065D01*
X131884983Y-153905082D01*
X131920282Y-153852254D01*
X132024083Y-153601656D01*
X132077000Y-153335623D01*
X132077000Y-153064377D01*
X132024083Y-152798344D01*
X131920282Y-152547746D01*
X131769586Y-152322213D01*
X131577787Y-152130414D01*
X131352254Y-151979718D01*
X131101656Y-151875917D01*
X130835623Y-151823000D01*
X130564377Y-151823000D01*
X130298344Y-151875917D01*
X130047746Y-151979718D01*
X129822213Y-152130414D01*
X129630414Y-152322213D01*
X129479718Y-152547746D01*
X129375917Y-152798344D01*
X129323000Y-153064377D01*
X129323000Y-153335623D01*
X129375917Y-153601656D01*
X129479718Y-153852254D01*
X129630414Y-154077787D01*
X129822213Y-154269586D01*
X130014399Y-154398000D01*
X129896845Y-154398000D01*
X129795309Y-154296464D01*
X129668048Y-154211431D01*
X129526643Y-154152859D01*
X129376528Y-154123000D01*
X129223472Y-154123000D01*
X129073357Y-154152859D01*
X128931952Y-154211431D01*
X128804691Y-154296464D01*
X128696464Y-154404691D01*
X128611431Y-154531952D01*
X128552859Y-154673357D01*
X128523000Y-154823472D01*
X128523000Y-154976528D01*
X128552859Y-155126643D01*
X128611431Y-155268048D01*
X128678783Y-155368847D01*
X126252000Y-152942066D01*
X126252000Y-150098702D01*
X126273905Y-150096545D01*
X126344970Y-150074988D01*
X126410463Y-150039981D01*
X126467869Y-149992869D01*
X126500000Y-149953717D01*
X126532131Y-149992869D01*
X126589537Y-150039981D01*
X126655030Y-150074988D01*
X126726095Y-150096545D01*
X126800000Y-150103824D01*
X127700000Y-150103824D01*
X127773905Y-150096545D01*
X127844970Y-150074988D01*
X127910463Y-150039981D01*
X127967869Y-149992869D01*
X128000000Y-149953717D01*
X128032131Y-149992869D01*
X128089537Y-150039981D01*
X128155030Y-150074988D01*
X128226095Y-150096545D01*
X128300000Y-150103824D01*
X129200000Y-150103824D01*
X129273905Y-150096545D01*
X129344970Y-150074988D01*
X129410463Y-150039981D01*
X129467869Y-149992869D01*
X129500000Y-149953717D01*
X129532131Y-149992869D01*
X129589537Y-150039981D01*
X129655030Y-150074988D01*
X129726095Y-150096545D01*
X129800000Y-150103824D01*
X130700000Y-150103824D01*
X130773905Y-150096545D01*
X130844970Y-150074988D01*
X130910463Y-150039981D01*
X130967869Y-149992869D01*
X131014981Y-149935463D01*
X131049988Y-149869970D01*
X131071545Y-149798905D01*
X131078824Y-149725000D01*
X131078824Y-148908377D01*
X131107131Y-148942869D01*
G37*
%TD.AperFunction*%
D19*
X131107131Y-138442869D02*
X131146283Y-138475000D01*
X131107131Y-138507131D01*
X131060019Y-138564537D01*
X131025012Y-138630030D01*
X131003455Y-138701095D01*
X130996176Y-138775000D01*
X130996176Y-139675000D01*
X131003455Y-139748905D01*
X131025012Y-139819970D01*
X131060019Y-139885463D01*
X131107131Y-139942869D01*
X131146283Y-139975000D01*
X131107131Y-140007131D01*
X131060019Y-140064537D01*
X131025012Y-140130030D01*
X131003455Y-140201095D01*
X130996176Y-140275000D01*
X130996176Y-141175000D01*
X131003455Y-141248905D01*
X131025012Y-141319970D01*
X131060019Y-141385463D01*
X131107131Y-141442869D01*
X131146283Y-141475000D01*
X131107131Y-141507131D01*
X131060019Y-141564537D01*
X131025012Y-141630030D01*
X131003455Y-141701095D01*
X130996176Y-141775000D01*
X130996176Y-142675000D01*
X131003455Y-142748905D01*
X131025012Y-142819970D01*
X131060019Y-142885463D01*
X131107131Y-142942869D01*
X131146283Y-142975000D01*
X131107131Y-143007131D01*
X131060019Y-143064537D01*
X131025012Y-143130030D01*
X131003455Y-143201095D01*
X130996176Y-143275000D01*
X130996176Y-144175000D01*
X131003455Y-144248905D01*
X131025012Y-144319970D01*
X131060019Y-144385463D01*
X131107131Y-144442869D01*
X131146283Y-144475000D01*
X131107131Y-144507131D01*
X131060019Y-144564537D01*
X131025012Y-144630030D01*
X131003455Y-144701095D01*
X130996176Y-144775000D01*
X130996176Y-145675000D01*
X131003455Y-145748905D01*
X131025012Y-145819970D01*
X131060019Y-145885463D01*
X131107131Y-145942869D01*
X131146283Y-145975000D01*
X131107131Y-146007131D01*
X131060019Y-146064537D01*
X131025012Y-146130030D01*
X131003455Y-146201095D01*
X130996176Y-146275000D01*
X130996176Y-147175000D01*
X131003455Y-147248905D01*
X131025012Y-147319970D01*
X131060019Y-147385463D01*
X131107131Y-147442869D01*
X131146283Y-147475000D01*
X131107131Y-147507131D01*
X131060019Y-147564537D01*
X131025012Y-147630030D01*
X131003455Y-147701095D01*
X130996176Y-147775000D01*
X130996176Y-147991623D01*
X130967869Y-147957131D01*
X130910463Y-147910019D01*
X130844970Y-147875012D01*
X130773905Y-147853455D01*
X130700000Y-147846176D01*
X129800000Y-147846176D01*
X129726095Y-147853455D01*
X129655030Y-147875012D01*
X129589537Y-147910019D01*
X129532131Y-147957131D01*
X129500000Y-147996283D01*
X129467869Y-147957131D01*
X129410463Y-147910019D01*
X129344970Y-147875012D01*
X129273905Y-147853455D01*
X129200000Y-147846176D01*
X128300000Y-147846176D01*
X128226095Y-147853455D01*
X128155030Y-147875012D01*
X128089537Y-147910019D01*
X128032131Y-147957131D01*
X128000000Y-147996283D01*
X127967869Y-147957131D01*
X127910463Y-147910019D01*
X127844970Y-147875012D01*
X127773905Y-147853455D01*
X127700000Y-147846176D01*
X126800000Y-147846176D01*
X126726095Y-147853455D01*
X126655030Y-147875012D01*
X126589537Y-147910019D01*
X126532131Y-147957131D01*
X126500000Y-147996283D01*
X126467869Y-147957131D01*
X126410463Y-147910019D01*
X126344970Y-147875012D01*
X126273905Y-147853455D01*
X126200000Y-147846176D01*
X125300000Y-147846176D01*
X125226095Y-147853455D01*
X125155030Y-147875012D01*
X125089537Y-147910019D01*
X125032131Y-147957131D01*
X125000000Y-147996283D01*
X124967869Y-147957131D01*
X124910463Y-147910019D01*
X124844970Y-147875012D01*
X124773905Y-147853455D01*
X124700000Y-147846176D01*
X123800000Y-147846176D01*
X123726095Y-147853455D01*
X123655030Y-147875012D01*
X123589537Y-147910019D01*
X123532131Y-147957131D01*
X123500000Y-147996283D01*
X123467869Y-147957131D01*
X123410463Y-147910019D01*
X123344970Y-147875012D01*
X123273905Y-147853455D01*
X123200000Y-147846176D01*
X122300000Y-147846176D01*
X122226095Y-147853455D01*
X122155030Y-147875012D01*
X122089537Y-147910019D01*
X122032131Y-147957131D01*
X122000000Y-147996283D01*
X121967869Y-147957131D01*
X121910463Y-147910019D01*
X121844970Y-147875012D01*
X121773905Y-147853455D01*
X121700000Y-147846176D01*
X120800000Y-147846176D01*
X120726095Y-147853455D01*
X120655030Y-147875012D01*
X120589537Y-147910019D01*
X120532131Y-147957131D01*
X120500000Y-147996283D01*
X120467869Y-147957131D01*
X120410463Y-147910019D01*
X120344970Y-147875012D01*
X120273905Y-147853455D01*
X120200000Y-147846176D01*
X119300000Y-147846176D01*
X119226095Y-147853455D01*
X119216031Y-147856508D01*
X119260193Y-147827000D01*
X121369206Y-147827000D01*
X121400000Y-147830033D01*
X121430794Y-147827000D01*
X121522913Y-147817927D01*
X121641103Y-147782075D01*
X121750028Y-147723853D01*
X121845501Y-147645501D01*
X121865138Y-147621573D01*
X131078603Y-138408108D01*
X131107131Y-138442869D01*
%TA.AperFunction,Conductor*%
D20*
G36*
X131107131Y-138442869D02*
G01*
X131146283Y-138475000D01*
X131107131Y-138507131D01*
X131060019Y-138564537D01*
X131025012Y-138630030D01*
X131003455Y-138701095D01*
X130996176Y-138775000D01*
X130996176Y-139675000D01*
X131003455Y-139748905D01*
X131025012Y-139819970D01*
X131060019Y-139885463D01*
X131107131Y-139942869D01*
X131146283Y-139975000D01*
X131107131Y-140007131D01*
X131060019Y-140064537D01*
X131025012Y-140130030D01*
X131003455Y-140201095D01*
X130996176Y-140275000D01*
X130996176Y-141175000D01*
X131003455Y-141248905D01*
X131025012Y-141319970D01*
X131060019Y-141385463D01*
X131107131Y-141442869D01*
X131146283Y-141475000D01*
X131107131Y-141507131D01*
X131060019Y-141564537D01*
X131025012Y-141630030D01*
X131003455Y-141701095D01*
X130996176Y-141775000D01*
X130996176Y-142675000D01*
X131003455Y-142748905D01*
X131025012Y-142819970D01*
X131060019Y-142885463D01*
X131107131Y-142942869D01*
X131146283Y-142975000D01*
X131107131Y-143007131D01*
X131060019Y-143064537D01*
X131025012Y-143130030D01*
X131003455Y-143201095D01*
X130996176Y-143275000D01*
X130996176Y-144175000D01*
X131003455Y-144248905D01*
X131025012Y-144319970D01*
X131060019Y-144385463D01*
X131107131Y-144442869D01*
X131146283Y-144475000D01*
X131107131Y-144507131D01*
X131060019Y-144564537D01*
X131025012Y-144630030D01*
X131003455Y-144701095D01*
X130996176Y-144775000D01*
X130996176Y-145675000D01*
X131003455Y-145748905D01*
X131025012Y-145819970D01*
X131060019Y-145885463D01*
X131107131Y-145942869D01*
X131146283Y-145975000D01*
X131107131Y-146007131D01*
X131060019Y-146064537D01*
X131025012Y-146130030D01*
X131003455Y-146201095D01*
X130996176Y-146275000D01*
X130996176Y-147175000D01*
X131003455Y-147248905D01*
X131025012Y-147319970D01*
X131060019Y-147385463D01*
X131107131Y-147442869D01*
X131146283Y-147475000D01*
X131107131Y-147507131D01*
X131060019Y-147564537D01*
X131025012Y-147630030D01*
X131003455Y-147701095D01*
X130996176Y-147775000D01*
X130996176Y-147991623D01*
X130967869Y-147957131D01*
X130910463Y-147910019D01*
X130844970Y-147875012D01*
X130773905Y-147853455D01*
X130700000Y-147846176D01*
X129800000Y-147846176D01*
X129726095Y-147853455D01*
X129655030Y-147875012D01*
X129589537Y-147910019D01*
X129532131Y-147957131D01*
X129500000Y-147996283D01*
X129467869Y-147957131D01*
X129410463Y-147910019D01*
X129344970Y-147875012D01*
X129273905Y-147853455D01*
X129200000Y-147846176D01*
X128300000Y-147846176D01*
X128226095Y-147853455D01*
X128155030Y-147875012D01*
X128089537Y-147910019D01*
X128032131Y-147957131D01*
X128000000Y-147996283D01*
X127967869Y-147957131D01*
X127910463Y-147910019D01*
X127844970Y-147875012D01*
X127773905Y-147853455D01*
X127700000Y-147846176D01*
X126800000Y-147846176D01*
X126726095Y-147853455D01*
X126655030Y-147875012D01*
X126589537Y-147910019D01*
X126532131Y-147957131D01*
X126500000Y-147996283D01*
X126467869Y-147957131D01*
X126410463Y-147910019D01*
X126344970Y-147875012D01*
X126273905Y-147853455D01*
X126200000Y-147846176D01*
X125300000Y-147846176D01*
X125226095Y-147853455D01*
X125155030Y-147875012D01*
X125089537Y-147910019D01*
X125032131Y-147957131D01*
X125000000Y-147996283D01*
X124967869Y-147957131D01*
X124910463Y-147910019D01*
X124844970Y-147875012D01*
X124773905Y-147853455D01*
X124700000Y-147846176D01*
X123800000Y-147846176D01*
X123726095Y-147853455D01*
X123655030Y-147875012D01*
X123589537Y-147910019D01*
X123532131Y-147957131D01*
X123500000Y-147996283D01*
X123467869Y-147957131D01*
X123410463Y-147910019D01*
X123344970Y-147875012D01*
X123273905Y-147853455D01*
X123200000Y-147846176D01*
X122300000Y-147846176D01*
X122226095Y-147853455D01*
X122155030Y-147875012D01*
X122089537Y-147910019D01*
X122032131Y-147957131D01*
X122000000Y-147996283D01*
X121967869Y-147957131D01*
X121910463Y-147910019D01*
X121844970Y-147875012D01*
X121773905Y-147853455D01*
X121700000Y-147846176D01*
X120800000Y-147846176D01*
X120726095Y-147853455D01*
X120655030Y-147875012D01*
X120589537Y-147910019D01*
X120532131Y-147957131D01*
X120500000Y-147996283D01*
X120467869Y-147957131D01*
X120410463Y-147910019D01*
X120344970Y-147875012D01*
X120273905Y-147853455D01*
X120200000Y-147846176D01*
X119300000Y-147846176D01*
X119226095Y-147853455D01*
X119216031Y-147856508D01*
X119260193Y-147827000D01*
X121369206Y-147827000D01*
X121400000Y-147830033D01*
X121430794Y-147827000D01*
X121522913Y-147817927D01*
X121641103Y-147782075D01*
X121750028Y-147723853D01*
X121845501Y-147645501D01*
X121865138Y-147621573D01*
X131078603Y-138408108D01*
X131107131Y-138442869D01*
G37*
%TD.AperFunction*%
D19*
X121140289Y-146573000D02*
X119260193Y-146573000D01*
X119168048Y-146511431D01*
X119026643Y-146452859D01*
X118876528Y-146423000D01*
X118723472Y-146423000D01*
X118573357Y-146452859D01*
X118431952Y-146511431D01*
X118304691Y-146596464D01*
X118196464Y-146704691D01*
X118111431Y-146831952D01*
X118052859Y-146973357D01*
X118023000Y-147123472D01*
X118023000Y-147276528D01*
X118052859Y-147426643D01*
X118111431Y-147568048D01*
X118196464Y-147695309D01*
X118304691Y-147803536D01*
X118368506Y-147846176D01*
X117800000Y-147846176D01*
X117726095Y-147853455D01*
X117655030Y-147875012D01*
X117589537Y-147910019D01*
X117532131Y-147957131D01*
X117502587Y-147993130D01*
X117470711Y-147954289D01*
X117412696Y-147906678D01*
X117346508Y-147871299D01*
X117274689Y-147849513D01*
X117236646Y-147845766D01*
X117288569Y-147768058D01*
X117347141Y-147626653D01*
X117368761Y-147517960D01*
X126059722Y-138827000D01*
X128769206Y-138827000D01*
X128800000Y-138830033D01*
X128830794Y-138827000D01*
X128892352Y-138820937D01*
X121140289Y-146573000D01*
%TA.AperFunction,Conductor*%
D20*
G36*
X121140289Y-146573000D02*
G01*
X119260193Y-146573000D01*
X119168048Y-146511431D01*
X119026643Y-146452859D01*
X118876528Y-146423000D01*
X118723472Y-146423000D01*
X118573357Y-146452859D01*
X118431952Y-146511431D01*
X118304691Y-146596464D01*
X118196464Y-146704691D01*
X118111431Y-146831952D01*
X118052859Y-146973357D01*
X118023000Y-147123472D01*
X118023000Y-147276528D01*
X118052859Y-147426643D01*
X118111431Y-147568048D01*
X118196464Y-147695309D01*
X118304691Y-147803536D01*
X118368506Y-147846176D01*
X117800000Y-147846176D01*
X117726095Y-147853455D01*
X117655030Y-147875012D01*
X117589537Y-147910019D01*
X117532131Y-147957131D01*
X117502587Y-147993130D01*
X117470711Y-147954289D01*
X117412696Y-147906678D01*
X117346508Y-147871299D01*
X117274689Y-147849513D01*
X117236646Y-147845766D01*
X117288569Y-147768058D01*
X117347141Y-147626653D01*
X117368761Y-147517960D01*
X126059722Y-138827000D01*
X128769206Y-138827000D01*
X128800000Y-138830033D01*
X128830794Y-138827000D01*
X128892352Y-138820937D01*
X121140289Y-146573000D01*
G37*
%TD.AperFunction*%
D19*
X128381952Y-137538569D02*
X128465076Y-137573000D01*
X125830804Y-137573000D01*
X125800010Y-137569967D01*
X125769216Y-137573000D01*
X125677097Y-137582073D01*
X125558907Y-137617925D01*
X125449982Y-137676147D01*
X125354509Y-137754499D01*
X125334879Y-137778419D01*
X116482050Y-146631249D01*
X116373357Y-146652869D01*
X116231952Y-146711441D01*
X116104691Y-146796474D01*
X116003824Y-146897341D01*
X116003824Y-146375000D01*
X115996545Y-146301095D01*
X115974988Y-146230030D01*
X115939981Y-146164537D01*
X115892869Y-146107131D01*
X115853717Y-146075000D01*
X115892869Y-146042869D01*
X115939981Y-145985463D01*
X115974988Y-145919970D01*
X115996545Y-145848905D01*
X116003824Y-145775000D01*
X116003824Y-144875000D01*
X115996545Y-144801095D01*
X115974988Y-144730030D01*
X115939981Y-144664537D01*
X115892869Y-144607131D01*
X115853717Y-144575000D01*
X115892869Y-144542869D01*
X115939981Y-144485463D01*
X115974988Y-144419970D01*
X115996545Y-144348905D01*
X116003824Y-144275000D01*
X116003824Y-143949683D01*
X116011431Y-143968048D01*
X116096464Y-144095309D01*
X116204691Y-144203536D01*
X116331952Y-144288569D01*
X116473357Y-144347141D01*
X116623472Y-144377000D01*
X116776528Y-144377000D01*
X116926643Y-144347141D01*
X117068048Y-144288569D01*
X117195309Y-144203536D01*
X117303536Y-144095309D01*
X117388569Y-143968048D01*
X117447141Y-143826643D01*
X117468761Y-143717950D01*
X123659712Y-137527000D01*
X128364638Y-137527000D01*
X128381952Y-137538569D01*
%TA.AperFunction,Conductor*%
D20*
G36*
X128381952Y-137538569D02*
G01*
X128465076Y-137573000D01*
X125830804Y-137573000D01*
X125800010Y-137569967D01*
X125769216Y-137573000D01*
X125677097Y-137582073D01*
X125558907Y-137617925D01*
X125449982Y-137676147D01*
X125354509Y-137754499D01*
X125334879Y-137778419D01*
X116482050Y-146631249D01*
X116373357Y-146652869D01*
X116231952Y-146711441D01*
X116104691Y-146796474D01*
X116003824Y-146897341D01*
X116003824Y-146375000D01*
X115996545Y-146301095D01*
X115974988Y-146230030D01*
X115939981Y-146164537D01*
X115892869Y-146107131D01*
X115853717Y-146075000D01*
X115892869Y-146042869D01*
X115939981Y-145985463D01*
X115974988Y-145919970D01*
X115996545Y-145848905D01*
X116003824Y-145775000D01*
X116003824Y-144875000D01*
X115996545Y-144801095D01*
X115974988Y-144730030D01*
X115939981Y-144664537D01*
X115892869Y-144607131D01*
X115853717Y-144575000D01*
X115892869Y-144542869D01*
X115939981Y-144485463D01*
X115974988Y-144419970D01*
X115996545Y-144348905D01*
X116003824Y-144275000D01*
X116003824Y-143949683D01*
X116011431Y-143968048D01*
X116096464Y-144095309D01*
X116204691Y-144203536D01*
X116331952Y-144288569D01*
X116473357Y-144347141D01*
X116623472Y-144377000D01*
X116776528Y-144377000D01*
X116926643Y-144347141D01*
X117068048Y-144288569D01*
X117195309Y-144203536D01*
X117303536Y-144095309D01*
X117388569Y-143968048D01*
X117447141Y-143826643D01*
X117468761Y-143717950D01*
X123659712Y-137527000D01*
X128364638Y-137527000D01*
X128381952Y-137538569D01*
G37*
%TD.AperFunction*%
D19*
X131228492Y-124921299D02*
X131162304Y-124956678D01*
X131104289Y-125004289D01*
X131056678Y-125062304D01*
X131021299Y-125128492D01*
X130999513Y-125200311D01*
X130992157Y-125275000D01*
X130994000Y-125502750D01*
X131089250Y-125598000D01*
X131998000Y-125598000D01*
X131998000Y-125578000D01*
X132252000Y-125578000D01*
X132252000Y-125598000D01*
X132272000Y-125598000D01*
X132272000Y-125852000D01*
X132252000Y-125852000D01*
X132252000Y-125872000D01*
X131998000Y-125872000D01*
X131998000Y-125852000D01*
X131089250Y-125852000D01*
X131020048Y-125921203D01*
X130995309Y-125896464D01*
X130868048Y-125811431D01*
X130726643Y-125752859D01*
X130576528Y-125723000D01*
X130423472Y-125723000D01*
X130273357Y-125752859D01*
X130131952Y-125811431D01*
X130039807Y-125873000D01*
X129630793Y-125873000D01*
X129599999Y-125869967D01*
X129494784Y-125880330D01*
X129366142Y-125880330D01*
X129216027Y-125910189D01*
X129074622Y-125968761D01*
X128947361Y-126053794D01*
X128839134Y-126162021D01*
X128754101Y-126289282D01*
X128695529Y-126430687D01*
X128665670Y-126580802D01*
X128665670Y-126733858D01*
X128695529Y-126883973D01*
X128754101Y-127025378D01*
X128839134Y-127152639D01*
X128947361Y-127260866D01*
X129074622Y-127345899D01*
X129216027Y-127404471D01*
X129366142Y-127434330D01*
X129519198Y-127434330D01*
X129669313Y-127404471D01*
X129810718Y-127345899D01*
X129937979Y-127260866D01*
X130046206Y-127152639D01*
X130056075Y-127137869D01*
X130131952Y-127188569D01*
X130273357Y-127247141D01*
X130383095Y-127268969D01*
X130449972Y-127323853D01*
X130558897Y-127382075D01*
X130670870Y-127416041D01*
X130677087Y-127417927D01*
X130799999Y-127430033D01*
X130830793Y-127427000D01*
X130940289Y-127427000D01*
X130996176Y-127482888D01*
X130996176Y-127675000D01*
X131003455Y-127748905D01*
X131025012Y-127819970D01*
X131060019Y-127885463D01*
X131107131Y-127942869D01*
X131146283Y-127975000D01*
X131107131Y-128007131D01*
X131060019Y-128064537D01*
X131025012Y-128130030D01*
X131003455Y-128201095D01*
X130996176Y-128275000D01*
X130996176Y-128797331D01*
X130895309Y-128696464D01*
X130768048Y-128611431D01*
X130626643Y-128552859D01*
X130476528Y-128523000D01*
X130323472Y-128523000D01*
X130173357Y-128552859D01*
X130031952Y-128611431D01*
X129904691Y-128696464D01*
X129796464Y-128804691D01*
X129711431Y-128931952D01*
X129652859Y-129073357D01*
X129623000Y-129223472D01*
X129623000Y-129376528D01*
X129652859Y-129526643D01*
X129711431Y-129668048D01*
X129796464Y-129795309D01*
X129904691Y-129903536D01*
X130031952Y-129988569D01*
X130173357Y-130047141D01*
X130323472Y-130077000D01*
X130467066Y-130077000D01*
X130952603Y-130562538D01*
X130968316Y-130581684D01*
X130987462Y-130597397D01*
X130987465Y-130597400D01*
X130996176Y-130604549D01*
X130996176Y-130675000D01*
X131003455Y-130748905D01*
X131025012Y-130819970D01*
X131060019Y-130885463D01*
X131107131Y-130942869D01*
X131146283Y-130975000D01*
X131107131Y-131007131D01*
X131060019Y-131064537D01*
X131025012Y-131130030D01*
X131003455Y-131201095D01*
X131001298Y-131223000D01*
X130299643Y-131223000D01*
X130275000Y-131220573D01*
X130250357Y-131223000D01*
X130250347Y-131223000D01*
X130176591Y-131230264D01*
X130081964Y-131258969D01*
X129994755Y-131305583D01*
X129994753Y-131305584D01*
X129994754Y-131305584D01*
X129937464Y-131352600D01*
X129937456Y-131352608D01*
X129918316Y-131368316D01*
X129902607Y-131387457D01*
X129767065Y-131523000D01*
X129623472Y-131523000D01*
X129473357Y-131552859D01*
X129331952Y-131611431D01*
X129204691Y-131696464D01*
X129096464Y-131804691D01*
X129011431Y-131931952D01*
X128958524Y-132059679D01*
X128895309Y-131996464D01*
X128768048Y-131911431D01*
X128626643Y-131852859D01*
X128561644Y-131839930D01*
X126800140Y-130078427D01*
X126780503Y-130054499D01*
X126685030Y-129976147D01*
X126576105Y-129917925D01*
X126457915Y-129882073D01*
X126365796Y-129873000D01*
X126335002Y-129869967D01*
X126304208Y-129873000D01*
X122760193Y-129873000D01*
X122668048Y-129811431D01*
X122526643Y-129752859D01*
X122376528Y-129723000D01*
X122223472Y-129723000D01*
X122073357Y-129752859D01*
X121931952Y-129811431D01*
X121804691Y-129896464D01*
X121696464Y-130004691D01*
X121611431Y-130131952D01*
X121552859Y-130273357D01*
X121523000Y-130423472D01*
X121523000Y-130576528D01*
X121552859Y-130726643D01*
X121611431Y-130868048D01*
X121696464Y-130995309D01*
X121804691Y-131103536D01*
X121931952Y-131188569D01*
X122073357Y-131247141D01*
X122223472Y-131277000D01*
X122376528Y-131277000D01*
X122526643Y-131247141D01*
X122668048Y-131188569D01*
X122760193Y-131127000D01*
X126075291Y-131127000D01*
X126280911Y-131332620D01*
X124912250Y-131334000D01*
X124817000Y-131429250D01*
X124817000Y-133638000D01*
X127025750Y-133638000D01*
X127121000Y-133542750D01*
X127122380Y-132174090D01*
X127623000Y-132674710D01*
X127623000Y-132676528D01*
X127652859Y-132826643D01*
X127711431Y-132968048D01*
X127796464Y-133095309D01*
X127904691Y-133203536D01*
X128031952Y-133288569D01*
X128173357Y-133347141D01*
X128323472Y-133377000D01*
X128325290Y-133377000D01*
X128594868Y-133646578D01*
X128614501Y-133670501D01*
X128709974Y-133748853D01*
X128818899Y-133807075D01*
X128937089Y-133842927D01*
X129060002Y-133855033D01*
X129090796Y-133852000D01*
X131042133Y-133852000D01*
X131060019Y-133885463D01*
X131107131Y-133942869D01*
X131146283Y-133975000D01*
X131107131Y-134007131D01*
X131060019Y-134064537D01*
X131042133Y-134098000D01*
X130385794Y-134098000D01*
X130355000Y-134094967D01*
X130324206Y-134098000D01*
X130232087Y-134107073D01*
X130113897Y-134142925D01*
X130004972Y-134201147D01*
X129909499Y-134279499D01*
X129889866Y-134303422D01*
X128328422Y-135864867D01*
X128304500Y-135884499D01*
X128226148Y-135979972D01*
X128167925Y-136088897D01*
X128132073Y-136207087D01*
X128130309Y-136225000D01*
X128125581Y-136273000D01*
X123430794Y-136273000D01*
X123400000Y-136269967D01*
X123369206Y-136273000D01*
X123277087Y-136282073D01*
X123158897Y-136317925D01*
X123049972Y-136376147D01*
X122954499Y-136454499D01*
X122934869Y-136478419D01*
X116582050Y-142831239D01*
X116473357Y-142852859D01*
X116331952Y-142911431D01*
X116204691Y-142996464D01*
X116096464Y-143104691D01*
X116011431Y-143231952D01*
X115990731Y-143281927D01*
X115974988Y-143230030D01*
X115939981Y-143164537D01*
X115892869Y-143107131D01*
X115853717Y-143075000D01*
X115892869Y-143042869D01*
X115939981Y-142985463D01*
X115974988Y-142919970D01*
X115996545Y-142848905D01*
X116003824Y-142775000D01*
X116003824Y-141875000D01*
X115996545Y-141801095D01*
X115974988Y-141730030D01*
X115939981Y-141664537D01*
X115892869Y-141607131D01*
X115853717Y-141575000D01*
X115892869Y-141542869D01*
X115939981Y-141485463D01*
X115974988Y-141419970D01*
X115996545Y-141348905D01*
X116003824Y-141275000D01*
X116003824Y-140375000D01*
X115996545Y-140301095D01*
X115974988Y-140230030D01*
X115939981Y-140164537D01*
X115892869Y-140107131D01*
X115853717Y-140075000D01*
X115892869Y-140042869D01*
X115939981Y-139985463D01*
X115974988Y-139919970D01*
X115996545Y-139848905D01*
X116000219Y-139811603D01*
X116068036Y-139791031D01*
X116155245Y-139744417D01*
X116231684Y-139681684D01*
X116247401Y-139662533D01*
X120037562Y-135872374D01*
X120056703Y-135856665D01*
X120072411Y-135837525D01*
X120072419Y-135837517D01*
X120090898Y-135815000D01*
X122257157Y-135815000D01*
X122264513Y-135889689D01*
X122286299Y-135961508D01*
X122321678Y-136027696D01*
X122369289Y-136085711D01*
X122427304Y-136133322D01*
X122493492Y-136168701D01*
X122565311Y-136190487D01*
X122640000Y-136197843D01*
X124467750Y-136196000D01*
X124563000Y-136100750D01*
X124563000Y-133892000D01*
X124817000Y-133892000D01*
X124817000Y-136100750D01*
X124912250Y-136196000D01*
X126740000Y-136197843D01*
X126814689Y-136190487D01*
X126886508Y-136168701D01*
X126952696Y-136133322D01*
X127010711Y-136085711D01*
X127058322Y-136027696D01*
X127093701Y-135961508D01*
X127115487Y-135889689D01*
X127122843Y-135815000D01*
X127121000Y-133987250D01*
X127025750Y-133892000D01*
X124817000Y-133892000D01*
X124563000Y-133892000D01*
X122354250Y-133892000D01*
X122259000Y-133987250D01*
X122257157Y-135815000D01*
X120090898Y-135815000D01*
X120119436Y-135780227D01*
X120166049Y-135693018D01*
X120166050Y-135693017D01*
X120194755Y-135598390D01*
X120202019Y-135524634D01*
X120202019Y-135524624D01*
X120204446Y-135499981D01*
X120202019Y-135475338D01*
X120202019Y-131715000D01*
X122257157Y-131715000D01*
X122259000Y-133542750D01*
X122354250Y-133638000D01*
X124563000Y-133638000D01*
X124563000Y-131429250D01*
X124467750Y-131334000D01*
X122640000Y-131332157D01*
X122565311Y-131339513D01*
X122493492Y-131361299D01*
X122427304Y-131396678D01*
X122369289Y-131444289D01*
X122321678Y-131502304D01*
X122286299Y-131568492D01*
X122264513Y-131640311D01*
X122257157Y-131715000D01*
X120202019Y-131715000D01*
X120202019Y-129180735D01*
X120630746Y-128752010D01*
X121061757Y-128752010D01*
X121086400Y-128754437D01*
X121111043Y-128752010D01*
X121111053Y-128752010D01*
X121184809Y-128744746D01*
X121279436Y-128716041D01*
X121366645Y-128669427D01*
X121443084Y-128606694D01*
X121458801Y-128587543D01*
X122594336Y-127452010D01*
X126638150Y-127452010D01*
X126638150Y-127559295D01*
X126668009Y-127709410D01*
X126726581Y-127850815D01*
X126811614Y-127978076D01*
X126919841Y-128086303D01*
X127047102Y-128171336D01*
X127188507Y-128229908D01*
X127338622Y-128259767D01*
X127491678Y-128259767D01*
X127641793Y-128229908D01*
X127783198Y-128171336D01*
X127910459Y-128086303D01*
X128018686Y-127978076D01*
X128103719Y-127850815D01*
X128162291Y-127709410D01*
X128192150Y-127559295D01*
X128192150Y-127406239D01*
X128162291Y-127256124D01*
X128103719Y-127114719D01*
X128095871Y-127102974D01*
X128203536Y-126995309D01*
X128288569Y-126868048D01*
X128347141Y-126726643D01*
X128377000Y-126576528D01*
X128377000Y-126423472D01*
X128347141Y-126273357D01*
X128288569Y-126131952D01*
X128203536Y-126004691D01*
X128095309Y-125896464D01*
X127968048Y-125811431D01*
X127826643Y-125752859D01*
X127676528Y-125723000D01*
X127523472Y-125723000D01*
X127373357Y-125752859D01*
X127231952Y-125811431D01*
X127104691Y-125896464D01*
X127003155Y-125998000D01*
X122224645Y-125998000D01*
X122200000Y-125995573D01*
X122175354Y-125998000D01*
X122175347Y-125998000D01*
X122110432Y-126004393D01*
X122101590Y-126005264D01*
X122006963Y-126033969D01*
X121919754Y-126080583D01*
X121862464Y-126127600D01*
X121862456Y-126127608D01*
X121843316Y-126143316D01*
X121827607Y-126162457D01*
X121158683Y-126831382D01*
X121147141Y-126773357D01*
X121088569Y-126631952D01*
X121003536Y-126504691D01*
X120895309Y-126396464D01*
X120768048Y-126311431D01*
X120626643Y-126252859D01*
X120476528Y-126223000D01*
X120323472Y-126223000D01*
X120173357Y-126252859D01*
X120031952Y-126311431D01*
X119904691Y-126396464D01*
X119796464Y-126504691D01*
X119711431Y-126631952D01*
X119652859Y-126773357D01*
X119623000Y-126923472D01*
X119623000Y-127067065D01*
X118462467Y-128227599D01*
X118443316Y-128243316D01*
X118380583Y-128319755D01*
X118333969Y-128406965D01*
X118305264Y-128501592D01*
X118298000Y-128575348D01*
X118298000Y-128575357D01*
X118295573Y-128600000D01*
X118298000Y-128624643D01*
X118298001Y-134892063D01*
X117367066Y-135823000D01*
X115998702Y-135823000D01*
X115996545Y-135801095D01*
X115974988Y-135730030D01*
X115939981Y-135664537D01*
X115892869Y-135607131D01*
X115853717Y-135575000D01*
X115892869Y-135542869D01*
X115939981Y-135485463D01*
X115974988Y-135419970D01*
X115996545Y-135348905D01*
X116003824Y-135275000D01*
X116003824Y-134618339D01*
X116073357Y-134647141D01*
X116223472Y-134677000D01*
X116376528Y-134677000D01*
X116526643Y-134647141D01*
X116668048Y-134588569D01*
X116795309Y-134503536D01*
X116903536Y-134395309D01*
X116988569Y-134268048D01*
X117047141Y-134126643D01*
X117077000Y-133976528D01*
X117077000Y-133823472D01*
X117047141Y-133673357D01*
X116988569Y-133531952D01*
X116903536Y-133404691D01*
X116795309Y-133296464D01*
X116668048Y-133211431D01*
X116526643Y-133152859D01*
X116449759Y-133137566D01*
X116568048Y-133088569D01*
X116695309Y-133003536D01*
X116803536Y-132895309D01*
X116888569Y-132768048D01*
X116947141Y-132626643D01*
X116977000Y-132476528D01*
X116977000Y-132323472D01*
X116947141Y-132173357D01*
X116888569Y-132031952D01*
X116803536Y-131904691D01*
X116695309Y-131796464D01*
X116568048Y-131711431D01*
X116426643Y-131652859D01*
X116276528Y-131623000D01*
X116123472Y-131623000D01*
X116003824Y-131646799D01*
X116003824Y-131375000D01*
X115996545Y-131301095D01*
X115974988Y-131230030D01*
X115939981Y-131164537D01*
X115892869Y-131107131D01*
X115853717Y-131075000D01*
X115892869Y-131042869D01*
X115939981Y-130985463D01*
X115974988Y-130919970D01*
X115996545Y-130848905D01*
X116003824Y-130775000D01*
X116003824Y-129875000D01*
X115996545Y-129801095D01*
X115974988Y-129730030D01*
X115939981Y-129664537D01*
X115892869Y-129607131D01*
X115835463Y-129560019D01*
X115769970Y-129525012D01*
X115769930Y-129525000D01*
X115769970Y-129524988D01*
X115835463Y-129489981D01*
X115892869Y-129442869D01*
X115939981Y-129385463D01*
X115974988Y-129319970D01*
X115996545Y-129248905D01*
X116003824Y-129175000D01*
X116003824Y-128275000D01*
X115996545Y-128201095D01*
X115974988Y-128130030D01*
X115939981Y-128064537D01*
X115892869Y-128007131D01*
X115853717Y-127975000D01*
X115892869Y-127942869D01*
X115939981Y-127885463D01*
X115974988Y-127819970D01*
X115996545Y-127748905D01*
X116003824Y-127675000D01*
X116003824Y-127402000D01*
X116403155Y-127402000D01*
X116504691Y-127503536D01*
X116631952Y-127588569D01*
X116773357Y-127647141D01*
X116923472Y-127677000D01*
X117076528Y-127677000D01*
X117226643Y-127647141D01*
X117368048Y-127588569D01*
X117495309Y-127503536D01*
X117603536Y-127395309D01*
X117688569Y-127268048D01*
X117747141Y-127126643D01*
X117777000Y-126976528D01*
X117777000Y-126823472D01*
X117747141Y-126673357D01*
X117688569Y-126531952D01*
X117603536Y-126404691D01*
X117495309Y-126296464D01*
X117368048Y-126211431D01*
X117226643Y-126152859D01*
X117076528Y-126123000D01*
X116923472Y-126123000D01*
X116773357Y-126152859D01*
X116631952Y-126211431D01*
X116504691Y-126296464D01*
X116403155Y-126398000D01*
X115985832Y-126398000D01*
X116000487Y-126349689D01*
X116007843Y-126275000D01*
X116006000Y-126047250D01*
X115910750Y-125952000D01*
X115002000Y-125952000D01*
X115002000Y-125972000D01*
X114748000Y-125972000D01*
X114748000Y-125952000D01*
X114728000Y-125952000D01*
X114728000Y-125698000D01*
X114748000Y-125698000D01*
X114748000Y-125089250D01*
X115002000Y-125089250D01*
X115002000Y-125698000D01*
X115910750Y-125698000D01*
X116006000Y-125602750D01*
X116007843Y-125375000D01*
X116000487Y-125300311D01*
X115978701Y-125228492D01*
X115943322Y-125162304D01*
X115895711Y-125104289D01*
X115837696Y-125056678D01*
X115771508Y-125021299D01*
X115699689Y-124999513D01*
X115625000Y-124992157D01*
X115097250Y-124994000D01*
X115002000Y-125089250D01*
X114748000Y-125089250D01*
X114652750Y-124994000D01*
X114127000Y-124992164D01*
X114127000Y-124902000D01*
X131292112Y-124902000D01*
X131228492Y-124921299D01*
%TA.AperFunction,Conductor*%
D20*
G36*
X131228492Y-124921299D02*
G01*
X131162304Y-124956678D01*
X131104289Y-125004289D01*
X131056678Y-125062304D01*
X131021299Y-125128492D01*
X130999513Y-125200311D01*
X130992157Y-125275000D01*
X130994000Y-125502750D01*
X131089250Y-125598000D01*
X131998000Y-125598000D01*
X131998000Y-125578000D01*
X132252000Y-125578000D01*
X132252000Y-125598000D01*
X132272000Y-125598000D01*
X132272000Y-125852000D01*
X132252000Y-125852000D01*
X132252000Y-125872000D01*
X131998000Y-125872000D01*
X131998000Y-125852000D01*
X131089250Y-125852000D01*
X131020048Y-125921203D01*
X130995309Y-125896464D01*
X130868048Y-125811431D01*
X130726643Y-125752859D01*
X130576528Y-125723000D01*
X130423472Y-125723000D01*
X130273357Y-125752859D01*
X130131952Y-125811431D01*
X130039807Y-125873000D01*
X129630793Y-125873000D01*
X129599999Y-125869967D01*
X129494784Y-125880330D01*
X129366142Y-125880330D01*
X129216027Y-125910189D01*
X129074622Y-125968761D01*
X128947361Y-126053794D01*
X128839134Y-126162021D01*
X128754101Y-126289282D01*
X128695529Y-126430687D01*
X128665670Y-126580802D01*
X128665670Y-126733858D01*
X128695529Y-126883973D01*
X128754101Y-127025378D01*
X128839134Y-127152639D01*
X128947361Y-127260866D01*
X129074622Y-127345899D01*
X129216027Y-127404471D01*
X129366142Y-127434330D01*
X129519198Y-127434330D01*
X129669313Y-127404471D01*
X129810718Y-127345899D01*
X129937979Y-127260866D01*
X130046206Y-127152639D01*
X130056075Y-127137869D01*
X130131952Y-127188569D01*
X130273357Y-127247141D01*
X130383095Y-127268969D01*
X130449972Y-127323853D01*
X130558897Y-127382075D01*
X130670870Y-127416041D01*
X130677087Y-127417927D01*
X130799999Y-127430033D01*
X130830793Y-127427000D01*
X130940289Y-127427000D01*
X130996176Y-127482888D01*
X130996176Y-127675000D01*
X131003455Y-127748905D01*
X131025012Y-127819970D01*
X131060019Y-127885463D01*
X131107131Y-127942869D01*
X131146283Y-127975000D01*
X131107131Y-128007131D01*
X131060019Y-128064537D01*
X131025012Y-128130030D01*
X131003455Y-128201095D01*
X130996176Y-128275000D01*
X130996176Y-128797331D01*
X130895309Y-128696464D01*
X130768048Y-128611431D01*
X130626643Y-128552859D01*
X130476528Y-128523000D01*
X130323472Y-128523000D01*
X130173357Y-128552859D01*
X130031952Y-128611431D01*
X129904691Y-128696464D01*
X129796464Y-128804691D01*
X129711431Y-128931952D01*
X129652859Y-129073357D01*
X129623000Y-129223472D01*
X129623000Y-129376528D01*
X129652859Y-129526643D01*
X129711431Y-129668048D01*
X129796464Y-129795309D01*
X129904691Y-129903536D01*
X130031952Y-129988569D01*
X130173357Y-130047141D01*
X130323472Y-130077000D01*
X130467066Y-130077000D01*
X130952603Y-130562538D01*
X130968316Y-130581684D01*
X130987462Y-130597397D01*
X130987465Y-130597400D01*
X130996176Y-130604549D01*
X130996176Y-130675000D01*
X131003455Y-130748905D01*
X131025012Y-130819970D01*
X131060019Y-130885463D01*
X131107131Y-130942869D01*
X131146283Y-130975000D01*
X131107131Y-131007131D01*
X131060019Y-131064537D01*
X131025012Y-131130030D01*
X131003455Y-131201095D01*
X131001298Y-131223000D01*
X130299643Y-131223000D01*
X130275000Y-131220573D01*
X130250357Y-131223000D01*
X130250347Y-131223000D01*
X130176591Y-131230264D01*
X130081964Y-131258969D01*
X129994755Y-131305583D01*
X129994753Y-131305584D01*
X129994754Y-131305584D01*
X129937464Y-131352600D01*
X129937456Y-131352608D01*
X129918316Y-131368316D01*
X129902607Y-131387457D01*
X129767065Y-131523000D01*
X129623472Y-131523000D01*
X129473357Y-131552859D01*
X129331952Y-131611431D01*
X129204691Y-131696464D01*
X129096464Y-131804691D01*
X129011431Y-131931952D01*
X128958524Y-132059679D01*
X128895309Y-131996464D01*
X128768048Y-131911431D01*
X128626643Y-131852859D01*
X128561644Y-131839930D01*
X126800140Y-130078427D01*
X126780503Y-130054499D01*
X126685030Y-129976147D01*
X126576105Y-129917925D01*
X126457915Y-129882073D01*
X126365796Y-129873000D01*
X126335002Y-129869967D01*
X126304208Y-129873000D01*
X122760193Y-129873000D01*
X122668048Y-129811431D01*
X122526643Y-129752859D01*
X122376528Y-129723000D01*
X122223472Y-129723000D01*
X122073357Y-129752859D01*
X121931952Y-129811431D01*
X121804691Y-129896464D01*
X121696464Y-130004691D01*
X121611431Y-130131952D01*
X121552859Y-130273357D01*
X121523000Y-130423472D01*
X121523000Y-130576528D01*
X121552859Y-130726643D01*
X121611431Y-130868048D01*
X121696464Y-130995309D01*
X121804691Y-131103536D01*
X121931952Y-131188569D01*
X122073357Y-131247141D01*
X122223472Y-131277000D01*
X122376528Y-131277000D01*
X122526643Y-131247141D01*
X122668048Y-131188569D01*
X122760193Y-131127000D01*
X126075291Y-131127000D01*
X126280911Y-131332620D01*
X124912250Y-131334000D01*
X124817000Y-131429250D01*
X124817000Y-133638000D01*
X127025750Y-133638000D01*
X127121000Y-133542750D01*
X127122380Y-132174090D01*
X127623000Y-132674710D01*
X127623000Y-132676528D01*
X127652859Y-132826643D01*
X127711431Y-132968048D01*
X127796464Y-133095309D01*
X127904691Y-133203536D01*
X128031952Y-133288569D01*
X128173357Y-133347141D01*
X128323472Y-133377000D01*
X128325290Y-133377000D01*
X128594868Y-133646578D01*
X128614501Y-133670501D01*
X128709974Y-133748853D01*
X128818899Y-133807075D01*
X128937089Y-133842927D01*
X129060002Y-133855033D01*
X129090796Y-133852000D01*
X131042133Y-133852000D01*
X131060019Y-133885463D01*
X131107131Y-133942869D01*
X131146283Y-133975000D01*
X131107131Y-134007131D01*
X131060019Y-134064537D01*
X131042133Y-134098000D01*
X130385794Y-134098000D01*
X130355000Y-134094967D01*
X130324206Y-134098000D01*
X130232087Y-134107073D01*
X130113897Y-134142925D01*
X130004972Y-134201147D01*
X129909499Y-134279499D01*
X129889866Y-134303422D01*
X128328422Y-135864867D01*
X128304500Y-135884499D01*
X128226148Y-135979972D01*
X128167925Y-136088897D01*
X128132073Y-136207087D01*
X128130309Y-136225000D01*
X128125581Y-136273000D01*
X123430794Y-136273000D01*
X123400000Y-136269967D01*
X123369206Y-136273000D01*
X123277087Y-136282073D01*
X123158897Y-136317925D01*
X123049972Y-136376147D01*
X122954499Y-136454499D01*
X122934869Y-136478419D01*
X116582050Y-142831239D01*
X116473357Y-142852859D01*
X116331952Y-142911431D01*
X116204691Y-142996464D01*
X116096464Y-143104691D01*
X116011431Y-143231952D01*
X115990731Y-143281927D01*
X115974988Y-143230030D01*
X115939981Y-143164537D01*
X115892869Y-143107131D01*
X115853717Y-143075000D01*
X115892869Y-143042869D01*
X115939981Y-142985463D01*
X115974988Y-142919970D01*
X115996545Y-142848905D01*
X116003824Y-142775000D01*
X116003824Y-141875000D01*
X115996545Y-141801095D01*
X115974988Y-141730030D01*
X115939981Y-141664537D01*
X115892869Y-141607131D01*
X115853717Y-141575000D01*
X115892869Y-141542869D01*
X115939981Y-141485463D01*
X115974988Y-141419970D01*
X115996545Y-141348905D01*
X116003824Y-141275000D01*
X116003824Y-140375000D01*
X115996545Y-140301095D01*
X115974988Y-140230030D01*
X115939981Y-140164537D01*
X115892869Y-140107131D01*
X115853717Y-140075000D01*
X115892869Y-140042869D01*
X115939981Y-139985463D01*
X115974988Y-139919970D01*
X115996545Y-139848905D01*
X116000219Y-139811603D01*
X116068036Y-139791031D01*
X116155245Y-139744417D01*
X116231684Y-139681684D01*
X116247401Y-139662533D01*
X120037562Y-135872374D01*
X120056703Y-135856665D01*
X120072411Y-135837525D01*
X120072419Y-135837517D01*
X120090898Y-135815000D01*
X122257157Y-135815000D01*
X122264513Y-135889689D01*
X122286299Y-135961508D01*
X122321678Y-136027696D01*
X122369289Y-136085711D01*
X122427304Y-136133322D01*
X122493492Y-136168701D01*
X122565311Y-136190487D01*
X122640000Y-136197843D01*
X124467750Y-136196000D01*
X124563000Y-136100750D01*
X124563000Y-133892000D01*
X124817000Y-133892000D01*
X124817000Y-136100750D01*
X124912250Y-136196000D01*
X126740000Y-136197843D01*
X126814689Y-136190487D01*
X126886508Y-136168701D01*
X126952696Y-136133322D01*
X127010711Y-136085711D01*
X127058322Y-136027696D01*
X127093701Y-135961508D01*
X127115487Y-135889689D01*
X127122843Y-135815000D01*
X127121000Y-133987250D01*
X127025750Y-133892000D01*
X124817000Y-133892000D01*
X124563000Y-133892000D01*
X122354250Y-133892000D01*
X122259000Y-133987250D01*
X122257157Y-135815000D01*
X120090898Y-135815000D01*
X120119436Y-135780227D01*
X120166049Y-135693018D01*
X120166050Y-135693017D01*
X120194755Y-135598390D01*
X120202019Y-135524634D01*
X120202019Y-135524624D01*
X120204446Y-135499981D01*
X120202019Y-135475338D01*
X120202019Y-131715000D01*
X122257157Y-131715000D01*
X122259000Y-133542750D01*
X122354250Y-133638000D01*
X124563000Y-133638000D01*
X124563000Y-131429250D01*
X124467750Y-131334000D01*
X122640000Y-131332157D01*
X122565311Y-131339513D01*
X122493492Y-131361299D01*
X122427304Y-131396678D01*
X122369289Y-131444289D01*
X122321678Y-131502304D01*
X122286299Y-131568492D01*
X122264513Y-131640311D01*
X122257157Y-131715000D01*
X120202019Y-131715000D01*
X120202019Y-129180735D01*
X120630746Y-128752010D01*
X121061757Y-128752010D01*
X121086400Y-128754437D01*
X121111043Y-128752010D01*
X121111053Y-128752010D01*
X121184809Y-128744746D01*
X121279436Y-128716041D01*
X121366645Y-128669427D01*
X121443084Y-128606694D01*
X121458801Y-128587543D01*
X122594336Y-127452010D01*
X126638150Y-127452010D01*
X126638150Y-127559295D01*
X126668009Y-127709410D01*
X126726581Y-127850815D01*
X126811614Y-127978076D01*
X126919841Y-128086303D01*
X127047102Y-128171336D01*
X127188507Y-128229908D01*
X127338622Y-128259767D01*
X127491678Y-128259767D01*
X127641793Y-128229908D01*
X127783198Y-128171336D01*
X127910459Y-128086303D01*
X128018686Y-127978076D01*
X128103719Y-127850815D01*
X128162291Y-127709410D01*
X128192150Y-127559295D01*
X128192150Y-127406239D01*
X128162291Y-127256124D01*
X128103719Y-127114719D01*
X128095871Y-127102974D01*
X128203536Y-126995309D01*
X128288569Y-126868048D01*
X128347141Y-126726643D01*
X128377000Y-126576528D01*
X128377000Y-126423472D01*
X128347141Y-126273357D01*
X128288569Y-126131952D01*
X128203536Y-126004691D01*
X128095309Y-125896464D01*
X127968048Y-125811431D01*
X127826643Y-125752859D01*
X127676528Y-125723000D01*
X127523472Y-125723000D01*
X127373357Y-125752859D01*
X127231952Y-125811431D01*
X127104691Y-125896464D01*
X127003155Y-125998000D01*
X122224645Y-125998000D01*
X122200000Y-125995573D01*
X122175354Y-125998000D01*
X122175347Y-125998000D01*
X122110432Y-126004393D01*
X122101590Y-126005264D01*
X122006963Y-126033969D01*
X121919754Y-126080583D01*
X121862464Y-126127600D01*
X121862456Y-126127608D01*
X121843316Y-126143316D01*
X121827607Y-126162457D01*
X121158683Y-126831382D01*
X121147141Y-126773357D01*
X121088569Y-126631952D01*
X121003536Y-126504691D01*
X120895309Y-126396464D01*
X120768048Y-126311431D01*
X120626643Y-126252859D01*
X120476528Y-126223000D01*
X120323472Y-126223000D01*
X120173357Y-126252859D01*
X120031952Y-126311431D01*
X119904691Y-126396464D01*
X119796464Y-126504691D01*
X119711431Y-126631952D01*
X119652859Y-126773357D01*
X119623000Y-126923472D01*
X119623000Y-127067065D01*
X118462467Y-128227599D01*
X118443316Y-128243316D01*
X118380583Y-128319755D01*
X118333969Y-128406965D01*
X118305264Y-128501592D01*
X118298000Y-128575348D01*
X118298000Y-128575357D01*
X118295573Y-128600000D01*
X118298000Y-128624643D01*
X118298001Y-134892063D01*
X117367066Y-135823000D01*
X115998702Y-135823000D01*
X115996545Y-135801095D01*
X115974988Y-135730030D01*
X115939981Y-135664537D01*
X115892869Y-135607131D01*
X115853717Y-135575000D01*
X115892869Y-135542869D01*
X115939981Y-135485463D01*
X115974988Y-135419970D01*
X115996545Y-135348905D01*
X116003824Y-135275000D01*
X116003824Y-134618339D01*
X116073357Y-134647141D01*
X116223472Y-134677000D01*
X116376528Y-134677000D01*
X116526643Y-134647141D01*
X116668048Y-134588569D01*
X116795309Y-134503536D01*
X116903536Y-134395309D01*
X116988569Y-134268048D01*
X117047141Y-134126643D01*
X117077000Y-133976528D01*
X117077000Y-133823472D01*
X117047141Y-133673357D01*
X116988569Y-133531952D01*
X116903536Y-133404691D01*
X116795309Y-133296464D01*
X116668048Y-133211431D01*
X116526643Y-133152859D01*
X116449759Y-133137566D01*
X116568048Y-133088569D01*
X116695309Y-133003536D01*
X116803536Y-132895309D01*
X116888569Y-132768048D01*
X116947141Y-132626643D01*
X116977000Y-132476528D01*
X116977000Y-132323472D01*
X116947141Y-132173357D01*
X116888569Y-132031952D01*
X116803536Y-131904691D01*
X116695309Y-131796464D01*
X116568048Y-131711431D01*
X116426643Y-131652859D01*
X116276528Y-131623000D01*
X116123472Y-131623000D01*
X116003824Y-131646799D01*
X116003824Y-131375000D01*
X115996545Y-131301095D01*
X115974988Y-131230030D01*
X115939981Y-131164537D01*
X115892869Y-131107131D01*
X115853717Y-131075000D01*
X115892869Y-131042869D01*
X115939981Y-130985463D01*
X115974988Y-130919970D01*
X115996545Y-130848905D01*
X116003824Y-130775000D01*
X116003824Y-129875000D01*
X115996545Y-129801095D01*
X115974988Y-129730030D01*
X115939981Y-129664537D01*
X115892869Y-129607131D01*
X115835463Y-129560019D01*
X115769970Y-129525012D01*
X115769930Y-129525000D01*
X115769970Y-129524988D01*
X115835463Y-129489981D01*
X115892869Y-129442869D01*
X115939981Y-129385463D01*
X115974988Y-129319970D01*
X115996545Y-129248905D01*
X116003824Y-129175000D01*
X116003824Y-128275000D01*
X115996545Y-128201095D01*
X115974988Y-128130030D01*
X115939981Y-128064537D01*
X115892869Y-128007131D01*
X115853717Y-127975000D01*
X115892869Y-127942869D01*
X115939981Y-127885463D01*
X115974988Y-127819970D01*
X115996545Y-127748905D01*
X116003824Y-127675000D01*
X116003824Y-127402000D01*
X116403155Y-127402000D01*
X116504691Y-127503536D01*
X116631952Y-127588569D01*
X116773357Y-127647141D01*
X116923472Y-127677000D01*
X117076528Y-127677000D01*
X117226643Y-127647141D01*
X117368048Y-127588569D01*
X117495309Y-127503536D01*
X117603536Y-127395309D01*
X117688569Y-127268048D01*
X117747141Y-127126643D01*
X117777000Y-126976528D01*
X117777000Y-126823472D01*
X117747141Y-126673357D01*
X117688569Y-126531952D01*
X117603536Y-126404691D01*
X117495309Y-126296464D01*
X117368048Y-126211431D01*
X117226643Y-126152859D01*
X117076528Y-126123000D01*
X116923472Y-126123000D01*
X116773357Y-126152859D01*
X116631952Y-126211431D01*
X116504691Y-126296464D01*
X116403155Y-126398000D01*
X115985832Y-126398000D01*
X116000487Y-126349689D01*
X116007843Y-126275000D01*
X116006000Y-126047250D01*
X115910750Y-125952000D01*
X115002000Y-125952000D01*
X115002000Y-125972000D01*
X114748000Y-125972000D01*
X114748000Y-125952000D01*
X114728000Y-125952000D01*
X114728000Y-125698000D01*
X114748000Y-125698000D01*
X114748000Y-125089250D01*
X115002000Y-125089250D01*
X115002000Y-125698000D01*
X115910750Y-125698000D01*
X116006000Y-125602750D01*
X116007843Y-125375000D01*
X116000487Y-125300311D01*
X115978701Y-125228492D01*
X115943322Y-125162304D01*
X115895711Y-125104289D01*
X115837696Y-125056678D01*
X115771508Y-125021299D01*
X115699689Y-124999513D01*
X115625000Y-124992157D01*
X115097250Y-124994000D01*
X115002000Y-125089250D01*
X114748000Y-125089250D01*
X114652750Y-124994000D01*
X114127000Y-124992164D01*
X114127000Y-124902000D01*
X131292112Y-124902000D01*
X131228492Y-124921299D01*
G37*
%TD.AperFunction*%
%TD*%
D19*
%TO.N,REF_SENSE*%
X109873000Y-159223244D02*
X109627513Y-159272074D01*
X109395114Y-159368337D01*
X109185960Y-159508089D01*
X109008089Y-159685960D01*
X108868337Y-159895114D01*
X108772074Y-160127513D01*
X108723000Y-160374226D01*
X108723000Y-160625774D01*
X108772074Y-160872487D01*
X108868337Y-161104886D01*
X109008089Y-161314040D01*
X109185960Y-161491911D01*
X109395114Y-161631663D01*
X109627513Y-161727926D01*
X109873000Y-161776756D01*
X109873000Y-164000000D01*
X109875440Y-164024776D01*
X109882667Y-164048601D01*
X109894403Y-164070557D01*
X109910197Y-164089803D01*
X109929443Y-164105597D01*
X109951399Y-164117333D01*
X109975224Y-164124560D01*
X110000000Y-164127000D01*
X137000000Y-164127000D01*
X137024776Y-164124560D01*
X137048601Y-164117333D01*
X137070557Y-164105597D01*
X137089803Y-164089803D01*
X137105597Y-164070557D01*
X137117333Y-164048601D01*
X137124560Y-164024776D01*
X137127000Y-164000000D01*
X137127000Y-147884076D01*
X139823000Y-147884076D01*
X139823000Y-148115924D01*
X139868231Y-148343318D01*
X139956956Y-148557519D01*
X140085764Y-148750294D01*
X140249706Y-148914236D01*
X140442481Y-149043044D01*
X140656682Y-149131769D01*
X140884076Y-149177000D01*
X141115924Y-149177000D01*
X141343318Y-149131769D01*
X141557519Y-149043044D01*
X141750294Y-148914236D01*
X141914236Y-148750294D01*
X142043044Y-148557519D01*
X142131769Y-148343318D01*
X142177000Y-148115924D01*
X142177000Y-147884076D01*
X142131769Y-147656682D01*
X142043044Y-147442481D01*
X141914236Y-147249706D01*
X141750294Y-147085764D01*
X141557519Y-146956956D01*
X141343318Y-146868231D01*
X141115924Y-146823000D01*
X140884076Y-146823000D01*
X140656682Y-146868231D01*
X140442481Y-146956956D01*
X140249706Y-147085764D01*
X140085764Y-147249706D01*
X139956956Y-147442481D01*
X139868231Y-147656682D01*
X139823000Y-147884076D01*
X137127000Y-147884076D01*
X137127000Y-129884076D01*
X139823000Y-129884076D01*
X139823000Y-130115924D01*
X139868231Y-130343318D01*
X139956956Y-130557519D01*
X140085764Y-130750294D01*
X140249706Y-130914236D01*
X140442481Y-131043044D01*
X140656682Y-131131769D01*
X140884076Y-131177000D01*
X141115924Y-131177000D01*
X141343318Y-131131769D01*
X141557519Y-131043044D01*
X141750294Y-130914236D01*
X141914236Y-130750294D01*
X142043044Y-130557519D01*
X142131769Y-130343318D01*
X142177000Y-130115924D01*
X142177000Y-129884076D01*
X142131769Y-129656682D01*
X142043044Y-129442481D01*
X141914236Y-129249706D01*
X141750294Y-129085764D01*
X141557519Y-128956956D01*
X141343318Y-128868231D01*
X141115924Y-128823000D01*
X140884076Y-128823000D01*
X140656682Y-128868231D01*
X140442481Y-128956956D01*
X140249706Y-129085764D01*
X140085764Y-129249706D01*
X139956956Y-129442481D01*
X139868231Y-129656682D01*
X139823000Y-129884076D01*
X137127000Y-129884076D01*
X137127000Y-124902000D01*
X141980342Y-124902000D01*
X142310008Y-124934324D01*
X142608214Y-125024357D01*
X142883249Y-125170595D01*
X143124645Y-125367473D01*
X143323203Y-125607487D01*
X143471360Y-125881498D01*
X143563472Y-126179064D01*
X143598001Y-126507582D01*
X143598000Y-165980342D01*
X143565676Y-166310009D01*
X143475641Y-166608217D01*
X143329402Y-166883252D01*
X143132524Y-167124648D01*
X142892513Y-167323203D01*
X142618502Y-167471360D01*
X142320935Y-167563472D01*
X141992426Y-167598000D01*
X105019658Y-167598000D01*
X104689991Y-167565676D01*
X104391783Y-167475641D01*
X104116748Y-167329402D01*
X103875352Y-167132524D01*
X103676797Y-166892513D01*
X103528640Y-166618502D01*
X103436528Y-166320935D01*
X103402000Y-165992426D01*
X103402000Y-165921010D01*
X132698000Y-165921010D01*
X132698000Y-166078990D01*
X132728820Y-166233935D01*
X132789276Y-166379890D01*
X132877046Y-166511245D01*
X132988755Y-166622954D01*
X133120110Y-166710724D01*
X133266065Y-166771180D01*
X133421010Y-166802000D01*
X133578990Y-166802000D01*
X133733935Y-166771180D01*
X133879890Y-166710724D01*
X134011245Y-166622954D01*
X134122954Y-166511245D01*
X134210724Y-166379890D01*
X134271180Y-166233935D01*
X134302000Y-166078990D01*
X134302000Y-165921010D01*
X135698000Y-165921010D01*
X135698000Y-166078990D01*
X135728820Y-166233935D01*
X135789276Y-166379890D01*
X135877046Y-166511245D01*
X135988755Y-166622954D01*
X136120110Y-166710724D01*
X136266065Y-166771180D01*
X136421010Y-166802000D01*
X136578990Y-166802000D01*
X136733935Y-166771180D01*
X136879890Y-166710724D01*
X137011245Y-166622954D01*
X137122954Y-166511245D01*
X137210724Y-166379890D01*
X137271180Y-166233935D01*
X137302000Y-166078990D01*
X137302000Y-165921010D01*
X137271180Y-165766065D01*
X137210724Y-165620110D01*
X137122954Y-165488755D01*
X137011245Y-165377046D01*
X136879890Y-165289276D01*
X136733935Y-165228820D01*
X136578990Y-165198000D01*
X136421010Y-165198000D01*
X136266065Y-165228820D01*
X136120110Y-165289276D01*
X135988755Y-165377046D01*
X135877046Y-165488755D01*
X135789276Y-165620110D01*
X135728820Y-165766065D01*
X135698000Y-165921010D01*
X134302000Y-165921010D01*
X134271180Y-165766065D01*
X134210724Y-165620110D01*
X134122954Y-165488755D01*
X134011245Y-165377046D01*
X133879890Y-165289276D01*
X133733935Y-165228820D01*
X133578990Y-165198000D01*
X133421010Y-165198000D01*
X133266065Y-165228820D01*
X133120110Y-165289276D01*
X132988755Y-165377046D01*
X132877046Y-165488755D01*
X132789276Y-165620110D01*
X132728820Y-165766065D01*
X132698000Y-165921010D01*
X103402000Y-165921010D01*
X103402000Y-160384076D01*
X104323000Y-160384076D01*
X104323000Y-160615924D01*
X104368231Y-160843318D01*
X104456956Y-161057519D01*
X104585764Y-161250294D01*
X104749706Y-161414236D01*
X104942481Y-161543044D01*
X105156682Y-161631769D01*
X105384076Y-161677000D01*
X105615924Y-161677000D01*
X105843318Y-161631769D01*
X106057519Y-161543044D01*
X106250294Y-161414236D01*
X106414236Y-161250294D01*
X106543044Y-161057519D01*
X106631769Y-160843318D01*
X106677000Y-160615924D01*
X106677000Y-160384076D01*
X106631769Y-160156682D01*
X106543044Y-159942481D01*
X106414236Y-159749706D01*
X106250294Y-159585764D01*
X106057519Y-159456956D01*
X105843318Y-159368231D01*
X105615924Y-159323000D01*
X105384076Y-159323000D01*
X105156682Y-159368231D01*
X104942481Y-159456956D01*
X104749706Y-159585764D01*
X104585764Y-159749706D01*
X104456956Y-159942481D01*
X104368231Y-160156682D01*
X104323000Y-160384076D01*
X103402000Y-160384076D01*
X103402000Y-147884076D01*
X104823000Y-147884076D01*
X104823000Y-148115924D01*
X104868231Y-148343318D01*
X104956956Y-148557519D01*
X105085764Y-148750294D01*
X105249706Y-148914236D01*
X105442481Y-149043044D01*
X105656682Y-149131769D01*
X105884076Y-149177000D01*
X106115924Y-149177000D01*
X106343318Y-149131769D01*
X106557519Y-149043044D01*
X106750294Y-148914236D01*
X106914236Y-148750294D01*
X107043044Y-148557519D01*
X107131769Y-148343318D01*
X107177000Y-148115924D01*
X107177000Y-147884076D01*
X107131769Y-147656682D01*
X107043044Y-147442481D01*
X106914236Y-147249706D01*
X106750294Y-147085764D01*
X106557519Y-146956956D01*
X106343318Y-146868231D01*
X106115924Y-146823000D01*
X105884076Y-146823000D01*
X105656682Y-146868231D01*
X105442481Y-146956956D01*
X105249706Y-147085764D01*
X105085764Y-147249706D01*
X104956956Y-147442481D01*
X104868231Y-147656682D01*
X104823000Y-147884076D01*
X103402000Y-147884076D01*
X103402000Y-129884076D01*
X104823000Y-129884076D01*
X104823000Y-130115924D01*
X104868231Y-130343318D01*
X104956956Y-130557519D01*
X105085764Y-130750294D01*
X105249706Y-130914236D01*
X105442481Y-131043044D01*
X105656682Y-131131769D01*
X105884076Y-131177000D01*
X106115924Y-131177000D01*
X106343318Y-131131769D01*
X106557519Y-131043044D01*
X106750294Y-130914236D01*
X106914236Y-130750294D01*
X107043044Y-130557519D01*
X107131769Y-130343318D01*
X107177000Y-130115924D01*
X107177000Y-129884076D01*
X107131769Y-129656682D01*
X107043044Y-129442481D01*
X106914236Y-129249706D01*
X106750294Y-129085764D01*
X106557519Y-128956956D01*
X106343318Y-128868231D01*
X106115924Y-128823000D01*
X105884076Y-128823000D01*
X105656682Y-128868231D01*
X105442481Y-128956956D01*
X105249706Y-129085764D01*
X105085764Y-129249706D01*
X104956956Y-129442481D01*
X104868231Y-129656682D01*
X104823000Y-129884076D01*
X103402000Y-129884076D01*
X103402000Y-126519658D01*
X103434324Y-126189992D01*
X103524357Y-125891786D01*
X103670595Y-125616751D01*
X103867473Y-125375355D01*
X104107487Y-125176797D01*
X104381498Y-125028640D01*
X104679064Y-124936528D01*
X105007573Y-124902000D01*
X109873000Y-124902000D01*
X109873000Y-159223244D01*
%TA.AperFunction,Conductor*%
D20*
G36*
X109873000Y-159223244D02*
G01*
X109627513Y-159272074D01*
X109395114Y-159368337D01*
X109185960Y-159508089D01*
X109008089Y-159685960D01*
X108868337Y-159895114D01*
X108772074Y-160127513D01*
X108723000Y-160374226D01*
X108723000Y-160625774D01*
X108772074Y-160872487D01*
X108868337Y-161104886D01*
X109008089Y-161314040D01*
X109185960Y-161491911D01*
X109395114Y-161631663D01*
X109627513Y-161727926D01*
X109873000Y-161776756D01*
X109873000Y-164000000D01*
X109875440Y-164024776D01*
X109882667Y-164048601D01*
X109894403Y-164070557D01*
X109910197Y-164089803D01*
X109929443Y-164105597D01*
X109951399Y-164117333D01*
X109975224Y-164124560D01*
X110000000Y-164127000D01*
X137000000Y-164127000D01*
X137024776Y-164124560D01*
X137048601Y-164117333D01*
X137070557Y-164105597D01*
X137089803Y-164089803D01*
X137105597Y-164070557D01*
X137117333Y-164048601D01*
X137124560Y-164024776D01*
X137127000Y-164000000D01*
X137127000Y-147884076D01*
X139823000Y-147884076D01*
X139823000Y-148115924D01*
X139868231Y-148343318D01*
X139956956Y-148557519D01*
X140085764Y-148750294D01*
X140249706Y-148914236D01*
X140442481Y-149043044D01*
X140656682Y-149131769D01*
X140884076Y-149177000D01*
X141115924Y-149177000D01*
X141343318Y-149131769D01*
X141557519Y-149043044D01*
X141750294Y-148914236D01*
X141914236Y-148750294D01*
X142043044Y-148557519D01*
X142131769Y-148343318D01*
X142177000Y-148115924D01*
X142177000Y-147884076D01*
X142131769Y-147656682D01*
X142043044Y-147442481D01*
X141914236Y-147249706D01*
X141750294Y-147085764D01*
X141557519Y-146956956D01*
X141343318Y-146868231D01*
X141115924Y-146823000D01*
X140884076Y-146823000D01*
X140656682Y-146868231D01*
X140442481Y-146956956D01*
X140249706Y-147085764D01*
X140085764Y-147249706D01*
X139956956Y-147442481D01*
X139868231Y-147656682D01*
X139823000Y-147884076D01*
X137127000Y-147884076D01*
X137127000Y-129884076D01*
X139823000Y-129884076D01*
X139823000Y-130115924D01*
X139868231Y-130343318D01*
X139956956Y-130557519D01*
X140085764Y-130750294D01*
X140249706Y-130914236D01*
X140442481Y-131043044D01*
X140656682Y-131131769D01*
X140884076Y-131177000D01*
X141115924Y-131177000D01*
X141343318Y-131131769D01*
X141557519Y-131043044D01*
X141750294Y-130914236D01*
X141914236Y-130750294D01*
X142043044Y-130557519D01*
X142131769Y-130343318D01*
X142177000Y-130115924D01*
X142177000Y-129884076D01*
X142131769Y-129656682D01*
X142043044Y-129442481D01*
X141914236Y-129249706D01*
X141750294Y-129085764D01*
X141557519Y-128956956D01*
X141343318Y-128868231D01*
X141115924Y-128823000D01*
X140884076Y-128823000D01*
X140656682Y-128868231D01*
X140442481Y-128956956D01*
X140249706Y-129085764D01*
X140085764Y-129249706D01*
X139956956Y-129442481D01*
X139868231Y-129656682D01*
X139823000Y-129884076D01*
X137127000Y-129884076D01*
X137127000Y-124902000D01*
X141980342Y-124902000D01*
X142310008Y-124934324D01*
X142608214Y-125024357D01*
X142883249Y-125170595D01*
X143124645Y-125367473D01*
X143323203Y-125607487D01*
X143471360Y-125881498D01*
X143563472Y-126179064D01*
X143598001Y-126507582D01*
X143598000Y-165980342D01*
X143565676Y-166310009D01*
X143475641Y-166608217D01*
X143329402Y-166883252D01*
X143132524Y-167124648D01*
X142892513Y-167323203D01*
X142618502Y-167471360D01*
X142320935Y-167563472D01*
X141992426Y-167598000D01*
X105019658Y-167598000D01*
X104689991Y-167565676D01*
X104391783Y-167475641D01*
X104116748Y-167329402D01*
X103875352Y-167132524D01*
X103676797Y-166892513D01*
X103528640Y-166618502D01*
X103436528Y-166320935D01*
X103402000Y-165992426D01*
X103402000Y-165921010D01*
X132698000Y-165921010D01*
X132698000Y-166078990D01*
X132728820Y-166233935D01*
X132789276Y-166379890D01*
X132877046Y-166511245D01*
X132988755Y-166622954D01*
X133120110Y-166710724D01*
X133266065Y-166771180D01*
X133421010Y-166802000D01*
X133578990Y-166802000D01*
X133733935Y-166771180D01*
X133879890Y-166710724D01*
X134011245Y-166622954D01*
X134122954Y-166511245D01*
X134210724Y-166379890D01*
X134271180Y-166233935D01*
X134302000Y-166078990D01*
X134302000Y-165921010D01*
X135698000Y-165921010D01*
X135698000Y-166078990D01*
X135728820Y-166233935D01*
X135789276Y-166379890D01*
X135877046Y-166511245D01*
X135988755Y-166622954D01*
X136120110Y-166710724D01*
X136266065Y-166771180D01*
X136421010Y-166802000D01*
X136578990Y-166802000D01*
X136733935Y-166771180D01*
X136879890Y-166710724D01*
X137011245Y-166622954D01*
X137122954Y-166511245D01*
X137210724Y-166379890D01*
X137271180Y-166233935D01*
X137302000Y-166078990D01*
X137302000Y-165921010D01*
X137271180Y-165766065D01*
X137210724Y-165620110D01*
X137122954Y-165488755D01*
X137011245Y-165377046D01*
X136879890Y-165289276D01*
X136733935Y-165228820D01*
X136578990Y-165198000D01*
X136421010Y-165198000D01*
X136266065Y-165228820D01*
X136120110Y-165289276D01*
X135988755Y-165377046D01*
X135877046Y-165488755D01*
X135789276Y-165620110D01*
X135728820Y-165766065D01*
X135698000Y-165921010D01*
X134302000Y-165921010D01*
X134271180Y-165766065D01*
X134210724Y-165620110D01*
X134122954Y-165488755D01*
X134011245Y-165377046D01*
X133879890Y-165289276D01*
X133733935Y-165228820D01*
X133578990Y-165198000D01*
X133421010Y-165198000D01*
X133266065Y-165228820D01*
X133120110Y-165289276D01*
X132988755Y-165377046D01*
X132877046Y-165488755D01*
X132789276Y-165620110D01*
X132728820Y-165766065D01*
X132698000Y-165921010D01*
X103402000Y-165921010D01*
X103402000Y-160384076D01*
X104323000Y-160384076D01*
X104323000Y-160615924D01*
X104368231Y-160843318D01*
X104456956Y-161057519D01*
X104585764Y-161250294D01*
X104749706Y-161414236D01*
X104942481Y-161543044D01*
X105156682Y-161631769D01*
X105384076Y-161677000D01*
X105615924Y-161677000D01*
X105843318Y-161631769D01*
X106057519Y-161543044D01*
X106250294Y-161414236D01*
X106414236Y-161250294D01*
X106543044Y-161057519D01*
X106631769Y-160843318D01*
X106677000Y-160615924D01*
X106677000Y-160384076D01*
X106631769Y-160156682D01*
X106543044Y-159942481D01*
X106414236Y-159749706D01*
X106250294Y-159585764D01*
X106057519Y-159456956D01*
X105843318Y-159368231D01*
X105615924Y-159323000D01*
X105384076Y-159323000D01*
X105156682Y-159368231D01*
X104942481Y-159456956D01*
X104749706Y-159585764D01*
X104585764Y-159749706D01*
X104456956Y-159942481D01*
X104368231Y-160156682D01*
X104323000Y-160384076D01*
X103402000Y-160384076D01*
X103402000Y-147884076D01*
X104823000Y-147884076D01*
X104823000Y-148115924D01*
X104868231Y-148343318D01*
X104956956Y-148557519D01*
X105085764Y-148750294D01*
X105249706Y-148914236D01*
X105442481Y-149043044D01*
X105656682Y-149131769D01*
X105884076Y-149177000D01*
X106115924Y-149177000D01*
X106343318Y-149131769D01*
X106557519Y-149043044D01*
X106750294Y-148914236D01*
X106914236Y-148750294D01*
X107043044Y-148557519D01*
X107131769Y-148343318D01*
X107177000Y-148115924D01*
X107177000Y-147884076D01*
X107131769Y-147656682D01*
X107043044Y-147442481D01*
X106914236Y-147249706D01*
X106750294Y-147085764D01*
X106557519Y-146956956D01*
X106343318Y-146868231D01*
X106115924Y-146823000D01*
X105884076Y-146823000D01*
X105656682Y-146868231D01*
X105442481Y-146956956D01*
X105249706Y-147085764D01*
X105085764Y-147249706D01*
X104956956Y-147442481D01*
X104868231Y-147656682D01*
X104823000Y-147884076D01*
X103402000Y-147884076D01*
X103402000Y-129884076D01*
X104823000Y-129884076D01*
X104823000Y-130115924D01*
X104868231Y-130343318D01*
X104956956Y-130557519D01*
X105085764Y-130750294D01*
X105249706Y-130914236D01*
X105442481Y-131043044D01*
X105656682Y-131131769D01*
X105884076Y-131177000D01*
X106115924Y-131177000D01*
X106343318Y-131131769D01*
X106557519Y-131043044D01*
X106750294Y-130914236D01*
X106914236Y-130750294D01*
X107043044Y-130557519D01*
X107131769Y-130343318D01*
X107177000Y-130115924D01*
X107177000Y-129884076D01*
X107131769Y-129656682D01*
X107043044Y-129442481D01*
X106914236Y-129249706D01*
X106750294Y-129085764D01*
X106557519Y-128956956D01*
X106343318Y-128868231D01*
X106115924Y-128823000D01*
X105884076Y-128823000D01*
X105656682Y-128868231D01*
X105442481Y-128956956D01*
X105249706Y-129085764D01*
X105085764Y-129249706D01*
X104956956Y-129442481D01*
X104868231Y-129656682D01*
X104823000Y-129884076D01*
X103402000Y-129884076D01*
X103402000Y-126519658D01*
X103434324Y-126189992D01*
X103524357Y-125891786D01*
X103670595Y-125616751D01*
X103867473Y-125375355D01*
X104107487Y-125176797D01*
X104381498Y-125028640D01*
X104679064Y-124936528D01*
X105007573Y-124902000D01*
X109873000Y-124902000D01*
X109873000Y-159223244D01*
G37*
%TD.AperFunction*%
%TD*%
M02*
