%TF.GenerationSoftware,KiCad,Pcbnew,(5.1.8)-1*%
%TF.CreationDate,2021-07-06T20:41:50+01:00*%
%TF.ProjectId,ESP32-S2-PowerMeter,45535033-322d-4533-922d-506f7765724d,rev?*%
%TF.SameCoordinates,Original*%
%TF.FileFunction,Paste,Top*%
%TF.FilePolarity,Positive*%
%FSLAX46Y46*%
G04 Gerber Fmt 4.6, Leading zero omitted, Abs format (unit mm)*
G04 Created by KiCad (PCBNEW (5.1.8)-1) date 2021-07-06 20:41:50*
%MOMM*%
%LPD*%
G01*
G04 APERTURE LIST*
%ADD10R,0.700000X0.800000*%
%ADD11R,0.300000X1.450000*%
%ADD12R,1.800000X1.450000*%
%ADD13R,1.800000X2.950000*%
%ADD14R,1.800000X2.550000*%
%ADD15R,2.800000X2.400000*%
%ADD16R,0.600000X1.250000*%
%ADD17R,1.200000X0.700000*%
%ADD18R,2.440000X1.120000*%
%ADD19R,0.225000X0.525000*%
%ADD20C,0.100000*%
%ADD21R,0.900000X1.300000*%
%ADD22R,0.900000X0.800000*%
%ADD23R,0.600000X0.300000*%
%ADD24R,0.300000X0.600000*%
G04 APERTURE END LIST*
%TO.C,C1*%
G36*
G01*
X129425000Y-160950000D02*
X129425000Y-160450000D01*
G75*
G02*
X129650000Y-160225000I225000J0D01*
G01*
X130100000Y-160225000D01*
G75*
G02*
X130325000Y-160450000I0J-225000D01*
G01*
X130325000Y-160950000D01*
G75*
G02*
X130100000Y-161175000I-225000J0D01*
G01*
X129650000Y-161175000D01*
G75*
G02*
X129425000Y-160950000I0J225000D01*
G01*
G37*
G36*
G01*
X127875000Y-160950000D02*
X127875000Y-160450000D01*
G75*
G02*
X128100000Y-160225000I225000J0D01*
G01*
X128550000Y-160225000D01*
G75*
G02*
X128775000Y-160450000I0J-225000D01*
G01*
X128775000Y-160950000D01*
G75*
G02*
X128550000Y-161175000I-225000J0D01*
G01*
X128100000Y-161175000D01*
G75*
G02*
X127875000Y-160950000I0J225000D01*
G01*
G37*
%TD*%
%TO.C,C2*%
G36*
G01*
X132250000Y-157675000D02*
X131750000Y-157675000D01*
G75*
G02*
X131525000Y-157450000I0J225000D01*
G01*
X131525000Y-157000000D01*
G75*
G02*
X131750000Y-156775000I225000J0D01*
G01*
X132250000Y-156775000D01*
G75*
G02*
X132475000Y-157000000I0J-225000D01*
G01*
X132475000Y-157450000D01*
G75*
G02*
X132250000Y-157675000I-225000J0D01*
G01*
G37*
G36*
G01*
X132250000Y-159225000D02*
X131750000Y-159225000D01*
G75*
G02*
X131525000Y-159000000I0J225000D01*
G01*
X131525000Y-158550000D01*
G75*
G02*
X131750000Y-158325000I225000J0D01*
G01*
X132250000Y-158325000D01*
G75*
G02*
X132475000Y-158550000I0J-225000D01*
G01*
X132475000Y-159000000D01*
G75*
G02*
X132250000Y-159225000I-225000J0D01*
G01*
G37*
%TD*%
%TO.C,C3*%
G36*
G01*
X132130000Y-161200000D02*
X132470000Y-161200000D01*
G75*
G02*
X132610000Y-161340000I0J-140000D01*
G01*
X132610000Y-161620000D01*
G75*
G02*
X132470000Y-161760000I-140000J0D01*
G01*
X132130000Y-161760000D01*
G75*
G02*
X131990000Y-161620000I0J140000D01*
G01*
X131990000Y-161340000D01*
G75*
G02*
X132130000Y-161200000I140000J0D01*
G01*
G37*
G36*
G01*
X132130000Y-160240000D02*
X132470000Y-160240000D01*
G75*
G02*
X132610000Y-160380000I0J-140000D01*
G01*
X132610000Y-160660000D01*
G75*
G02*
X132470000Y-160800000I-140000J0D01*
G01*
X132130000Y-160800000D01*
G75*
G02*
X131990000Y-160660000I0J140000D01*
G01*
X131990000Y-160380000D01*
G75*
G02*
X132130000Y-160240000I140000J0D01*
G01*
G37*
%TD*%
%TO.C,C4*%
G36*
G01*
X116800000Y-125430000D02*
X116800000Y-125770000D01*
G75*
G02*
X116660000Y-125910000I-140000J0D01*
G01*
X116380000Y-125910000D01*
G75*
G02*
X116240000Y-125770000I0J140000D01*
G01*
X116240000Y-125430000D01*
G75*
G02*
X116380000Y-125290000I140000J0D01*
G01*
X116660000Y-125290000D01*
G75*
G02*
X116800000Y-125430000I0J-140000D01*
G01*
G37*
G36*
G01*
X117760000Y-125430000D02*
X117760000Y-125770000D01*
G75*
G02*
X117620000Y-125910000I-140000J0D01*
G01*
X117340000Y-125910000D01*
G75*
G02*
X117200000Y-125770000I0J140000D01*
G01*
X117200000Y-125430000D01*
G75*
G02*
X117340000Y-125290000I140000J0D01*
G01*
X117620000Y-125290000D01*
G75*
G02*
X117760000Y-125430000I0J-140000D01*
G01*
G37*
%TD*%
%TO.C,C5*%
G36*
G01*
X119974999Y-150150000D02*
X120825001Y-150150000D01*
G75*
G02*
X121075000Y-150399999I0J-249999D01*
G01*
X121075000Y-151300001D01*
G75*
G02*
X120825001Y-151550000I-249999J0D01*
G01*
X119974999Y-151550000D01*
G75*
G02*
X119725000Y-151300001I0J249999D01*
G01*
X119725000Y-150399999D01*
G75*
G02*
X119974999Y-150150000I249999J0D01*
G01*
G37*
G36*
G01*
X119974999Y-147450000D02*
X120825001Y-147450000D01*
G75*
G02*
X121075000Y-147699999I0J-249999D01*
G01*
X121075000Y-148600001D01*
G75*
G02*
X120825001Y-148850000I-249999J0D01*
G01*
X119974999Y-148850000D01*
G75*
G02*
X119725000Y-148600001I0J249999D01*
G01*
X119725000Y-147699999D01*
G75*
G02*
X119974999Y-147450000I249999J0D01*
G01*
G37*
%TD*%
%TO.C,C6*%
G36*
G01*
X127974999Y-150150000D02*
X128825001Y-150150000D01*
G75*
G02*
X129075000Y-150399999I0J-249999D01*
G01*
X129075000Y-151300001D01*
G75*
G02*
X128825001Y-151550000I-249999J0D01*
G01*
X127974999Y-151550000D01*
G75*
G02*
X127725000Y-151300001I0J249999D01*
G01*
X127725000Y-150399999D01*
G75*
G02*
X127974999Y-150150000I249999J0D01*
G01*
G37*
G36*
G01*
X127974999Y-147450000D02*
X128825001Y-147450000D01*
G75*
G02*
X129075000Y-147699999I0J-249999D01*
G01*
X129075000Y-148600001D01*
G75*
G02*
X128825001Y-148850000I-249999J0D01*
G01*
X127974999Y-148850000D01*
G75*
G02*
X127725000Y-148600001I0J249999D01*
G01*
X127725000Y-147699999D01*
G75*
G02*
X127974999Y-147450000I249999J0D01*
G01*
G37*
%TD*%
%TO.C,C7*%
G36*
G01*
X129070000Y-130900000D02*
X128730000Y-130900000D01*
G75*
G02*
X128590000Y-130760000I0J140000D01*
G01*
X128590000Y-130480000D01*
G75*
G02*
X128730000Y-130340000I140000J0D01*
G01*
X129070000Y-130340000D01*
G75*
G02*
X129210000Y-130480000I0J-140000D01*
G01*
X129210000Y-130760000D01*
G75*
G02*
X129070000Y-130900000I-140000J0D01*
G01*
G37*
G36*
G01*
X129070000Y-131860000D02*
X128730000Y-131860000D01*
G75*
G02*
X128590000Y-131720000I0J140000D01*
G01*
X128590000Y-131440000D01*
G75*
G02*
X128730000Y-131300000I140000J0D01*
G01*
X129070000Y-131300000D01*
G75*
G02*
X129210000Y-131440000I0J-140000D01*
G01*
X129210000Y-131720000D01*
G75*
G02*
X129070000Y-131860000I-140000J0D01*
G01*
G37*
%TD*%
%TO.C,C8*%
G36*
G01*
X128900000Y-128530000D02*
X128900000Y-128870000D01*
G75*
G02*
X128760000Y-129010000I-140000J0D01*
G01*
X128480000Y-129010000D01*
G75*
G02*
X128340000Y-128870000I0J140000D01*
G01*
X128340000Y-128530000D01*
G75*
G02*
X128480000Y-128390000I140000J0D01*
G01*
X128760000Y-128390000D01*
G75*
G02*
X128900000Y-128530000I0J-140000D01*
G01*
G37*
G36*
G01*
X129860000Y-128530000D02*
X129860000Y-128870000D01*
G75*
G02*
X129720000Y-129010000I-140000J0D01*
G01*
X129440000Y-129010000D01*
G75*
G02*
X129300000Y-128870000I0J140000D01*
G01*
X129300000Y-128530000D01*
G75*
G02*
X129440000Y-128390000I140000J0D01*
G01*
X129720000Y-128390000D01*
G75*
G02*
X129860000Y-128530000I0J-140000D01*
G01*
G37*
%TD*%
%TO.C,C9*%
G36*
G01*
X129170000Y-135400000D02*
X128830000Y-135400000D01*
G75*
G02*
X128690000Y-135260000I0J140000D01*
G01*
X128690000Y-134980000D01*
G75*
G02*
X128830000Y-134840000I140000J0D01*
G01*
X129170000Y-134840000D01*
G75*
G02*
X129310000Y-134980000I0J-140000D01*
G01*
X129310000Y-135260000D01*
G75*
G02*
X129170000Y-135400000I-140000J0D01*
G01*
G37*
G36*
G01*
X129170000Y-136360000D02*
X128830000Y-136360000D01*
G75*
G02*
X128690000Y-136220000I0J140000D01*
G01*
X128690000Y-135940000D01*
G75*
G02*
X128830000Y-135800000I140000J0D01*
G01*
X129170000Y-135800000D01*
G75*
G02*
X129310000Y-135940000I0J-140000D01*
G01*
X129310000Y-136220000D01*
G75*
G02*
X129170000Y-136360000I-140000J0D01*
G01*
G37*
%TD*%
%TO.C,C10*%
G36*
G01*
X128830000Y-133900000D02*
X129170000Y-133900000D01*
G75*
G02*
X129310000Y-134040000I0J-140000D01*
G01*
X129310000Y-134320000D01*
G75*
G02*
X129170000Y-134460000I-140000J0D01*
G01*
X128830000Y-134460000D01*
G75*
G02*
X128690000Y-134320000I0J140000D01*
G01*
X128690000Y-134040000D01*
G75*
G02*
X128830000Y-133900000I140000J0D01*
G01*
G37*
G36*
G01*
X128830000Y-132940000D02*
X129170000Y-132940000D01*
G75*
G02*
X129310000Y-133080000I0J-140000D01*
G01*
X129310000Y-133360000D01*
G75*
G02*
X129170000Y-133500000I-140000J0D01*
G01*
X128830000Y-133500000D01*
G75*
G02*
X128690000Y-133360000I0J140000D01*
G01*
X128690000Y-133080000D01*
G75*
G02*
X128830000Y-132940000I140000J0D01*
G01*
G37*
%TD*%
D10*
%TO.C,D1*%
X123450000Y-126150000D03*
X123450000Y-127850000D03*
X124550000Y-127850000D03*
X124550000Y-126150000D03*
%TD*%
%TO.C,FB1*%
G36*
G01*
X128472500Y-142710000D02*
X128127500Y-142710000D01*
G75*
G02*
X127980000Y-142562500I0J147500D01*
G01*
X127980000Y-142267500D01*
G75*
G02*
X128127500Y-142120000I147500J0D01*
G01*
X128472500Y-142120000D01*
G75*
G02*
X128620000Y-142267500I0J-147500D01*
G01*
X128620000Y-142562500D01*
G75*
G02*
X128472500Y-142710000I-147500J0D01*
G01*
G37*
G36*
G01*
X128472500Y-143680000D02*
X128127500Y-143680000D01*
G75*
G02*
X127980000Y-143532500I0J147500D01*
G01*
X127980000Y-143237500D01*
G75*
G02*
X128127500Y-143090000I147500J0D01*
G01*
X128472500Y-143090000D01*
G75*
G02*
X128620000Y-143237500I0J-147500D01*
G01*
X128620000Y-143532500D01*
G75*
G02*
X128472500Y-143680000I-147500J0D01*
G01*
G37*
%TD*%
D11*
%TO.C,J1*%
X126875000Y-161495000D03*
X126100000Y-161495000D03*
X121200000Y-161495000D03*
X120425000Y-161495000D03*
X120125000Y-161495000D03*
X120900000Y-161495000D03*
X126575000Y-161495000D03*
X125800000Y-161495000D03*
X121750000Y-161495000D03*
X122250000Y-161495000D03*
X122750000Y-161495000D03*
X125250000Y-161495000D03*
X124750000Y-161495000D03*
X124250000Y-161495000D03*
X123750000Y-161495000D03*
X123250000Y-161495000D03*
D12*
X118430000Y-162410000D03*
X118430000Y-166590000D03*
X128570000Y-162410000D03*
X128570000Y-166590000D03*
%TD*%
%TO.C,J2*%
G36*
G01*
X142350000Y-155400000D02*
X139450000Y-155400000D01*
G75*
G02*
X139200000Y-155150000I0J250000D01*
G01*
X139200000Y-154150000D01*
G75*
G02*
X139450000Y-153900000I250000J0D01*
G01*
X142350000Y-153900000D01*
G75*
G02*
X142600000Y-154150000I0J-250000D01*
G01*
X142600000Y-155150000D01*
G75*
G02*
X142350000Y-155400000I-250000J0D01*
G01*
G37*
G36*
G01*
X142350000Y-162100000D02*
X139450000Y-162100000D01*
G75*
G02*
X139200000Y-161850000I0J250000D01*
G01*
X139200000Y-160850000D01*
G75*
G02*
X139450000Y-160600000I250000J0D01*
G01*
X142350000Y-160600000D01*
G75*
G02*
X142600000Y-160850000I0J-250000D01*
G01*
X142600000Y-161850000D01*
G75*
G02*
X142350000Y-162100000I-250000J0D01*
G01*
G37*
G36*
G01*
X136650000Y-157500000D02*
X133650000Y-157500000D01*
G75*
G02*
X133400000Y-157250000I0J250000D01*
G01*
X133400000Y-156750000D01*
G75*
G02*
X133650000Y-156500000I250000J0D01*
G01*
X136650000Y-156500000D01*
G75*
G02*
X136900000Y-156750000I0J-250000D01*
G01*
X136900000Y-157250000D01*
G75*
G02*
X136650000Y-157500000I-250000J0D01*
G01*
G37*
G36*
G01*
X136650000Y-159500000D02*
X133650000Y-159500000D01*
G75*
G02*
X133400000Y-159250000I0J250000D01*
G01*
X133400000Y-158750000D01*
G75*
G02*
X133650000Y-158500000I250000J0D01*
G01*
X136650000Y-158500000D01*
G75*
G02*
X136900000Y-158750000I0J-250000D01*
G01*
X136900000Y-159250000D01*
G75*
G02*
X136650000Y-159500000I-250000J0D01*
G01*
G37*
%TD*%
D13*
%TO.C,J3*%
X134250000Y-151300000D03*
D14*
X136500000Y-144500000D03*
X141500000Y-144500000D03*
X138750000Y-151500000D03*
X142050000Y-151500000D03*
%TD*%
D13*
%TO.C,J4*%
X134250000Y-133300000D03*
D14*
X136500000Y-126500000D03*
X141500000Y-126500000D03*
X138750000Y-133500000D03*
X142050000Y-133500000D03*
%TD*%
D13*
%TO.C,J5*%
X112750000Y-144700000D03*
D14*
X110500000Y-151500000D03*
X105500000Y-151500000D03*
X108250000Y-144500000D03*
X104950000Y-144500000D03*
%TD*%
D13*
%TO.C,J6*%
X112750000Y-126700000D03*
D14*
X110500000Y-133500000D03*
X105500000Y-133500000D03*
X108250000Y-126500000D03*
X104950000Y-126500000D03*
%TD*%
D15*
%TO.C,J7*%
X111600000Y-166200000D03*
X105500000Y-166200000D03*
X111600000Y-154800000D03*
X105500000Y-154800000D03*
%TD*%
%TO.C,R1*%
G36*
G01*
X126540000Y-126685000D02*
X126540000Y-126315000D01*
G75*
G02*
X126675000Y-126180000I135000J0D01*
G01*
X126945000Y-126180000D01*
G75*
G02*
X127080000Y-126315000I0J-135000D01*
G01*
X127080000Y-126685000D01*
G75*
G02*
X126945000Y-126820000I-135000J0D01*
G01*
X126675000Y-126820000D01*
G75*
G02*
X126540000Y-126685000I0J135000D01*
G01*
G37*
G36*
G01*
X125520000Y-126685000D02*
X125520000Y-126315000D01*
G75*
G02*
X125655000Y-126180000I135000J0D01*
G01*
X125925000Y-126180000D01*
G75*
G02*
X126060000Y-126315000I0J-135000D01*
G01*
X126060000Y-126685000D01*
G75*
G02*
X125925000Y-126820000I-135000J0D01*
G01*
X125655000Y-126820000D01*
G75*
G02*
X125520000Y-126685000I0J135000D01*
G01*
G37*
%TD*%
%TO.C,R2*%
G36*
G01*
X121460000Y-126315000D02*
X121460000Y-126685000D01*
G75*
G02*
X121325000Y-126820000I-135000J0D01*
G01*
X121055000Y-126820000D01*
G75*
G02*
X120920000Y-126685000I0J135000D01*
G01*
X120920000Y-126315000D01*
G75*
G02*
X121055000Y-126180000I135000J0D01*
G01*
X121325000Y-126180000D01*
G75*
G02*
X121460000Y-126315000I0J-135000D01*
G01*
G37*
G36*
G01*
X122480000Y-126315000D02*
X122480000Y-126685000D01*
G75*
G02*
X122345000Y-126820000I-135000J0D01*
G01*
X122075000Y-126820000D01*
G75*
G02*
X121940000Y-126685000I0J135000D01*
G01*
X121940000Y-126315000D01*
G75*
G02*
X122075000Y-126180000I135000J0D01*
G01*
X122345000Y-126180000D01*
G75*
G02*
X122480000Y-126315000I0J-135000D01*
G01*
G37*
%TD*%
%TO.C,R3*%
G36*
G01*
X121460000Y-127315000D02*
X121460000Y-127685000D01*
G75*
G02*
X121325000Y-127820000I-135000J0D01*
G01*
X121055000Y-127820000D01*
G75*
G02*
X120920000Y-127685000I0J135000D01*
G01*
X120920000Y-127315000D01*
G75*
G02*
X121055000Y-127180000I135000J0D01*
G01*
X121325000Y-127180000D01*
G75*
G02*
X121460000Y-127315000I0J-135000D01*
G01*
G37*
G36*
G01*
X122480000Y-127315000D02*
X122480000Y-127685000D01*
G75*
G02*
X122345000Y-127820000I-135000J0D01*
G01*
X122075000Y-127820000D01*
G75*
G02*
X121940000Y-127685000I0J135000D01*
G01*
X121940000Y-127315000D01*
G75*
G02*
X122075000Y-127180000I135000J0D01*
G01*
X122345000Y-127180000D01*
G75*
G02*
X122480000Y-127315000I0J-135000D01*
G01*
G37*
%TD*%
%TO.C,R4*%
G36*
G01*
X126540000Y-127685000D02*
X126540000Y-127315000D01*
G75*
G02*
X126675000Y-127180000I135000J0D01*
G01*
X126945000Y-127180000D01*
G75*
G02*
X127080000Y-127315000I0J-135000D01*
G01*
X127080000Y-127685000D01*
G75*
G02*
X126945000Y-127820000I-135000J0D01*
G01*
X126675000Y-127820000D01*
G75*
G02*
X126540000Y-127685000I0J135000D01*
G01*
G37*
G36*
G01*
X125520000Y-127685000D02*
X125520000Y-127315000D01*
G75*
G02*
X125655000Y-127180000I135000J0D01*
G01*
X125925000Y-127180000D01*
G75*
G02*
X126060000Y-127315000I0J-135000D01*
G01*
X126060000Y-127685000D01*
G75*
G02*
X125925000Y-127820000I-135000J0D01*
G01*
X125655000Y-127820000D01*
G75*
G02*
X125520000Y-127685000I0J135000D01*
G01*
G37*
%TD*%
%TO.C,R5*%
G36*
G01*
X121740000Y-159985000D02*
X121740000Y-159615000D01*
G75*
G02*
X121875000Y-159480000I135000J0D01*
G01*
X122145000Y-159480000D01*
G75*
G02*
X122280000Y-159615000I0J-135000D01*
G01*
X122280000Y-159985000D01*
G75*
G02*
X122145000Y-160120000I-135000J0D01*
G01*
X121875000Y-160120000D01*
G75*
G02*
X121740000Y-159985000I0J135000D01*
G01*
G37*
G36*
G01*
X120720000Y-159985000D02*
X120720000Y-159615000D01*
G75*
G02*
X120855000Y-159480000I135000J0D01*
G01*
X121125000Y-159480000D01*
G75*
G02*
X121260000Y-159615000I0J-135000D01*
G01*
X121260000Y-159985000D01*
G75*
G02*
X121125000Y-160120000I-135000J0D01*
G01*
X120855000Y-160120000D01*
G75*
G02*
X120720000Y-159985000I0J135000D01*
G01*
G37*
%TD*%
%TO.C,R6*%
G36*
G01*
X125260000Y-159615000D02*
X125260000Y-159985000D01*
G75*
G02*
X125125000Y-160120000I-135000J0D01*
G01*
X124855000Y-160120000D01*
G75*
G02*
X124720000Y-159985000I0J135000D01*
G01*
X124720000Y-159615000D01*
G75*
G02*
X124855000Y-159480000I135000J0D01*
G01*
X125125000Y-159480000D01*
G75*
G02*
X125260000Y-159615000I0J-135000D01*
G01*
G37*
G36*
G01*
X126280000Y-159615000D02*
X126280000Y-159985000D01*
G75*
G02*
X126145000Y-160120000I-135000J0D01*
G01*
X125875000Y-160120000D01*
G75*
G02*
X125740000Y-159985000I0J135000D01*
G01*
X125740000Y-159615000D01*
G75*
G02*
X125875000Y-159480000I135000J0D01*
G01*
X126145000Y-159480000D01*
G75*
G02*
X126280000Y-159615000I0J-135000D01*
G01*
G37*
%TD*%
%TO.C,R7*%
G36*
G01*
X129960000Y-159115000D02*
X129960000Y-159485000D01*
G75*
G02*
X129825000Y-159620000I-135000J0D01*
G01*
X129555000Y-159620000D01*
G75*
G02*
X129420000Y-159485000I0J135000D01*
G01*
X129420000Y-159115000D01*
G75*
G02*
X129555000Y-158980000I135000J0D01*
G01*
X129825000Y-158980000D01*
G75*
G02*
X129960000Y-159115000I0J-135000D01*
G01*
G37*
G36*
G01*
X130980000Y-159115000D02*
X130980000Y-159485000D01*
G75*
G02*
X130845000Y-159620000I-135000J0D01*
G01*
X130575000Y-159620000D01*
G75*
G02*
X130440000Y-159485000I0J135000D01*
G01*
X130440000Y-159115000D01*
G75*
G02*
X130575000Y-158980000I135000J0D01*
G01*
X130845000Y-158980000D01*
G75*
G02*
X130980000Y-159115000I0J-135000D01*
G01*
G37*
%TD*%
%TO.C,R8*%
G36*
G01*
X128010000Y-159215000D02*
X128010000Y-159585000D01*
G75*
G02*
X127875000Y-159720000I-135000J0D01*
G01*
X127605000Y-159720000D01*
G75*
G02*
X127470000Y-159585000I0J135000D01*
G01*
X127470000Y-159215000D01*
G75*
G02*
X127605000Y-159080000I135000J0D01*
G01*
X127875000Y-159080000D01*
G75*
G02*
X128010000Y-159215000I0J-135000D01*
G01*
G37*
G36*
G01*
X129030000Y-159215000D02*
X129030000Y-159585000D01*
G75*
G02*
X128895000Y-159720000I-135000J0D01*
G01*
X128625000Y-159720000D01*
G75*
G02*
X128490000Y-159585000I0J135000D01*
G01*
X128490000Y-159215000D01*
G75*
G02*
X128625000Y-159080000I135000J0D01*
G01*
X128895000Y-159080000D01*
G75*
G02*
X129030000Y-159215000I0J-135000D01*
G01*
G37*
%TD*%
%TO.C,R9*%
G36*
G01*
X118760000Y-125415000D02*
X118760000Y-125785000D01*
G75*
G02*
X118625000Y-125920000I-135000J0D01*
G01*
X118355000Y-125920000D01*
G75*
G02*
X118220000Y-125785000I0J135000D01*
G01*
X118220000Y-125415000D01*
G75*
G02*
X118355000Y-125280000I135000J0D01*
G01*
X118625000Y-125280000D01*
G75*
G02*
X118760000Y-125415000I0J-135000D01*
G01*
G37*
G36*
G01*
X119780000Y-125415000D02*
X119780000Y-125785000D01*
G75*
G02*
X119645000Y-125920000I-135000J0D01*
G01*
X119375000Y-125920000D01*
G75*
G02*
X119240000Y-125785000I0J135000D01*
G01*
X119240000Y-125415000D01*
G75*
G02*
X119375000Y-125280000I135000J0D01*
G01*
X119645000Y-125280000D01*
G75*
G02*
X119780000Y-125415000I0J-135000D01*
G01*
G37*
%TD*%
%TO.C,R10*%
G36*
G01*
X128685000Y-154860000D02*
X128315000Y-154860000D01*
G75*
G02*
X128180000Y-154725000I0J135000D01*
G01*
X128180000Y-154455000D01*
G75*
G02*
X128315000Y-154320000I135000J0D01*
G01*
X128685000Y-154320000D01*
G75*
G02*
X128820000Y-154455000I0J-135000D01*
G01*
X128820000Y-154725000D01*
G75*
G02*
X128685000Y-154860000I-135000J0D01*
G01*
G37*
G36*
G01*
X128685000Y-155880000D02*
X128315000Y-155880000D01*
G75*
G02*
X128180000Y-155745000I0J135000D01*
G01*
X128180000Y-155475000D01*
G75*
G02*
X128315000Y-155340000I135000J0D01*
G01*
X128685000Y-155340000D01*
G75*
G02*
X128820000Y-155475000I0J-135000D01*
G01*
X128820000Y-155745000D01*
G75*
G02*
X128685000Y-155880000I-135000J0D01*
G01*
G37*
%TD*%
%TO.C,R11*%
G36*
G01*
X127315000Y-155040000D02*
X127685000Y-155040000D01*
G75*
G02*
X127820000Y-155175000I0J-135000D01*
G01*
X127820000Y-155445000D01*
G75*
G02*
X127685000Y-155580000I-135000J0D01*
G01*
X127315000Y-155580000D01*
G75*
G02*
X127180000Y-155445000I0J135000D01*
G01*
X127180000Y-155175000D01*
G75*
G02*
X127315000Y-155040000I135000J0D01*
G01*
G37*
G36*
G01*
X127315000Y-154020000D02*
X127685000Y-154020000D01*
G75*
G02*
X127820000Y-154155000I0J-135000D01*
G01*
X127820000Y-154425000D01*
G75*
G02*
X127685000Y-154560000I-135000J0D01*
G01*
X127315000Y-154560000D01*
G75*
G02*
X127180000Y-154425000I0J135000D01*
G01*
X127180000Y-154155000D01*
G75*
G02*
X127315000Y-154020000I135000J0D01*
G01*
G37*
%TD*%
%TO.C,R12*%
G36*
G01*
X128485000Y-140660000D02*
X128115000Y-140660000D01*
G75*
G02*
X127980000Y-140525000I0J135000D01*
G01*
X127980000Y-140255000D01*
G75*
G02*
X128115000Y-140120000I135000J0D01*
G01*
X128485000Y-140120000D01*
G75*
G02*
X128620000Y-140255000I0J-135000D01*
G01*
X128620000Y-140525000D01*
G75*
G02*
X128485000Y-140660000I-135000J0D01*
G01*
G37*
G36*
G01*
X128485000Y-141680000D02*
X128115000Y-141680000D01*
G75*
G02*
X127980000Y-141545000I0J135000D01*
G01*
X127980000Y-141275000D01*
G75*
G02*
X128115000Y-141140000I135000J0D01*
G01*
X128485000Y-141140000D01*
G75*
G02*
X128620000Y-141275000I0J-135000D01*
G01*
X128620000Y-141545000D01*
G75*
G02*
X128485000Y-141680000I-135000J0D01*
G01*
G37*
%TD*%
%TO.C,R13*%
G36*
G01*
X127560000Y-139215000D02*
X127560000Y-139585000D01*
G75*
G02*
X127425000Y-139720000I-135000J0D01*
G01*
X127155000Y-139720000D01*
G75*
G02*
X127020000Y-139585000I0J135000D01*
G01*
X127020000Y-139215000D01*
G75*
G02*
X127155000Y-139080000I135000J0D01*
G01*
X127425000Y-139080000D01*
G75*
G02*
X127560000Y-139215000I0J-135000D01*
G01*
G37*
G36*
G01*
X128580000Y-139215000D02*
X128580000Y-139585000D01*
G75*
G02*
X128445000Y-139720000I-135000J0D01*
G01*
X128175000Y-139720000D01*
G75*
G02*
X128040000Y-139585000I0J135000D01*
G01*
X128040000Y-139215000D01*
G75*
G02*
X128175000Y-139080000I135000J0D01*
G01*
X128445000Y-139080000D01*
G75*
G02*
X128580000Y-139215000I0J-135000D01*
G01*
G37*
%TD*%
%TO.C,R14*%
G36*
G01*
X125560000Y-139215000D02*
X125560000Y-139585000D01*
G75*
G02*
X125425000Y-139720000I-135000J0D01*
G01*
X125155000Y-139720000D01*
G75*
G02*
X125020000Y-139585000I0J135000D01*
G01*
X125020000Y-139215000D01*
G75*
G02*
X125155000Y-139080000I135000J0D01*
G01*
X125425000Y-139080000D01*
G75*
G02*
X125560000Y-139215000I0J-135000D01*
G01*
G37*
G36*
G01*
X126580000Y-139215000D02*
X126580000Y-139585000D01*
G75*
G02*
X126445000Y-139720000I-135000J0D01*
G01*
X126175000Y-139720000D01*
G75*
G02*
X126040000Y-139585000I0J135000D01*
G01*
X126040000Y-139215000D01*
G75*
G02*
X126175000Y-139080000I135000J0D01*
G01*
X126445000Y-139080000D01*
G75*
G02*
X126580000Y-139215000I0J-135000D01*
G01*
G37*
%TD*%
%TO.C,R15*%
G36*
G01*
X130815000Y-148240000D02*
X131185000Y-148240000D01*
G75*
G02*
X131320000Y-148375000I0J-135000D01*
G01*
X131320000Y-148645000D01*
G75*
G02*
X131185000Y-148780000I-135000J0D01*
G01*
X130815000Y-148780000D01*
G75*
G02*
X130680000Y-148645000I0J135000D01*
G01*
X130680000Y-148375000D01*
G75*
G02*
X130815000Y-148240000I135000J0D01*
G01*
G37*
G36*
G01*
X130815000Y-147220000D02*
X131185000Y-147220000D01*
G75*
G02*
X131320000Y-147355000I0J-135000D01*
G01*
X131320000Y-147625000D01*
G75*
G02*
X131185000Y-147760000I-135000J0D01*
G01*
X130815000Y-147760000D01*
G75*
G02*
X130680000Y-147625000I0J135000D01*
G01*
X130680000Y-147355000D01*
G75*
G02*
X130815000Y-147220000I135000J0D01*
G01*
G37*
%TD*%
%TO.C,R16*%
G36*
G01*
X130815000Y-130240000D02*
X131185000Y-130240000D01*
G75*
G02*
X131320000Y-130375000I0J-135000D01*
G01*
X131320000Y-130645000D01*
G75*
G02*
X131185000Y-130780000I-135000J0D01*
G01*
X130815000Y-130780000D01*
G75*
G02*
X130680000Y-130645000I0J135000D01*
G01*
X130680000Y-130375000D01*
G75*
G02*
X130815000Y-130240000I135000J0D01*
G01*
G37*
G36*
G01*
X130815000Y-129220000D02*
X131185000Y-129220000D01*
G75*
G02*
X131320000Y-129355000I0J-135000D01*
G01*
X131320000Y-129625000D01*
G75*
G02*
X131185000Y-129760000I-135000J0D01*
G01*
X130815000Y-129760000D01*
G75*
G02*
X130680000Y-129625000I0J135000D01*
G01*
X130680000Y-129355000D01*
G75*
G02*
X130815000Y-129220000I135000J0D01*
G01*
G37*
%TD*%
%TO.C,R17*%
G36*
G01*
X116060000Y-145215000D02*
X116060000Y-145585000D01*
G75*
G02*
X115925000Y-145720000I-135000J0D01*
G01*
X115655000Y-145720000D01*
G75*
G02*
X115520000Y-145585000I0J135000D01*
G01*
X115520000Y-145215000D01*
G75*
G02*
X115655000Y-145080000I135000J0D01*
G01*
X115925000Y-145080000D01*
G75*
G02*
X116060000Y-145215000I0J-135000D01*
G01*
G37*
G36*
G01*
X117080000Y-145215000D02*
X117080000Y-145585000D01*
G75*
G02*
X116945000Y-145720000I-135000J0D01*
G01*
X116675000Y-145720000D01*
G75*
G02*
X116540000Y-145585000I0J135000D01*
G01*
X116540000Y-145215000D01*
G75*
G02*
X116675000Y-145080000I135000J0D01*
G01*
X116945000Y-145080000D01*
G75*
G02*
X117080000Y-145215000I0J-135000D01*
G01*
G37*
%TD*%
%TO.C,R18*%
G36*
G01*
X116185000Y-129760000D02*
X115815000Y-129760000D01*
G75*
G02*
X115680000Y-129625000I0J135000D01*
G01*
X115680000Y-129355000D01*
G75*
G02*
X115815000Y-129220000I135000J0D01*
G01*
X116185000Y-129220000D01*
G75*
G02*
X116320000Y-129355000I0J-135000D01*
G01*
X116320000Y-129625000D01*
G75*
G02*
X116185000Y-129760000I-135000J0D01*
G01*
G37*
G36*
G01*
X116185000Y-130780000D02*
X115815000Y-130780000D01*
G75*
G02*
X115680000Y-130645000I0J135000D01*
G01*
X115680000Y-130375000D01*
G75*
G02*
X115815000Y-130240000I135000J0D01*
G01*
X116185000Y-130240000D01*
G75*
G02*
X116320000Y-130375000I0J-135000D01*
G01*
X116320000Y-130645000D01*
G75*
G02*
X116185000Y-130780000I-135000J0D01*
G01*
G37*
%TD*%
%TO.C,R19*%
G36*
G01*
X131315000Y-141250000D02*
X131685000Y-141250000D01*
G75*
G02*
X131820000Y-141385000I0J-135000D01*
G01*
X131820000Y-141655000D01*
G75*
G02*
X131685000Y-141790000I-135000J0D01*
G01*
X131315000Y-141790000D01*
G75*
G02*
X131180000Y-141655000I0J135000D01*
G01*
X131180000Y-141385000D01*
G75*
G02*
X131315000Y-141250000I135000J0D01*
G01*
G37*
G36*
G01*
X131315000Y-140230000D02*
X131685000Y-140230000D01*
G75*
G02*
X131820000Y-140365000I0J-135000D01*
G01*
X131820000Y-140635000D01*
G75*
G02*
X131685000Y-140770000I-135000J0D01*
G01*
X131315000Y-140770000D01*
G75*
G02*
X131180000Y-140635000I0J135000D01*
G01*
X131180000Y-140365000D01*
G75*
G02*
X131315000Y-140230000I135000J0D01*
G01*
G37*
%TD*%
%TO.C,R20*%
G36*
G01*
X131315000Y-137240000D02*
X131685000Y-137240000D01*
G75*
G02*
X131820000Y-137375000I0J-135000D01*
G01*
X131820000Y-137645000D01*
G75*
G02*
X131685000Y-137780000I-135000J0D01*
G01*
X131315000Y-137780000D01*
G75*
G02*
X131180000Y-137645000I0J135000D01*
G01*
X131180000Y-137375000D01*
G75*
G02*
X131315000Y-137240000I135000J0D01*
G01*
G37*
G36*
G01*
X131315000Y-136220000D02*
X131685000Y-136220000D01*
G75*
G02*
X131820000Y-136355000I0J-135000D01*
G01*
X131820000Y-136625000D01*
G75*
G02*
X131685000Y-136760000I-135000J0D01*
G01*
X131315000Y-136760000D01*
G75*
G02*
X131180000Y-136625000I0J135000D01*
G01*
X131180000Y-136355000D01*
G75*
G02*
X131315000Y-136220000I135000J0D01*
G01*
G37*
%TD*%
%TO.C,R21*%
G36*
G01*
X115315000Y-141240000D02*
X115685000Y-141240000D01*
G75*
G02*
X115820000Y-141375000I0J-135000D01*
G01*
X115820000Y-141645000D01*
G75*
G02*
X115685000Y-141780000I-135000J0D01*
G01*
X115315000Y-141780000D01*
G75*
G02*
X115180000Y-141645000I0J135000D01*
G01*
X115180000Y-141375000D01*
G75*
G02*
X115315000Y-141240000I135000J0D01*
G01*
G37*
G36*
G01*
X115315000Y-140220000D02*
X115685000Y-140220000D01*
G75*
G02*
X115820000Y-140355000I0J-135000D01*
G01*
X115820000Y-140625000D01*
G75*
G02*
X115685000Y-140760000I-135000J0D01*
G01*
X115315000Y-140760000D01*
G75*
G02*
X115180000Y-140625000I0J135000D01*
G01*
X115180000Y-140355000D01*
G75*
G02*
X115315000Y-140220000I135000J0D01*
G01*
G37*
%TD*%
%TO.C,R22*%
G36*
G01*
X115315000Y-137230000D02*
X115685000Y-137230000D01*
G75*
G02*
X115820000Y-137365000I0J-135000D01*
G01*
X115820000Y-137635000D01*
G75*
G02*
X115685000Y-137770000I-135000J0D01*
G01*
X115315000Y-137770000D01*
G75*
G02*
X115180000Y-137635000I0J135000D01*
G01*
X115180000Y-137365000D01*
G75*
G02*
X115315000Y-137230000I135000J0D01*
G01*
G37*
G36*
G01*
X115315000Y-136210000D02*
X115685000Y-136210000D01*
G75*
G02*
X115820000Y-136345000I0J-135000D01*
G01*
X115820000Y-136615000D01*
G75*
G02*
X115685000Y-136750000I-135000J0D01*
G01*
X115315000Y-136750000D01*
G75*
G02*
X115180000Y-136615000I0J135000D01*
G01*
X115180000Y-136345000D01*
G75*
G02*
X115315000Y-136210000I135000J0D01*
G01*
G37*
%TD*%
%TO.C,R23*%
G36*
G01*
X116240000Y-155685000D02*
X116240000Y-155315000D01*
G75*
G02*
X116375000Y-155180000I135000J0D01*
G01*
X116645000Y-155180000D01*
G75*
G02*
X116780000Y-155315000I0J-135000D01*
G01*
X116780000Y-155685000D01*
G75*
G02*
X116645000Y-155820000I-135000J0D01*
G01*
X116375000Y-155820000D01*
G75*
G02*
X116240000Y-155685000I0J135000D01*
G01*
G37*
G36*
G01*
X115220000Y-155685000D02*
X115220000Y-155315000D01*
G75*
G02*
X115355000Y-155180000I135000J0D01*
G01*
X115625000Y-155180000D01*
G75*
G02*
X115760000Y-155315000I0J-135000D01*
G01*
X115760000Y-155685000D01*
G75*
G02*
X115625000Y-155820000I-135000J0D01*
G01*
X115355000Y-155820000D01*
G75*
G02*
X115220000Y-155685000I0J135000D01*
G01*
G37*
%TD*%
%TO.C,R24*%
G36*
G01*
X115760000Y-156315000D02*
X115760000Y-156685000D01*
G75*
G02*
X115625000Y-156820000I-135000J0D01*
G01*
X115355000Y-156820000D01*
G75*
G02*
X115220000Y-156685000I0J135000D01*
G01*
X115220000Y-156315000D01*
G75*
G02*
X115355000Y-156180000I135000J0D01*
G01*
X115625000Y-156180000D01*
G75*
G02*
X115760000Y-156315000I0J-135000D01*
G01*
G37*
G36*
G01*
X116780000Y-156315000D02*
X116780000Y-156685000D01*
G75*
G02*
X116645000Y-156820000I-135000J0D01*
G01*
X116375000Y-156820000D01*
G75*
G02*
X116240000Y-156685000I0J135000D01*
G01*
X116240000Y-156315000D01*
G75*
G02*
X116375000Y-156180000I135000J0D01*
G01*
X116645000Y-156180000D01*
G75*
G02*
X116780000Y-156315000I0J-135000D01*
G01*
G37*
%TD*%
D16*
%TO.C,SW1*%
X135775000Y-163875000D03*
X137225000Y-163875000D03*
X132775000Y-163875000D03*
D17*
X131200000Y-164850000D03*
X131200000Y-167150000D03*
X138800000Y-164850000D03*
X138800000Y-167150000D03*
%TD*%
D18*
%TO.C,SW2*%
X133695000Y-140270000D03*
X142305000Y-137730000D03*
X133695000Y-137730000D03*
X142305000Y-140270000D03*
%TD*%
%TO.C,SW3*%
X113305000Y-137730000D03*
X104695000Y-140270000D03*
X113305000Y-140270000D03*
X104695000Y-137730000D03*
%TD*%
%TO.C,TH1*%
G36*
G01*
X131115000Y-161240000D02*
X131485000Y-161240000D01*
G75*
G02*
X131620000Y-161375000I0J-135000D01*
G01*
X131620000Y-161645000D01*
G75*
G02*
X131485000Y-161780000I-135000J0D01*
G01*
X131115000Y-161780000D01*
G75*
G02*
X130980000Y-161645000I0J135000D01*
G01*
X130980000Y-161375000D01*
G75*
G02*
X131115000Y-161240000I135000J0D01*
G01*
G37*
G36*
G01*
X131115000Y-160220000D02*
X131485000Y-160220000D01*
G75*
G02*
X131620000Y-160355000I0J-135000D01*
G01*
X131620000Y-160625000D01*
G75*
G02*
X131485000Y-160760000I-135000J0D01*
G01*
X131115000Y-160760000D01*
G75*
G02*
X130980000Y-160625000I0J135000D01*
G01*
X130980000Y-160355000D01*
G75*
G02*
X131115000Y-160220000I135000J0D01*
G01*
G37*
%TD*%
D19*
%TO.C,U2*%
X130500000Y-156800000D03*
X130500000Y-158200000D03*
X130000000Y-156800000D03*
X130000000Y-158200000D03*
X129500000Y-156800000D03*
X129500000Y-158200000D03*
X129000000Y-156800000D03*
X129000000Y-158200000D03*
X128500000Y-156800000D03*
X128500000Y-158200000D03*
%TD*%
D20*
%TO.C,U3*%
G36*
X125266500Y-146700000D02*
G01*
X125266500Y-149825000D01*
X124850000Y-149825000D01*
X124850000Y-151300000D01*
X123950000Y-151300000D01*
X123950000Y-149825000D01*
X123533500Y-149825000D01*
X123533500Y-146700000D01*
X125266500Y-146700000D01*
G37*
D21*
X125900000Y-150650000D03*
X122900000Y-150650000D03*
%TD*%
D22*
%TO.C,U4*%
X125000000Y-141700000D03*
X127000000Y-140750000D03*
X127000000Y-142650000D03*
%TD*%
%TO.C,U5*%
G36*
G01*
X122055000Y-143700000D02*
X122355000Y-143700000D01*
G75*
G02*
X122505000Y-143850000I0J-150000D01*
G01*
X122505000Y-145200000D01*
G75*
G02*
X122355000Y-145350000I-150000J0D01*
G01*
X122055000Y-145350000D01*
G75*
G02*
X121905000Y-145200000I0J150000D01*
G01*
X121905000Y-143850000D01*
G75*
G02*
X122055000Y-143700000I150000J0D01*
G01*
G37*
G36*
G01*
X120785000Y-143700000D02*
X121085000Y-143700000D01*
G75*
G02*
X121235000Y-143850000I0J-150000D01*
G01*
X121235000Y-145200000D01*
G75*
G02*
X121085000Y-145350000I-150000J0D01*
G01*
X120785000Y-145350000D01*
G75*
G02*
X120635000Y-145200000I0J150000D01*
G01*
X120635000Y-143850000D01*
G75*
G02*
X120785000Y-143700000I150000J0D01*
G01*
G37*
G36*
G01*
X119515000Y-143700000D02*
X119815000Y-143700000D01*
G75*
G02*
X119965000Y-143850000I0J-150000D01*
G01*
X119965000Y-145200000D01*
G75*
G02*
X119815000Y-145350000I-150000J0D01*
G01*
X119515000Y-145350000D01*
G75*
G02*
X119365000Y-145200000I0J150000D01*
G01*
X119365000Y-143850000D01*
G75*
G02*
X119515000Y-143700000I150000J0D01*
G01*
G37*
G36*
G01*
X118245000Y-143700000D02*
X118545000Y-143700000D01*
G75*
G02*
X118695000Y-143850000I0J-150000D01*
G01*
X118695000Y-145200000D01*
G75*
G02*
X118545000Y-145350000I-150000J0D01*
G01*
X118245000Y-145350000D01*
G75*
G02*
X118095000Y-145200000I0J150000D01*
G01*
X118095000Y-143850000D01*
G75*
G02*
X118245000Y-143700000I150000J0D01*
G01*
G37*
G36*
G01*
X118245000Y-138450000D02*
X118545000Y-138450000D01*
G75*
G02*
X118695000Y-138600000I0J-150000D01*
G01*
X118695000Y-139950000D01*
G75*
G02*
X118545000Y-140100000I-150000J0D01*
G01*
X118245000Y-140100000D01*
G75*
G02*
X118095000Y-139950000I0J150000D01*
G01*
X118095000Y-138600000D01*
G75*
G02*
X118245000Y-138450000I150000J0D01*
G01*
G37*
G36*
G01*
X119515000Y-138450000D02*
X119815000Y-138450000D01*
G75*
G02*
X119965000Y-138600000I0J-150000D01*
G01*
X119965000Y-139950000D01*
G75*
G02*
X119815000Y-140100000I-150000J0D01*
G01*
X119515000Y-140100000D01*
G75*
G02*
X119365000Y-139950000I0J150000D01*
G01*
X119365000Y-138600000D01*
G75*
G02*
X119515000Y-138450000I150000J0D01*
G01*
G37*
G36*
G01*
X120785000Y-138450000D02*
X121085000Y-138450000D01*
G75*
G02*
X121235000Y-138600000I0J-150000D01*
G01*
X121235000Y-139950000D01*
G75*
G02*
X121085000Y-140100000I-150000J0D01*
G01*
X120785000Y-140100000D01*
G75*
G02*
X120635000Y-139950000I0J150000D01*
G01*
X120635000Y-138600000D01*
G75*
G02*
X120785000Y-138450000I150000J0D01*
G01*
G37*
G36*
G01*
X122055000Y-138450000D02*
X122355000Y-138450000D01*
G75*
G02*
X122505000Y-138600000I0J-150000D01*
G01*
X122505000Y-139950000D01*
G75*
G02*
X122355000Y-140100000I-150000J0D01*
G01*
X122055000Y-140100000D01*
G75*
G02*
X121905000Y-139950000I0J150000D01*
G01*
X121905000Y-138600000D01*
G75*
G02*
X122055000Y-138450000I150000J0D01*
G01*
G37*
%TD*%
%TO.C,C11*%
G36*
G01*
X131670000Y-134500000D02*
X131330000Y-134500000D01*
G75*
G02*
X131190000Y-134360000I0J140000D01*
G01*
X131190000Y-134080000D01*
G75*
G02*
X131330000Y-133940000I140000J0D01*
G01*
X131670000Y-133940000D01*
G75*
G02*
X131810000Y-134080000I0J-140000D01*
G01*
X131810000Y-134360000D01*
G75*
G02*
X131670000Y-134500000I-140000J0D01*
G01*
G37*
G36*
G01*
X131670000Y-135460000D02*
X131330000Y-135460000D01*
G75*
G02*
X131190000Y-135320000I0J140000D01*
G01*
X131190000Y-135040000D01*
G75*
G02*
X131330000Y-134900000I140000J0D01*
G01*
X131670000Y-134900000D01*
G75*
G02*
X131810000Y-135040000I0J-140000D01*
G01*
X131810000Y-135320000D01*
G75*
G02*
X131670000Y-135460000I-140000J0D01*
G01*
G37*
%TD*%
%TO.C,C12*%
G36*
G01*
X117630000Y-147200000D02*
X117970000Y-147200000D01*
G75*
G02*
X118110000Y-147340000I0J-140000D01*
G01*
X118110000Y-147620000D01*
G75*
G02*
X117970000Y-147760000I-140000J0D01*
G01*
X117630000Y-147760000D01*
G75*
G02*
X117490000Y-147620000I0J140000D01*
G01*
X117490000Y-147340000D01*
G75*
G02*
X117630000Y-147200000I140000J0D01*
G01*
G37*
G36*
G01*
X117630000Y-146240000D02*
X117970000Y-146240000D01*
G75*
G02*
X118110000Y-146380000I0J-140000D01*
G01*
X118110000Y-146660000D01*
G75*
G02*
X117970000Y-146800000I-140000J0D01*
G01*
X117630000Y-146800000D01*
G75*
G02*
X117490000Y-146660000I0J140000D01*
G01*
X117490000Y-146380000D01*
G75*
G02*
X117630000Y-146240000I140000J0D01*
G01*
G37*
%TD*%
%TO.C,C13*%
G36*
G01*
X119875000Y-146150000D02*
X119875000Y-146650000D01*
G75*
G02*
X119650000Y-146875000I-225000J0D01*
G01*
X119200000Y-146875000D01*
G75*
G02*
X118975000Y-146650000I0J225000D01*
G01*
X118975000Y-146150000D01*
G75*
G02*
X119200000Y-145925000I225000J0D01*
G01*
X119650000Y-145925000D01*
G75*
G02*
X119875000Y-146150000I0J-225000D01*
G01*
G37*
G36*
G01*
X121425000Y-146150000D02*
X121425000Y-146650000D01*
G75*
G02*
X121200000Y-146875000I-225000J0D01*
G01*
X120750000Y-146875000D01*
G75*
G02*
X120525000Y-146650000I0J225000D01*
G01*
X120525000Y-146150000D01*
G75*
G02*
X120750000Y-145925000I225000J0D01*
G01*
X121200000Y-145925000D01*
G75*
G02*
X121425000Y-146150000I0J-225000D01*
G01*
G37*
%TD*%
D23*
%TO.C,D2*%
X130100000Y-145950000D03*
X130100000Y-146650000D03*
%TD*%
%TO.C,D3*%
X130000000Y-130350000D03*
X130000000Y-129650000D03*
%TD*%
D24*
%TO.C,D4*%
X115950000Y-144400000D03*
X116650000Y-144400000D03*
%TD*%
D23*
%TO.C,D5*%
X117000000Y-129650000D03*
X117000000Y-130350000D03*
%TD*%
M02*
