%TF.GenerationSoftware,KiCad,Pcbnew,(5.1.8)-1*%
%TF.CreationDate,2021-07-06T20:41:50+01:00*%
%TF.ProjectId,ESP32-S2-PowerMeter,45535033-322d-4533-922d-506f7765724d,rev?*%
%TF.SameCoordinates,Original*%
%TF.FileFunction,Legend,Top*%
%TF.FilePolarity,Positive*%
%FSLAX46Y46*%
G04 Gerber Fmt 4.6, Leading zero omitted, Abs format (unit mm)*
G04 Created by KiCad (PCBNEW (5.1.8)-1) date 2021-07-06 20:41:50*
%MOMM*%
%LPD*%
G01*
G04 APERTURE LIST*
%ADD10C,0.300000*%
%ADD11C,0.120000*%
%ADD12C,0.150000*%
%ADD13C,0.100000*%
G04 APERTURE END LIST*
D10*
X142428571Y-162607142D02*
X143571428Y-162607142D01*
X142428571Y-153607142D02*
X143571428Y-153607142D01*
X143000000Y-154178571D02*
X143000000Y-153035714D01*
D11*
%TO.C,C1*%
X128959420Y-160190000D02*
X129240580Y-160190000D01*
X128959420Y-161210000D02*
X129240580Y-161210000D01*
%TO.C,C2*%
X131490000Y-158140580D02*
X131490000Y-157859420D01*
X132510000Y-158140580D02*
X132510000Y-157859420D01*
%TO.C,C3*%
X132660000Y-160892164D02*
X132660000Y-161107836D01*
X131940000Y-160892164D02*
X131940000Y-161107836D01*
%TO.C,C4*%
X117107836Y-125960000D02*
X116892164Y-125960000D01*
X117107836Y-125240000D02*
X116892164Y-125240000D01*
%TO.C,C5*%
X121335000Y-151100000D02*
X121335000Y-147190000D01*
X121335000Y-147190000D02*
X119465000Y-147190000D01*
X119465000Y-147190000D02*
X119465000Y-151100000D01*
%TO.C,C6*%
X129335000Y-151100000D02*
X129335000Y-147190000D01*
X129335000Y-147190000D02*
X127465000Y-147190000D01*
X127465000Y-147190000D02*
X127465000Y-151100000D01*
%TO.C,C7*%
X128540000Y-131207836D02*
X128540000Y-130992164D01*
X129260000Y-131207836D02*
X129260000Y-130992164D01*
%TO.C,C8*%
X129207836Y-129060000D02*
X128992164Y-129060000D01*
X129207836Y-128340000D02*
X128992164Y-128340000D01*
%TO.C,C9*%
X128640000Y-135707836D02*
X128640000Y-135492164D01*
X129360000Y-135707836D02*
X129360000Y-135492164D01*
%TO.C,C10*%
X129360000Y-133592164D02*
X129360000Y-133807836D01*
X128640000Y-133592164D02*
X128640000Y-133807836D01*
%TO.C,D1*%
X125511803Y-125400000D02*
G75*
G03*
X125511803Y-125400000I-111803J0D01*
G01*
X124200000Y-125600000D02*
X125200000Y-125600000D01*
X125200000Y-125600000D02*
X125200000Y-126600000D01*
X123400000Y-129050000D02*
X123400000Y-128550000D01*
X123150000Y-128800000D02*
X123650000Y-128800000D01*
%TO.C,J2*%
X138940000Y-162060000D02*
X134690000Y-162060000D01*
X134690000Y-162060000D02*
X134690000Y-161040000D01*
X134690000Y-161040000D02*
X136290000Y-161040000D01*
X136290000Y-161040000D02*
X136290000Y-159760000D01*
X136290000Y-159760000D02*
X133400000Y-159760000D01*
X138940000Y-153940000D02*
X134690000Y-153940000D01*
X134690000Y-153940000D02*
X134690000Y-154960000D01*
X134690000Y-154960000D02*
X136290000Y-154960000D01*
X136290000Y-154960000D02*
X136290000Y-156240000D01*
X142510000Y-160340000D02*
X142510000Y-155660000D01*
%TO.C,J3*%
X144000000Y-150800000D02*
X144000000Y-151200000D01*
X144000000Y-144800000D02*
X144000000Y-145200000D01*
X132000000Y-144800000D02*
X144000000Y-144800000D01*
X144000000Y-151200000D02*
X132000000Y-151200000D01*
X146000000Y-145200000D02*
X144000000Y-145200000D01*
X146000000Y-150800000D02*
X146000000Y-145200000D01*
X144000000Y-150800000D02*
X146000000Y-150800000D01*
X132000000Y-151200000D02*
X132000000Y-144800000D01*
%TO.C,J4*%
X144000000Y-132800000D02*
X144000000Y-133200000D01*
X144000000Y-126800000D02*
X144000000Y-127200000D01*
X132000000Y-126800000D02*
X144000000Y-126800000D01*
X144000000Y-133200000D02*
X132000000Y-133200000D01*
X146000000Y-127200000D02*
X144000000Y-127200000D01*
X146000000Y-132800000D02*
X146000000Y-127200000D01*
X144000000Y-132800000D02*
X146000000Y-132800000D01*
X132000000Y-133200000D02*
X132000000Y-126800000D01*
%TO.C,J5*%
X103000000Y-145200000D02*
X103000000Y-144800000D01*
X103000000Y-151200000D02*
X103000000Y-150800000D01*
X115000000Y-151200000D02*
X103000000Y-151200000D01*
X103000000Y-144800000D02*
X115000000Y-144800000D01*
X101000000Y-150800000D02*
X103000000Y-150800000D01*
X101000000Y-145200000D02*
X101000000Y-150800000D01*
X103000000Y-145200000D02*
X101000000Y-145200000D01*
X115000000Y-144800000D02*
X115000000Y-151200000D01*
%TO.C,J6*%
X103000000Y-127200000D02*
X103000000Y-126800000D01*
X103000000Y-133200000D02*
X103000000Y-132800000D01*
X115000000Y-133200000D02*
X103000000Y-133200000D01*
X103000000Y-126800000D02*
X115000000Y-126800000D01*
X101000000Y-132800000D02*
X103000000Y-132800000D01*
X101000000Y-127200000D02*
X101000000Y-132800000D01*
X103000000Y-127200000D02*
X101000000Y-127200000D01*
X115000000Y-126800000D02*
X115000000Y-133200000D01*
%TO.C,R1*%
X126146359Y-126120000D02*
X126453641Y-126120000D01*
X126146359Y-126880000D02*
X126453641Y-126880000D01*
%TO.C,R2*%
X121853641Y-126880000D02*
X121546359Y-126880000D01*
X121853641Y-126120000D02*
X121546359Y-126120000D01*
%TO.C,R3*%
X121853641Y-127880000D02*
X121546359Y-127880000D01*
X121853641Y-127120000D02*
X121546359Y-127120000D01*
%TO.C,R4*%
X126146359Y-127120000D02*
X126453641Y-127120000D01*
X126146359Y-127880000D02*
X126453641Y-127880000D01*
%TO.C,R5*%
X121346359Y-159420000D02*
X121653641Y-159420000D01*
X121346359Y-160180000D02*
X121653641Y-160180000D01*
%TO.C,R6*%
X125653641Y-160180000D02*
X125346359Y-160180000D01*
X125653641Y-159420000D02*
X125346359Y-159420000D01*
%TO.C,R7*%
X130353641Y-159680000D02*
X130046359Y-159680000D01*
X130353641Y-158920000D02*
X130046359Y-158920000D01*
%TO.C,R8*%
X128403641Y-159780000D02*
X128096359Y-159780000D01*
X128403641Y-159020000D02*
X128096359Y-159020000D01*
%TO.C,R9*%
X119153641Y-125980000D02*
X118846359Y-125980000D01*
X119153641Y-125220000D02*
X118846359Y-125220000D01*
%TO.C,R10*%
X128120000Y-155253641D02*
X128120000Y-154946359D01*
X128880000Y-155253641D02*
X128880000Y-154946359D01*
%TO.C,R11*%
X127880000Y-154646359D02*
X127880000Y-154953641D01*
X127120000Y-154646359D02*
X127120000Y-154953641D01*
%TO.C,R12*%
X127920000Y-141053641D02*
X127920000Y-140746359D01*
X128680000Y-141053641D02*
X128680000Y-140746359D01*
%TO.C,R13*%
X127953641Y-139780000D02*
X127646359Y-139780000D01*
X127953641Y-139020000D02*
X127646359Y-139020000D01*
%TO.C,R14*%
X125953641Y-139780000D02*
X125646359Y-139780000D01*
X125953641Y-139020000D02*
X125646359Y-139020000D01*
%TO.C,R15*%
X131380000Y-147846359D02*
X131380000Y-148153641D01*
X130620000Y-147846359D02*
X130620000Y-148153641D01*
%TO.C,R16*%
X131380000Y-129846359D02*
X131380000Y-130153641D01*
X130620000Y-129846359D02*
X130620000Y-130153641D01*
%TO.C,R17*%
X116453641Y-145780000D02*
X116146359Y-145780000D01*
X116453641Y-145020000D02*
X116146359Y-145020000D01*
%TO.C,R18*%
X115620000Y-130153641D02*
X115620000Y-129846359D01*
X116380000Y-130153641D02*
X116380000Y-129846359D01*
%TO.C,R19*%
X131880000Y-140856359D02*
X131880000Y-141163641D01*
X131120000Y-140856359D02*
X131120000Y-141163641D01*
%TO.C,R20*%
X131880000Y-136846359D02*
X131880000Y-137153641D01*
X131120000Y-136846359D02*
X131120000Y-137153641D01*
%TO.C,R21*%
X115880000Y-140846359D02*
X115880000Y-141153641D01*
X115120000Y-140846359D02*
X115120000Y-141153641D01*
%TO.C,R22*%
X115880000Y-136836359D02*
X115880000Y-137143641D01*
X115120000Y-136836359D02*
X115120000Y-137143641D01*
%TO.C,R23*%
X115846359Y-155120000D02*
X116153641Y-155120000D01*
X115846359Y-155880000D02*
X116153641Y-155880000D01*
%TO.C,R24*%
X116153641Y-156880000D02*
X115846359Y-156880000D01*
X116153641Y-156120000D02*
X115846359Y-156120000D01*
%TO.C,SW2*%
X141410000Y-142380000D02*
X134590000Y-142380000D01*
X141410000Y-135620000D02*
X134590000Y-135620000D01*
X141410000Y-142380000D02*
X141410000Y-141070000D01*
X141410000Y-139470000D02*
X141410000Y-138530000D01*
X141410000Y-136930000D02*
X141410000Y-135620000D01*
X134590000Y-136930000D02*
X134590000Y-135620000D01*
X134590000Y-142380000D02*
X134590000Y-141070000D01*
X134590000Y-139470000D02*
X134590000Y-138530000D01*
X141650000Y-142620000D02*
X140267000Y-142620000D01*
X141650000Y-142620000D02*
X141650000Y-141237000D01*
X139810000Y-140905000D02*
X139810000Y-139635000D01*
X139810000Y-139635000D02*
X136190000Y-139635000D01*
X136190000Y-139635000D02*
X136190000Y-140905000D01*
X136190000Y-140905000D02*
X139810000Y-140905000D01*
X139810000Y-140785000D02*
X138603333Y-140785000D01*
X139810000Y-140665000D02*
X138603333Y-140665000D01*
X139810000Y-140545000D02*
X138603333Y-140545000D01*
X139810000Y-140425000D02*
X138603333Y-140425000D01*
X139810000Y-140305000D02*
X138603333Y-140305000D01*
X139810000Y-140185000D02*
X138603333Y-140185000D01*
X139810000Y-140065000D02*
X138603333Y-140065000D01*
X139810000Y-139945000D02*
X138603333Y-139945000D01*
X139810000Y-139825000D02*
X138603333Y-139825000D01*
X139810000Y-139705000D02*
X138603333Y-139705000D01*
X138603333Y-140905000D02*
X138603333Y-139635000D01*
X139810000Y-138365000D02*
X139810000Y-137095000D01*
X139810000Y-137095000D02*
X136190000Y-137095000D01*
X136190000Y-137095000D02*
X136190000Y-138365000D01*
X136190000Y-138365000D02*
X139810000Y-138365000D01*
X139810000Y-138245000D02*
X138603333Y-138245000D01*
X139810000Y-138125000D02*
X138603333Y-138125000D01*
X139810000Y-138005000D02*
X138603333Y-138005000D01*
X139810000Y-137885000D02*
X138603333Y-137885000D01*
X139810000Y-137765000D02*
X138603333Y-137765000D01*
X139810000Y-137645000D02*
X138603333Y-137645000D01*
X139810000Y-137525000D02*
X138603333Y-137525000D01*
X139810000Y-137405000D02*
X138603333Y-137405000D01*
X139810000Y-137285000D02*
X138603333Y-137285000D01*
X139810000Y-137165000D02*
X138603333Y-137165000D01*
X138603333Y-138365000D02*
X138603333Y-137095000D01*
%TO.C,SW3*%
X105590000Y-135620000D02*
X112410000Y-135620000D01*
X105590000Y-142380000D02*
X112410000Y-142380000D01*
X105590000Y-135620000D02*
X105590000Y-136930000D01*
X105590000Y-138530000D02*
X105590000Y-139470000D01*
X105590000Y-141070000D02*
X105590000Y-142380000D01*
X112410000Y-141070000D02*
X112410000Y-142380000D01*
X112410000Y-135620000D02*
X112410000Y-136930000D01*
X112410000Y-138530000D02*
X112410000Y-139470000D01*
X105350000Y-135380000D02*
X106733000Y-135380000D01*
X105350000Y-135380000D02*
X105350000Y-136763000D01*
X107190000Y-137095000D02*
X107190000Y-138365000D01*
X107190000Y-138365000D02*
X110810000Y-138365000D01*
X110810000Y-138365000D02*
X110810000Y-137095000D01*
X110810000Y-137095000D02*
X107190000Y-137095000D01*
X107190000Y-137215000D02*
X108396667Y-137215000D01*
X107190000Y-137335000D02*
X108396667Y-137335000D01*
X107190000Y-137455000D02*
X108396667Y-137455000D01*
X107190000Y-137575000D02*
X108396667Y-137575000D01*
X107190000Y-137695000D02*
X108396667Y-137695000D01*
X107190000Y-137815000D02*
X108396667Y-137815000D01*
X107190000Y-137935000D02*
X108396667Y-137935000D01*
X107190000Y-138055000D02*
X108396667Y-138055000D01*
X107190000Y-138175000D02*
X108396667Y-138175000D01*
X107190000Y-138295000D02*
X108396667Y-138295000D01*
X108396667Y-137095000D02*
X108396667Y-138365000D01*
X107190000Y-139635000D02*
X107190000Y-140905000D01*
X107190000Y-140905000D02*
X110810000Y-140905000D01*
X110810000Y-140905000D02*
X110810000Y-139635000D01*
X110810000Y-139635000D02*
X107190000Y-139635000D01*
X107190000Y-139755000D02*
X108396667Y-139755000D01*
X107190000Y-139875000D02*
X108396667Y-139875000D01*
X107190000Y-139995000D02*
X108396667Y-139995000D01*
X107190000Y-140115000D02*
X108396667Y-140115000D01*
X107190000Y-140235000D02*
X108396667Y-140235000D01*
X107190000Y-140355000D02*
X108396667Y-140355000D01*
X107190000Y-140475000D02*
X108396667Y-140475000D01*
X107190000Y-140595000D02*
X108396667Y-140595000D01*
X107190000Y-140715000D02*
X108396667Y-140715000D01*
X107190000Y-140835000D02*
X108396667Y-140835000D01*
X108396667Y-139635000D02*
X108396667Y-140905000D01*
%TO.C,TH1*%
X131680000Y-160846359D02*
X131680000Y-161153641D01*
X130920000Y-160846359D02*
X130920000Y-161153641D01*
%TO.C,TP1*%
X118500000Y-159300000D02*
G75*
G03*
X118500000Y-159300000I-1200000J0D01*
G01*
%TO.C,TP2*%
X119800000Y-153400000D02*
G75*
G03*
X119800000Y-153400000I-1200000J0D01*
G01*
%TO.C,TP3*%
X131900000Y-153200000D02*
G75*
G03*
X131900000Y-153200000I-1200000J0D01*
G01*
%TO.C,U2*%
X128350000Y-158700000D02*
X128000000Y-158350000D01*
X128000000Y-158350000D02*
X128025000Y-156300000D01*
X128025000Y-156300000D02*
X130975000Y-156300000D01*
X130975000Y-156300000D02*
X130975000Y-158700000D01*
X130975000Y-158700000D02*
X128350000Y-158700000D01*
%TO.C,U3*%
X125450000Y-147340000D02*
X126760000Y-147340000D01*
X126760000Y-147340000D02*
X126760000Y-150060000D01*
X122270000Y-151200000D02*
X122270000Y-150060000D01*
X122040000Y-147340000D02*
X123350000Y-147340000D01*
X122040000Y-150060000D02*
X122040000Y-147340000D01*
X122040000Y-150060000D02*
X122270000Y-150060000D01*
X126760000Y-150060000D02*
X126530000Y-150060000D01*
%TO.C,U4*%
X125240000Y-140120000D02*
X125240000Y-141050000D01*
X125240000Y-143280000D02*
X125240000Y-142350000D01*
X125240000Y-143280000D02*
X127400000Y-143280000D01*
X125240000Y-140120000D02*
X126700000Y-140120000D01*
%TO.C,U5*%
X117740000Y-141900000D02*
X117740000Y-143850000D01*
X117740000Y-141900000D02*
X117740000Y-139950000D01*
X122860000Y-141900000D02*
X122860000Y-143850000D01*
X122860000Y-141900000D02*
X122860000Y-138450000D01*
%TO.C,C11*%
X131140000Y-134807836D02*
X131140000Y-134592164D01*
X131860000Y-134807836D02*
X131860000Y-134592164D01*
%TO.C,C12*%
X118160000Y-146892164D02*
X118160000Y-147107836D01*
X117440000Y-146892164D02*
X117440000Y-147107836D01*
%TO.C,C13*%
X120340580Y-146910000D02*
X120059420Y-146910000D01*
X120340580Y-145890000D02*
X120059420Y-145890000D01*
%TO.C,TP4*%
X118674999Y-132375001D02*
G75*
G03*
X118674999Y-132375001I-950000J0D01*
G01*
%TO.C,TP5*%
X118650000Y-135000000D02*
G75*
G03*
X118650000Y-135000000I-950000J0D01*
G01*
%TO.C,D2*%
X130700000Y-147000000D02*
G75*
G03*
X130700000Y-147000000I-100000J0D01*
G01*
%TO.C,D3*%
X129600000Y-129300000D02*
G75*
G03*
X129600000Y-129300000I-100000J0D01*
G01*
%TO.C,D4*%
X117100000Y-143900000D02*
G75*
G03*
X117100000Y-143900000I-100000J0D01*
G01*
%TO.C,D5*%
X117600000Y-130700000D02*
G75*
G03*
X117600000Y-130700000I-100000J0D01*
G01*
%TO.C,C5*%
D12*
X119157142Y-149666666D02*
X119204761Y-149714285D01*
X119252380Y-149857142D01*
X119252380Y-149952380D01*
X119204761Y-150095238D01*
X119109523Y-150190476D01*
X119014285Y-150238095D01*
X118823809Y-150285714D01*
X118680952Y-150285714D01*
X118490476Y-150238095D01*
X118395238Y-150190476D01*
X118300000Y-150095238D01*
X118252380Y-149952380D01*
X118252380Y-149857142D01*
X118300000Y-149714285D01*
X118347619Y-149666666D01*
X118252380Y-148761904D02*
X118252380Y-149238095D01*
X118728571Y-149285714D01*
X118680952Y-149238095D01*
X118633333Y-149142857D01*
X118633333Y-148904761D01*
X118680952Y-148809523D01*
X118728571Y-148761904D01*
X118823809Y-148714285D01*
X119061904Y-148714285D01*
X119157142Y-148761904D01*
X119204761Y-148809523D01*
X119252380Y-148904761D01*
X119252380Y-149142857D01*
X119204761Y-149238095D01*
X119157142Y-149285714D01*
%TO.C,C6*%
X130507142Y-149666666D02*
X130554761Y-149714285D01*
X130602380Y-149857142D01*
X130602380Y-149952380D01*
X130554761Y-150095238D01*
X130459523Y-150190476D01*
X130364285Y-150238095D01*
X130173809Y-150285714D01*
X130030952Y-150285714D01*
X129840476Y-150238095D01*
X129745238Y-150190476D01*
X129650000Y-150095238D01*
X129602380Y-149952380D01*
X129602380Y-149857142D01*
X129650000Y-149714285D01*
X129697619Y-149666666D01*
X129602380Y-148809523D02*
X129602380Y-149000000D01*
X129650000Y-149095238D01*
X129697619Y-149142857D01*
X129840476Y-149238095D01*
X130030952Y-149285714D01*
X130411904Y-149285714D01*
X130507142Y-149238095D01*
X130554761Y-149190476D01*
X130602380Y-149095238D01*
X130602380Y-148904761D01*
X130554761Y-148809523D01*
X130507142Y-148761904D01*
X130411904Y-148714285D01*
X130173809Y-148714285D01*
X130078571Y-148761904D01*
X130030952Y-148809523D01*
X129983333Y-148904761D01*
X129983333Y-149095238D01*
X130030952Y-149190476D01*
X130078571Y-149238095D01*
X130173809Y-149285714D01*
%TO.C,D1*%
X123261904Y-130252380D02*
X123261904Y-129252380D01*
X123500000Y-129252380D01*
X123642857Y-129300000D01*
X123738095Y-129395238D01*
X123785714Y-129490476D01*
X123833333Y-129680952D01*
X123833333Y-129823809D01*
X123785714Y-130014285D01*
X123738095Y-130109523D01*
X123642857Y-130204761D01*
X123500000Y-130252380D01*
X123261904Y-130252380D01*
X124785714Y-130252380D02*
X124214285Y-130252380D01*
X124500000Y-130252380D02*
X124500000Y-129252380D01*
X124404761Y-129395238D01*
X124309523Y-129490476D01*
X124214285Y-129538095D01*
D13*
X124492857Y-128642857D02*
X124530952Y-128528571D01*
X124569047Y-128490476D01*
X124645238Y-128452380D01*
X124759523Y-128452380D01*
X124835714Y-128490476D01*
X124873809Y-128528571D01*
X124911904Y-128604761D01*
X124911904Y-128909523D01*
X124111904Y-128909523D01*
X124111904Y-128642857D01*
X124150000Y-128566666D01*
X124188095Y-128528571D01*
X124264285Y-128490476D01*
X124340476Y-128490476D01*
X124416666Y-128528571D01*
X124454761Y-128566666D01*
X124492857Y-128642857D01*
X124492857Y-128909523D01*
X123100000Y-124940476D02*
X123061904Y-125016666D01*
X123061904Y-125130952D01*
X123100000Y-125245238D01*
X123176190Y-125321428D01*
X123252380Y-125359523D01*
X123404761Y-125397619D01*
X123519047Y-125397619D01*
X123671428Y-125359523D01*
X123747619Y-125321428D01*
X123823809Y-125245238D01*
X123861904Y-125130952D01*
X123861904Y-125054761D01*
X123823809Y-124940476D01*
X123785714Y-124902380D01*
X123519047Y-124902380D01*
X123519047Y-125054761D01*
X125011904Y-124902380D02*
X124630952Y-125169047D01*
X125011904Y-125359523D02*
X124211904Y-125359523D01*
X124211904Y-125054761D01*
X124250000Y-124978571D01*
X124288095Y-124940476D01*
X124364285Y-124902380D01*
X124478571Y-124902380D01*
X124554761Y-124940476D01*
X124592857Y-124978571D01*
X124630952Y-125054761D01*
X124630952Y-125359523D01*
%TO.C,FB1*%
D12*
X129428571Y-143733333D02*
X129428571Y-144066666D01*
X129952380Y-144066666D02*
X128952380Y-144066666D01*
X128952380Y-143590476D01*
X129428571Y-142876190D02*
X129476190Y-142733333D01*
X129523809Y-142685714D01*
X129619047Y-142638095D01*
X129761904Y-142638095D01*
X129857142Y-142685714D01*
X129904761Y-142733333D01*
X129952380Y-142828571D01*
X129952380Y-143209523D01*
X128952380Y-143209523D01*
X128952380Y-142876190D01*
X129000000Y-142780952D01*
X129047619Y-142733333D01*
X129142857Y-142685714D01*
X129238095Y-142685714D01*
X129333333Y-142733333D01*
X129380952Y-142780952D01*
X129428571Y-142876190D01*
X129428571Y-143209523D01*
X129952380Y-141685714D02*
X129952380Y-142257142D01*
X129952380Y-141971428D02*
X128952380Y-141971428D01*
X129095238Y-142066666D01*
X129190476Y-142161904D01*
X129238095Y-142257142D01*
%TO.C,J1*%
X116166666Y-166502380D02*
X116166666Y-167216666D01*
X116119047Y-167359523D01*
X116023809Y-167454761D01*
X115880952Y-167502380D01*
X115785714Y-167502380D01*
X117166666Y-167502380D02*
X116595238Y-167502380D01*
X116880952Y-167502380D02*
X116880952Y-166502380D01*
X116785714Y-166645238D01*
X116690476Y-166740476D01*
X116595238Y-166788095D01*
%TO.C,J2*%
X138666666Y-162952380D02*
X138666666Y-163666666D01*
X138619047Y-163809523D01*
X138523809Y-163904761D01*
X138380952Y-163952380D01*
X138285714Y-163952380D01*
X139095238Y-163047619D02*
X139142857Y-163000000D01*
X139238095Y-162952380D01*
X139476190Y-162952380D01*
X139571428Y-163000000D01*
X139619047Y-163047619D01*
X139666666Y-163142857D01*
X139666666Y-163238095D01*
X139619047Y-163380952D01*
X139047619Y-163952380D01*
X139666666Y-163952380D01*
%TO.C,J3*%
X133566666Y-143352380D02*
X133566666Y-144066666D01*
X133519047Y-144209523D01*
X133423809Y-144304761D01*
X133280952Y-144352380D01*
X133185714Y-144352380D01*
X133947619Y-143352380D02*
X134566666Y-143352380D01*
X134233333Y-143733333D01*
X134376190Y-143733333D01*
X134471428Y-143780952D01*
X134519047Y-143828571D01*
X134566666Y-143923809D01*
X134566666Y-144161904D01*
X134519047Y-144257142D01*
X134471428Y-144304761D01*
X134376190Y-144352380D01*
X134090476Y-144352380D01*
X133995238Y-144304761D01*
X133947619Y-144257142D01*
%TO.C,J4*%
X133866666Y-125352380D02*
X133866666Y-126066666D01*
X133819047Y-126209523D01*
X133723809Y-126304761D01*
X133580952Y-126352380D01*
X133485714Y-126352380D01*
X134771428Y-125685714D02*
X134771428Y-126352380D01*
X134533333Y-125304761D02*
X134295238Y-126019047D01*
X134914285Y-126019047D01*
%TO.C,J5*%
X113416666Y-151502380D02*
X113416666Y-152216666D01*
X113369047Y-152359523D01*
X113273809Y-152454761D01*
X113130952Y-152502380D01*
X113035714Y-152502380D01*
X114369047Y-151502380D02*
X113892857Y-151502380D01*
X113845238Y-151978571D01*
X113892857Y-151930952D01*
X113988095Y-151883333D01*
X114226190Y-151883333D01*
X114321428Y-151930952D01*
X114369047Y-151978571D01*
X114416666Y-152073809D01*
X114416666Y-152311904D01*
X114369047Y-152407142D01*
X114321428Y-152454761D01*
X114226190Y-152502380D01*
X113988095Y-152502380D01*
X113892857Y-152454761D01*
X113845238Y-152407142D01*
%TO.C,J6*%
X113416666Y-133502380D02*
X113416666Y-134216666D01*
X113369047Y-134359523D01*
X113273809Y-134454761D01*
X113130952Y-134502380D01*
X113035714Y-134502380D01*
X114321428Y-133502380D02*
X114130952Y-133502380D01*
X114035714Y-133550000D01*
X113988095Y-133597619D01*
X113892857Y-133740476D01*
X113845238Y-133930952D01*
X113845238Y-134311904D01*
X113892857Y-134407142D01*
X113940476Y-134454761D01*
X114035714Y-134502380D01*
X114226190Y-134502380D01*
X114321428Y-134454761D01*
X114369047Y-134407142D01*
X114416666Y-134311904D01*
X114416666Y-134073809D01*
X114369047Y-133978571D01*
X114321428Y-133930952D01*
X114226190Y-133883333D01*
X114035714Y-133883333D01*
X113940476Y-133930952D01*
X113892857Y-133978571D01*
X113845238Y-134073809D01*
%TO.C,J7*%
X113866666Y-165602380D02*
X113866666Y-166316666D01*
X113819047Y-166459523D01*
X113723809Y-166554761D01*
X113580952Y-166602380D01*
X113485714Y-166602380D01*
X114247619Y-165602380D02*
X114914285Y-165602380D01*
X114485714Y-166602380D01*
%TO.C,SW1*%
X139816666Y-167504761D02*
X139959523Y-167552380D01*
X140197619Y-167552380D01*
X140292857Y-167504761D01*
X140340476Y-167457142D01*
X140388095Y-167361904D01*
X140388095Y-167266666D01*
X140340476Y-167171428D01*
X140292857Y-167123809D01*
X140197619Y-167076190D01*
X140007142Y-167028571D01*
X139911904Y-166980952D01*
X139864285Y-166933333D01*
X139816666Y-166838095D01*
X139816666Y-166742857D01*
X139864285Y-166647619D01*
X139911904Y-166600000D01*
X140007142Y-166552380D01*
X140245238Y-166552380D01*
X140388095Y-166600000D01*
X140721428Y-166552380D02*
X140959523Y-167552380D01*
X141150000Y-166838095D01*
X141340476Y-167552380D01*
X141578571Y-166552380D01*
X142483333Y-167552380D02*
X141911904Y-167552380D01*
X142197619Y-167552380D02*
X142197619Y-166552380D01*
X142102380Y-166695238D01*
X142007142Y-166790476D01*
X141911904Y-166838095D01*
%TO.C,SW2*%
X137616666Y-143854761D02*
X137759523Y-143902380D01*
X137997619Y-143902380D01*
X138092857Y-143854761D01*
X138140476Y-143807142D01*
X138188095Y-143711904D01*
X138188095Y-143616666D01*
X138140476Y-143521428D01*
X138092857Y-143473809D01*
X137997619Y-143426190D01*
X137807142Y-143378571D01*
X137711904Y-143330952D01*
X137664285Y-143283333D01*
X137616666Y-143188095D01*
X137616666Y-143092857D01*
X137664285Y-142997619D01*
X137711904Y-142950000D01*
X137807142Y-142902380D01*
X138045238Y-142902380D01*
X138188095Y-142950000D01*
X138521428Y-142902380D02*
X138759523Y-143902380D01*
X138950000Y-143188095D01*
X139140476Y-143902380D01*
X139378571Y-142902380D01*
X139711904Y-142997619D02*
X139759523Y-142950000D01*
X139854761Y-142902380D01*
X140092857Y-142902380D01*
X140188095Y-142950000D01*
X140235714Y-142997619D01*
X140283333Y-143092857D01*
X140283333Y-143188095D01*
X140235714Y-143330952D01*
X139664285Y-143902380D01*
X140283333Y-143902380D01*
%TO.C,SW3*%
X106666666Y-135204761D02*
X106809523Y-135252380D01*
X107047619Y-135252380D01*
X107142857Y-135204761D01*
X107190476Y-135157142D01*
X107238095Y-135061904D01*
X107238095Y-134966666D01*
X107190476Y-134871428D01*
X107142857Y-134823809D01*
X107047619Y-134776190D01*
X106857142Y-134728571D01*
X106761904Y-134680952D01*
X106714285Y-134633333D01*
X106666666Y-134538095D01*
X106666666Y-134442857D01*
X106714285Y-134347619D01*
X106761904Y-134300000D01*
X106857142Y-134252380D01*
X107095238Y-134252380D01*
X107238095Y-134300000D01*
X107571428Y-134252380D02*
X107809523Y-135252380D01*
X108000000Y-134538095D01*
X108190476Y-135252380D01*
X108428571Y-134252380D01*
X108714285Y-134252380D02*
X109333333Y-134252380D01*
X109000000Y-134633333D01*
X109142857Y-134633333D01*
X109238095Y-134680952D01*
X109285714Y-134728571D01*
X109333333Y-134823809D01*
X109333333Y-135061904D01*
X109285714Y-135157142D01*
X109238095Y-135204761D01*
X109142857Y-135252380D01*
X108857142Y-135252380D01*
X108761904Y-135204761D01*
X108714285Y-135157142D01*
%TO.C,TH1*%
X130752380Y-164435714D02*
X130752380Y-163864285D01*
X131752380Y-164150000D02*
X130752380Y-164150000D01*
X131752380Y-163530952D02*
X130752380Y-163530952D01*
X131228571Y-163530952D02*
X131228571Y-162959523D01*
X131752380Y-162959523D02*
X130752380Y-162959523D01*
X131752380Y-161959523D02*
X131752380Y-162530952D01*
X131752380Y-162245238D02*
X130752380Y-162245238D01*
X130895238Y-162340476D01*
X130990476Y-162435714D01*
X131038095Y-162530952D01*
%TO.C,TP1*%
X115052380Y-160833333D02*
X116052380Y-160500000D01*
X115052380Y-160166666D01*
X115528571Y-159500000D02*
X115576190Y-159357142D01*
X115623809Y-159309523D01*
X115719047Y-159261904D01*
X115861904Y-159261904D01*
X115957142Y-159309523D01*
X116004761Y-159357142D01*
X116052380Y-159452380D01*
X116052380Y-159833333D01*
X115052380Y-159833333D01*
X115052380Y-159500000D01*
X115100000Y-159404761D01*
X115147619Y-159357142D01*
X115242857Y-159309523D01*
X115338095Y-159309523D01*
X115433333Y-159357142D01*
X115480952Y-159404761D01*
X115528571Y-159500000D01*
X115528571Y-159833333D01*
X115052380Y-158833333D02*
X115861904Y-158833333D01*
X115957142Y-158785714D01*
X116004761Y-158738095D01*
X116052380Y-158642857D01*
X116052380Y-158452380D01*
X116004761Y-158357142D01*
X115957142Y-158309523D01*
X115861904Y-158261904D01*
X115052380Y-158261904D01*
X116004761Y-157833333D02*
X116052380Y-157690476D01*
X116052380Y-157452380D01*
X116004761Y-157357142D01*
X115957142Y-157309523D01*
X115861904Y-157261904D01*
X115766666Y-157261904D01*
X115671428Y-157309523D01*
X115623809Y-157357142D01*
X115576190Y-157452380D01*
X115528571Y-157642857D01*
X115480952Y-157738095D01*
X115433333Y-157785714D01*
X115338095Y-157833333D01*
X115242857Y-157833333D01*
X115147619Y-157785714D01*
X115100000Y-157738095D01*
X115052380Y-157642857D01*
X115052380Y-157404761D01*
X115100000Y-157261904D01*
%TO.C,TP2*%
X120102380Y-154733333D02*
X121102380Y-154400000D01*
X120102380Y-154066666D01*
X121102380Y-153733333D02*
X120102380Y-153733333D01*
X120102380Y-153352380D01*
X120150000Y-153257142D01*
X120197619Y-153209523D01*
X120292857Y-153161904D01*
X120435714Y-153161904D01*
X120530952Y-153209523D01*
X120578571Y-153257142D01*
X120626190Y-153352380D01*
X120626190Y-153733333D01*
X121102380Y-152733333D02*
X120102380Y-152733333D01*
X120102380Y-152352380D01*
X120150000Y-152257142D01*
X120197619Y-152209523D01*
X120292857Y-152161904D01*
X120435714Y-152161904D01*
X120530952Y-152209523D01*
X120578571Y-152257142D01*
X120626190Y-152352380D01*
X120626190Y-152733333D01*
%TO.C,TP3*%
X132052380Y-154438095D02*
X132052380Y-153819047D01*
X132433333Y-154152380D01*
X132433333Y-154009523D01*
X132480952Y-153914285D01*
X132528571Y-153866666D01*
X132623809Y-153819047D01*
X132861904Y-153819047D01*
X132957142Y-153866666D01*
X133004761Y-153914285D01*
X133052380Y-154009523D01*
X133052380Y-154295238D01*
X133004761Y-154390476D01*
X132957142Y-154438095D01*
X132052380Y-153533333D02*
X133052380Y-153200000D01*
X132052380Y-152866666D01*
X132052380Y-152628571D02*
X132052380Y-152009523D01*
X132433333Y-152342857D01*
X132433333Y-152200000D01*
X132480952Y-152104761D01*
X132528571Y-152057142D01*
X132623809Y-152009523D01*
X132861904Y-152009523D01*
X132957142Y-152057142D01*
X133004761Y-152104761D01*
X133052380Y-152200000D01*
X133052380Y-152485714D01*
X133004761Y-152580952D01*
X132957142Y-152628571D01*
%TO.C,U2*%
X125852380Y-158311904D02*
X126661904Y-158311904D01*
X126757142Y-158264285D01*
X126804761Y-158216666D01*
X126852380Y-158121428D01*
X126852380Y-157930952D01*
X126804761Y-157835714D01*
X126757142Y-157788095D01*
X126661904Y-157740476D01*
X125852380Y-157740476D01*
X125947619Y-157311904D02*
X125900000Y-157264285D01*
X125852380Y-157169047D01*
X125852380Y-156930952D01*
X125900000Y-156835714D01*
X125947619Y-156788095D01*
X126042857Y-156740476D01*
X126138095Y-156740476D01*
X126280952Y-156788095D01*
X126852380Y-157359523D01*
X126852380Y-156740476D01*
%TO.C,U3*%
X123338095Y-145252380D02*
X123338095Y-146061904D01*
X123385714Y-146157142D01*
X123433333Y-146204761D01*
X123528571Y-146252380D01*
X123719047Y-146252380D01*
X123814285Y-146204761D01*
X123861904Y-146157142D01*
X123909523Y-146061904D01*
X123909523Y-145252380D01*
X124290476Y-145252380D02*
X124909523Y-145252380D01*
X124576190Y-145633333D01*
X124719047Y-145633333D01*
X124814285Y-145680952D01*
X124861904Y-145728571D01*
X124909523Y-145823809D01*
X124909523Y-146061904D01*
X124861904Y-146157142D01*
X124814285Y-146204761D01*
X124719047Y-146252380D01*
X124433333Y-146252380D01*
X124338095Y-146204761D01*
X124290476Y-146157142D01*
%TO.C,U4*%
X125238095Y-143652380D02*
X125238095Y-144461904D01*
X125285714Y-144557142D01*
X125333333Y-144604761D01*
X125428571Y-144652380D01*
X125619047Y-144652380D01*
X125714285Y-144604761D01*
X125761904Y-144557142D01*
X125809523Y-144461904D01*
X125809523Y-143652380D01*
X126714285Y-143985714D02*
X126714285Y-144652380D01*
X126476190Y-143604761D02*
X126238095Y-144319047D01*
X126857142Y-144319047D01*
%TO.C,U5*%
X123152380Y-141461904D02*
X123961904Y-141461904D01*
X124057142Y-141414285D01*
X124104761Y-141366666D01*
X124152380Y-141271428D01*
X124152380Y-141080952D01*
X124104761Y-140985714D01*
X124057142Y-140938095D01*
X123961904Y-140890476D01*
X123152380Y-140890476D01*
X123152380Y-139938095D02*
X123152380Y-140414285D01*
X123628571Y-140461904D01*
X123580952Y-140414285D01*
X123533333Y-140319047D01*
X123533333Y-140080952D01*
X123580952Y-139985714D01*
X123628571Y-139938095D01*
X123723809Y-139890476D01*
X123961904Y-139890476D01*
X124057142Y-139938095D01*
X124104761Y-139985714D01*
X124152380Y-140080952D01*
X124152380Y-140319047D01*
X124104761Y-140414285D01*
X124057142Y-140461904D01*
%TO.C,TP4*%
X119952380Y-132566666D02*
X119476190Y-132900000D01*
X119952380Y-133138095D02*
X118952380Y-133138095D01*
X118952380Y-132757142D01*
X119000000Y-132661904D01*
X119047619Y-132614285D01*
X119142857Y-132566666D01*
X119285714Y-132566666D01*
X119380952Y-132614285D01*
X119428571Y-132661904D01*
X119476190Y-132757142D01*
X119476190Y-133138095D01*
X118952380Y-132233333D02*
X119952380Y-131566666D01*
X118952380Y-131566666D02*
X119952380Y-132233333D01*
%TO.C,TP5*%
X118952380Y-135861904D02*
X118952380Y-135290476D01*
X119952380Y-135576190D02*
X118952380Y-135576190D01*
X118952380Y-135052380D02*
X119952380Y-134385714D01*
X118952380Y-134385714D02*
X119952380Y-135052380D01*
%TO.C,D2*%
X129152380Y-147038095D02*
X128152380Y-147038095D01*
X128152380Y-146800000D01*
X128200000Y-146657142D01*
X128295238Y-146561904D01*
X128390476Y-146514285D01*
X128580952Y-146466666D01*
X128723809Y-146466666D01*
X128914285Y-146514285D01*
X129009523Y-146561904D01*
X129104761Y-146657142D01*
X129152380Y-146800000D01*
X129152380Y-147038095D01*
X128247619Y-146085714D02*
X128200000Y-146038095D01*
X128152380Y-145942857D01*
X128152380Y-145704761D01*
X128200000Y-145609523D01*
X128247619Y-145561904D01*
X128342857Y-145514285D01*
X128438095Y-145514285D01*
X128580952Y-145561904D01*
X129152380Y-146133333D01*
X129152380Y-145514285D01*
%TO.C,D3*%
X130552380Y-132238095D02*
X129552380Y-132238095D01*
X129552380Y-132000000D01*
X129600000Y-131857142D01*
X129695238Y-131761904D01*
X129790476Y-131714285D01*
X129980952Y-131666666D01*
X130123809Y-131666666D01*
X130314285Y-131714285D01*
X130409523Y-131761904D01*
X130504761Y-131857142D01*
X130552380Y-132000000D01*
X130552380Y-132238095D01*
X129552380Y-131333333D02*
X129552380Y-130714285D01*
X129933333Y-131047619D01*
X129933333Y-130904761D01*
X129980952Y-130809523D01*
X130028571Y-130761904D01*
X130123809Y-130714285D01*
X130361904Y-130714285D01*
X130457142Y-130761904D01*
X130504761Y-130809523D01*
X130552380Y-130904761D01*
X130552380Y-131190476D01*
X130504761Y-131285714D01*
X130457142Y-131333333D01*
%TO.C,D4*%
X113861904Y-144652380D02*
X113861904Y-143652380D01*
X114100000Y-143652380D01*
X114242857Y-143700000D01*
X114338095Y-143795238D01*
X114385714Y-143890476D01*
X114433333Y-144080952D01*
X114433333Y-144223809D01*
X114385714Y-144414285D01*
X114338095Y-144509523D01*
X114242857Y-144604761D01*
X114100000Y-144652380D01*
X113861904Y-144652380D01*
X115290476Y-143985714D02*
X115290476Y-144652380D01*
X115052380Y-143604761D02*
X114814285Y-144319047D01*
X115433333Y-144319047D01*
%TO.C,D5*%
X118752380Y-130738095D02*
X117752380Y-130738095D01*
X117752380Y-130500000D01*
X117800000Y-130357142D01*
X117895238Y-130261904D01*
X117990476Y-130214285D01*
X118180952Y-130166666D01*
X118323809Y-130166666D01*
X118514285Y-130214285D01*
X118609523Y-130261904D01*
X118704761Y-130357142D01*
X118752380Y-130500000D01*
X118752380Y-130738095D01*
X117752380Y-129261904D02*
X117752380Y-129738095D01*
X118228571Y-129785714D01*
X118180952Y-129738095D01*
X118133333Y-129642857D01*
X118133333Y-129404761D01*
X118180952Y-129309523D01*
X118228571Y-129261904D01*
X118323809Y-129214285D01*
X118561904Y-129214285D01*
X118657142Y-129261904D01*
X118704761Y-129309523D01*
X118752380Y-129404761D01*
X118752380Y-129642857D01*
X118704761Y-129738095D01*
X118657142Y-129785714D01*
%TD*%
M02*
