M48
; DRILL file {KiCad (5.1.8)-1} date 07/06/21 20:41:51
; FORMAT={-:-/ absolute / metric / decimal}
; #@! TF.CreationDate,2021-07-06T20:41:51+01:00
; #@! TF.GenerationSoftware,Kicad,Pcbnew,(5.1.8)-1
; #@! TF.FileFunction,Plated,1,2,PTH
FMAT,2
METRIC
T1C0.400
T2C1.000
%
G90
G05
T1
X105.0Y-128.3
X105.0Y-146.3
X105.4Y-131.6
X105.4Y-149.7
X105.5Y-164.4
X107.38Y-149.13
X107.4Y-149.99
X109.0Y-139.0
X114.9Y-157.9
X115.1Y-153.0
X116.2Y-132.4
X116.3Y-133.9
X116.4Y-161.7
X116.6Y-147.4
X116.7Y-143.6
X116.8Y-141.5
X117.0Y-126.9
X117.3Y-128.2
X117.6Y-150.9
X118.4Y-156.2
X118.8Y-147.2
X119.4Y-142.4
X119.8Y-159.3
X120.4Y-127.0
X122.3Y-130.5
X123.7Y-138.7
X123.7Y-142.1
X123.7Y-152.9
X123.8Y-160.1
X124.3Y-162.82
X125.5Y-145.6
X126.3Y-125.4
X126.3Y-143.6
X127.335Y-159.722
X127.4Y-156.6
X127.415Y-127.483
X127.5Y-158.1
X127.6Y-126.5
X127.8Y-134.7
X128.4Y-132.6
X128.75Y-136.85
X129.3Y-154.9
X129.4Y-144.9
X129.443Y-126.657
X129.7Y-132.3
X130.1Y-155.7
X130.4Y-129.3
X130.5Y-126.5
X130.5Y-150.8
X130.7Y-162.6
X131.0Y-158.15
X131.2Y-155.7
X132.6Y-155.3
X133.6Y-135.6
X133.9Y-162.9
X138.0Y-139.0
X141.5Y-128.4
X141.5Y-146.3
X142.0Y-131.6
X142.1Y-149.6
T2
X118.6Y-153.4
X117.3Y-159.3
X130.7Y-153.2
T0
M30
